<svg xmlns="http://www.w3.org/2000/svg" viewBox="0 0 1200 630"><defs><style>.cls-1{fill:#09c;}.cls-2{fill:#f33;}.cls-3{fill:#231f20;}.cls-4,.cls-7{fill:#fff;}.cls-5{fill:gray;}.cls-6{fill:#bfbebe;}.cls-7{stroke:#000;stroke-linecap:round;stroke-linejoin:round;stroke-width:0.04px;}.cls-8{fill:#ec1c24;}.cls-9{fill:#2e3191;}.cls-10{fill:#00a551;}.cls-11{fill:#00ac4d;}</style></defs><title>bced2018_FB feed</title><g id="fb_feed" data-name="fb feed"><rect class="cls-1" x="-21.77" width="1243.54" height="443.92"/><rect class="cls-2" x="-6.51" y="236.54" width="1213.03" height="256.06"/><path class="cls-3" d="M479.84,451.75h-4.65l.73-5h4.65l1.07-8.13H477l.79-5h4.48l1.57-11.2H489l-1.56,11.2h5.48l1.57-11.2h5.1L498,433.66h4.82l-.73,5h-4.76l-1.06,8.13h4.64l-.72,5h-4.71l-1.34,10.48H489l1.4-10.48h-5.55l-1.4,10.48h-5Zm11.32-5,1.06-8.13h-5.49l-1.12,8.13Z"/><path class="cls-3" d="M508.19,422.46h10.75c6.33,0,10.93,3.64,10.93,10.25a9.37,9.37,0,0,1-4.65,8.51v.11c4.09,1.29,5.93,5.16,5.93,9.41,0,8-5,11.49-12,11.49h-11Zm11,16.3c2.24,0,3.7-2.25,3.7-5.21s-1.51-5.05-4.2-5.05H515v10.26Zm-.16,17.42c3.58,0,5.09-2.52,5.09-5.83,0-3.58-1.68-5.94-4.31-5.94H515v11.77Z"/><path class="cls-3" d="M552.27,421.78a14.72,14.72,0,0,1,9.69,3.31L559.11,431a9.71,9.71,0,0,0-6.61-2.75c-6.89,0-10.65,6.17-10.65,13.78,0,7.79,4,14.46,10.54,14.46a11.76,11.76,0,0,0,7.39-2.92l2.8,5.77a16,16,0,0,1-10.7,3.59c-10.75,0-17-8.85-17-20.62S541.29,421.78,552.27,421.78Z"/><path class="cls-3" d="M567,422.46h18.93v6h-12.1v10.65h9.75v6.05h-9.75v11h12.77v6.05H567Z"/><path class="cls-3" d="M591.77,422.46h11c9.8,0,16,7.28,16,19.82s-6.22,20-16,20h-11Zm10.75,33.66c5.83,0,9.24-4.82,9.24-13.84s-3.53-13.72-9.24-13.72H598.6v27.56Z"/><path class="cls-3" d="M623.42,458.53c0-13.5,13.72-15.35,13.72-24.82,0-3.47-1.91-5.32-4.76-5.32a5.9,5.9,0,0,0-5,2.75l-4.65-3.81a13.1,13.1,0,0,1,10.64-5.55c5.94,0,10.92,3.92,10.92,11.21,0,12-13.22,15.34-13.61,23.19H644.7v6.05h-21A20.61,20.61,0,0,1,623.42,458.53Z"/><path class="cls-3" d="M649.63,442.28c0-11.42,2.35-20.5,11.65-20.5s11.54,9.08,11.54,20.5-2.3,20.62-11.54,20.62S649.63,453.71,649.63,442.28Zm16.25,0c0-7.84-.68-14-4.6-14s-4.65,6.16-4.65,14,.67,14.12,4.65,14.12S665.88,450.24,665.88,442.28Z"/><path class="cls-3" d="M678,456.34h6.61V434c0-1.28.11-2.52.11-2.52h-.11a8.54,8.54,0,0,1-1.29,2.08l-2.08,2.63-4-3.87,8.12-9.85h5.88v33.88h6.56v5.89H678Z"/><path class="cls-3" d="M706.77,441.05a11.28,11.28,0,0,1-4.48-9c0-5.32,3.13-10.25,10.53-10.25s10.7,4.48,10.7,9.81c0,4.92-3.2,9.07-4.32,10.47a11.33,11.33,0,0,1,5.1,9.52c0,6.05-4,11.32-11.76,11.32s-11.43-5.16-11.43-11C701.11,445.93,705.42,442.12,706.77,441.05Zm4.42,3.08a9.09,9.09,0,0,0-3.13,6.89c0,3.2,1.51,5.66,4.7,5.66,3,0,4.6-2.18,4.6-5C717.36,447.49,714,445.81,711.19,444.13Zm3.2-4.87a10.24,10.24,0,0,0,2.46-6.55c0-2.92-1.34-4.71-4.14-4.71s-3.7,1.79-3.7,4C709,436,711.81,437.75,714.39,439.26Z"/><g id="g2848"><path id="_2" data-name="2" class="cls-4" d="M278.19,60.36,453,20.33,500.17,226.2l-174.85,40Z"/><path id="_3" data-name="3" class="cls-5" d="M278.19,60.36,243.32,45l47.12,205.83,34.88,15.38L278.19,60.37Z"/><path id="_4" data-name="4" class="cls-6" d="M243.32,45,418.17,5l34.49,15.41-174.47,40L243.31,45Z"/><path id="_5" data-name="5" class="cls-5" d="M277.83,64.49l1.46,6.37,4.25,17.24,6.56,25.36,8.41,30.64,9.88,33.11,11,32.8,11.55,29.68,11.79,23.76,8.91-.84,19.64-4.7,26.63-7.29,30-8.78,29.72-8.9,25.75-7.9,18.17-5.61,6.87-2.12-1.92-5.77-5.14-15.68-7.42-23.21L485,144.12l-9.44-31.41-9.12-32-7.92-30.2-5.77-26.09L277.84,64.49Z"/><path id="_6" data-name="6" class="cls-7" d="M278.25,60.4l1.45,6.37L284,84l6.56,25.37L298.92,140l9.88,33.1,11,32.81,11.54,29.67,11.8,23.76,8.91-.84,19.58-4.68,26.58-7.34,30-8.72,29.66-8.94L483.57,221l18.12-5.65,6.86-2.12-1.92-5.76-5.08-15.65-7.47-23.25-8.83-28.5-9.44-31.4-9.12-32-7.92-30.2L453,20.4l-174.7,40Z"/><path id="_7" data-name="7" class="cls-5" d="M314.54,75.15l-.24-.8-.32-.77-.42-.71-.5-.68-.55-.63-.67-.54-.66-.46-.73-.38-.78-.32-.84-.21-.83-.11h-.8l-.89,0-.81.19-.8.23-.76.37-.71.41-.68.51-.62.59-.51.62-.48.71-.38.74-.27.81-.17.79-.11.82v.86l.07.78.19.81.28.78.37.77.46.69.5.64.64.6.66.5.7.44.78.32.76.28.84.16.86,0,.79,0,.88-.1.8-.23.78-.28.76-.43.69-.46.63-.54.57-.58.49-.66.43-.75.33-.78.21-.8.17-.79.05-.86,0-.79-.13-.82Z"/><path id="_8" data-name="8" class="cls-5" d="M442.81,45.78l.14.82,0,.84-.05.86-.17.79-.21.85-.38.74-.38.74-.55.67-.55.63-.68.55-.7.41-.77.38-.77.33-.81.18-.88.1h-.8l-.88-.1-.8-.22-.82-.31-.74-.38-.7-.44-.62-.56-.59-.62-.51-.68-.42-.75-.33-.78-.23-.8-.14-.81,0-.85,0-.86.16-.83.26-.82.32-.77.44-.7.49-.71.62-.59.62-.55.7-.46.76-.37.79-.28.85-.2.83-.09h.85l.83.11.8.22.81.26.74.38.71.49.68.54.54.63.51.69.41.7.33.78.24.84Z"/><path id="_9" data-name="9" class="cls-5" d="M288.65,112.59,328,266.41l2.25.89L291.46,116.8l-2.81-4.2Z"/><path id="_10" data-name="10" class="cls-5" d="M288.57,114.21l44.25,152.45,2.21.9L292.08,118.21l-3.51-4Z"/><path class="cls-1" d="M370.47,210.86l-.88-1.42-.77-1.22-.72-1.1-.7-1.06-.73-1.12-.83-1.27-1.45-2.21c-.24-.37-.47-.69-.67-1s-.4-.5-.59-.72-.39-.43-.53-.61a2,2,0,0,1-.31-.48.37.37,0,0,1,0-.34.53.53,0,0,1,.35-.21,1.61,1.61,0,0,1,1.32.15,2.6,2.6,0,0,1,.51.38l.46.49a1.64,1.64,0,0,1,.36-.58,3,3,0,0,1,.6-.51,5.11,5.11,0,0,1,.73-.41,4.93,4.93,0,0,1,.78-.29,3.35,3.35,0,0,1,1.34-.06,4.81,4.81,0,0,1,1.36.4,6.44,6.44,0,0,1,1.28.76,6.91,6.91,0,0,1,1.09,1,5.52,5.52,0,0,1,.85,1.22,4.18,4.18,0,0,1,.39,1.18,4.05,4.05,0,0,1,0,1.1,3.94,3.94,0,0,1-.31,1,4.93,4.93,0,0,1-.52.92,8.4,8.4,0,0,1-.65.8,2.32,2.32,0,0,1-.49.41,1.69,1.69,0,0,1-.52.23,3.35,3.35,0,0,1-.79.11,3.74,3.74,0,0,1-.91-.09c.25.44.5.86.75,1.25s.49.74.7,1.05.26.38.4.59l.4.62.36.57.29.46a.21.21,0,0,1,0,.21.46.46,0,0,1-.13.19.91.91,0,0,1-.23.15l-.25.09a1,1,0,0,1-1.13-.35A1.54,1.54,0,0,1,370.47,210.86Zm-1.91-6,.33,0,.34,0h.3l.15,0a1.7,1.7,0,0,0,.35-.14,3.55,3.55,0,0,0,.31-.23,3.44,3.44,0,0,0,.27-.27,2,2,0,0,0,.2-.26,4.84,4.84,0,0,0,.45-.79,2.9,2.9,0,0,0,.26-1,2.76,2.76,0,0,0-.12-1.12,3.36,3.36,0,0,0-.75-1.21,4.16,4.16,0,0,0-.48-.46,2.67,2.67,0,0,0-.53-.32,1.93,1.93,0,0,0-.56-.18,1.5,1.5,0,0,0-.56,0,2.27,2.27,0,0,0-.54.19,1.46,1.46,0,0,0-.41.27,1.64,1.64,0,0,0-.32.37,2.14,2.14,0,0,0-.23.48,1.7,1.7,0,0,1-.24.51,1.25,1.25,0,0,1-.5.39Z"/><path class="cls-1" d="M378,203.6c-.3-.44-.62-.93-1-1.46L376,200.52c-.36-.55-.71-1.09-1.06-1.61s-.67-1-1-1.45l-.15-.15-.13-.15c-.17-.19-.32-.38-.47-.57s-.26-.38-.36-.54a1.25,1.25,0,0,1-.2-.53c0-.1.11-.18.29-.22a1,1,0,0,1,.51,0,1.73,1.73,0,0,1,.49.21,3.09,3.09,0,0,1,.47.36l.43.45.25.29.21.24c0-.22,0-.44.05-.68a2.29,2.29,0,0,1,.15-.65,1.84,1.84,0,0,1,.35-.55,1.39,1.39,0,0,1,.61-.34l.33-.05h.36a2.79,2.79,0,0,1,.49,0,3.24,3.24,0,0,1,.56.11,4.84,4.84,0,0,1,1,.44,3,3,0,0,1,.82.64,1.61,1.61,0,0,1,.21.3,1,1,0,0,1,.11.33.51.51,0,0,1,0,.28.28.28,0,0,1-.2.16,2,2,0,0,1-.45,0,2.35,2.35,0,0,1-.54-.11,1.89,1.89,0,0,1-.27-.12l-.3-.17-.28-.15-.17-.1-.11,0-.11,0a1,1,0,0,0-.66.46,2.18,2.18,0,0,0-.26.78,4.49,4.49,0,0,0,0,.9c0,.31.06.58.09.83.32.52.65,1.07,1,1.66s.72,1.21,1.12,1.85l.2.23c.16.18.32.36.47.55a2.21,2.21,0,0,1,.34.53.37.37,0,0,1-.08.3.53.53,0,0,1-.34.21,1.12,1.12,0,0,1-.79-.1,2.32,2.32,0,0,1-.71-.53A2.52,2.52,0,0,1,378,203.6Z"/><path class="cls-1" d="M378.94,190.89a3.47,3.47,0,0,1-.25-.51.81.81,0,0,1,0-.59,1,1,0,0,1,.22-.24.68.68,0,0,1,.24-.15.42.42,0,0,1,.24,0,1.31,1.31,0,0,1,.28.09,2.63,2.63,0,0,1,.35.15.57.57,0,0,1,.44.09,1.85,1.85,0,0,1,.38.32,3.07,3.07,0,0,1,.2.27l.13.2a.69.69,0,0,1,.1.41.75.75,0,0,1-.1.36,1,1,0,0,1-.26.28.9.9,0,0,1-.32.17.82.82,0,0,1-.38,0,3.48,3.48,0,0,1-.56-.23,1.43,1.43,0,0,1-.3-.19l-.14-.12-.14-.18Zm6,10c-.22-.37-.48-.8-.77-1.3s-.59-1-.92-1.58-.65-1.12-1-1.7-.68-1.15-1-1.69a.84.84,0,0,1,0-.14.5.5,0,0,1,0-.21.53.53,0,0,1,.12-.22.69.69,0,0,1,.31-.16,1.65,1.65,0,0,1,.32,0,1.3,1.3,0,0,1,.34,0,2.19,2.19,0,0,1,.33.12.89.89,0,0,1,.28.23l.05.05,0,.07.61,1c.67,1.15,1.35,2.3,2,3.45s1.36,2.32,2,3.47a1.07,1.07,0,0,1,.07.15,1.33,1.33,0,0,1,.05.19.48.48,0,0,1,0,.18.27.27,0,0,1-.17.11,1.2,1.2,0,0,1-.5,0,2.07,2.07,0,0,1-.52-.16,2.37,2.37,0,0,1-.47-.26,2.83,2.83,0,0,1-.35-.31l-.08-.08a.41.41,0,0,1,0-.09Z"/><path class="cls-1" d="M388.11,197.8a8,8,0,0,1-.63-1.28,6.45,6.45,0,0,1-.38-1.45,6,6,0,0,1,0-1.53,4.88,4.88,0,0,1,.48-1.52,1,1,0,0,1,.25-.28,1.4,1.4,0,0,1,.48-.27c0-.31.21-.52.6-.63a2.85,2.85,0,0,1,1.5,0,7,7,0,0,1,1.67.76l.53.34a5.86,5.86,0,0,1,.5.37,5,5,0,0,1,.5.43c.17.16.35.34.53.54a7.81,7.81,0,0,1,1.08,1.52,7.1,7.1,0,0,1,.66,1.61,6,6,0,0,1,.21,1.62,4.64,4.64,0,0,1-.27,1.5,1.9,1.9,0,0,1-.58.83,3,3,0,0,1-1.14.54,4,4,0,0,1-1.37.13,4.36,4.36,0,0,1-1.32-.3,5.36,5.36,0,0,1-1.23-.69,6.8,6.8,0,0,1-1.13-1A8.55,8.55,0,0,1,388.11,197.8Zm1.6-.27.27.41q.15.19.3.36a4.22,4.22,0,0,0,.58.54,2.77,2.77,0,0,0,.64.38,2.33,2.33,0,0,0,.69.17,1.73,1.73,0,0,0,.71-.06,1.44,1.44,0,0,0,1-.68,2.3,2.3,0,0,0,.27-1.15,4.62,4.62,0,0,0-.24-1.33,6.53,6.53,0,0,0-.56-1.22l-.39-.63a3.89,3.89,0,0,0-.41-.53,2.67,2.67,0,0,0-.47-.42l-.63-.4-.45-.28a4.78,4.78,0,0,1-.44-.29.92.92,0,0,1,0,.26.33.33,0,0,1-.08.24,1.6,1.6,0,0,1-.32.26,4.77,4.77,0,0,1-.63.3,1.14,1.14,0,0,0-.33.46,2.48,2.48,0,0,0-.16.65,4.65,4.65,0,0,0,0,.75,5.39,5.39,0,0,0,.12.79,6.08,6.08,0,0,0,.22.76A3.68,3.68,0,0,0,389.71,197.53Z"/><path class="cls-1" d="M400.2,197.74c-.31-.44-.63-.93-1-1.46s-.71-1.07-1.06-1.62l-1.06-1.61c-.34-.53-.67-1-1-1.44l-.15-.16-.13-.15a6.47,6.47,0,0,1-.47-.57,6.32,6.32,0,0,1-.36-.54,1.23,1.23,0,0,1-.2-.52c0-.1.11-.18.29-.23a1.1,1.1,0,0,1,.51,0,1.73,1.73,0,0,1,.49.21,3.09,3.09,0,0,1,.47.36,6.14,6.14,0,0,1,.43.45l.25.28a2.08,2.08,0,0,0,.21.25c0-.22,0-.45,0-.68a2.45,2.45,0,0,1,.16-.66,1.7,1.7,0,0,1,.34-.54,1.3,1.3,0,0,1,.61-.34,1.63,1.63,0,0,1,.33-.05h.36l.49,0a2.51,2.51,0,0,1,.56.11,4.79,4.79,0,0,1,1,.43,3.25,3.25,0,0,1,.82.64,1.13,1.13,0,0,1,.21.31.86.86,0,0,1,.11.33.48.48,0,0,1,0,.27.26.26,0,0,1-.2.16,1.24,1.24,0,0,1-.45,0,1.91,1.91,0,0,1-.54-.1l-.27-.12-.3-.17-.28-.16-.17-.09h-.11l-.11,0a1,1,0,0,0-.66.46,2.18,2.18,0,0,0-.26.78,4.49,4.49,0,0,0,0,.9c0,.3.06.58.09.82.32.52.65,1.08,1,1.67s.72,1.21,1.11,1.85l.21.22c.16.18.32.37.47.56a2.18,2.18,0,0,1,.34.52.4.4,0,0,1-.08.31.62.62,0,0,1-.34.21,1.18,1.18,0,0,1-.79-.1,2.35,2.35,0,0,1-.71-.54A1.5,1.5,0,0,1,400.2,197.74Z"/><path class="cls-1" d="M401.15,185a3.31,3.31,0,0,1-.25-.5.83.83,0,0,1,0-.6,1,1,0,0,1,.22-.24.62.62,0,0,1,.24-.14.5.5,0,0,1,.24,0l.28.09.35.16a.61.61,0,0,1,.44.08,2.3,2.3,0,0,1,.38.33,3.07,3.07,0,0,1,.2.27,2.12,2.12,0,0,1,.13.2.68.68,0,0,1,.1.4.79.79,0,0,1-.1.37,1,1,0,0,1-.26.28.88.88,0,0,1-.32.16.83.83,0,0,1-.38,0,2.93,2.93,0,0,1-.56-.24,1.15,1.15,0,0,1-.3-.18l-.14-.13-.14-.18A.86.86,0,0,1,401.15,185Zm6,10-.77-1.31-.92-1.58-1-1.7c-.35-.58-.68-1.14-1-1.69a.49.49,0,0,1,0-.14.37.37,0,0,1,0-.21.43.43,0,0,1,.11-.21.61.61,0,0,1,.31-.16,1.64,1.64,0,0,1,.32,0,2,2,0,0,1,.34,0,1.1,1.1,0,0,1,.33.12,1,1,0,0,1,.28.22l.05.06.05.06.6,1,2,3.45c.67,1.16,1.36,2.31,2.05,3.47a1.07,1.07,0,0,1,.07.15.59.59,0,0,1,.05.19.47.47,0,0,1,0,.17.24.24,0,0,1-.17.11,1,1,0,0,1-.5,0,2.59,2.59,0,0,1-.52-.16,2.4,2.4,0,0,1-.47-.27,1.8,1.8,0,0,1-.35-.31.6.6,0,0,1-.08-.08.22.22,0,0,1-.05-.08Z"/><path class="cls-1" d="M412.1,192.28a12.39,12.39,0,0,1-1.24-1.62c-.38-.57-.73-1.13-1.05-1.66a2.92,2.92,0,0,1-.54.05,3,3,0,0,1-.59-.06,1.75,1.75,0,0,1-.56-.18,1.39,1.39,0,0,1-.46-.33,1,1,0,0,1-.15-.22,1.59,1.59,0,0,1-.12-.27.58.58,0,0,1,0-.26.24.24,0,0,1,.17-.15l1.2-.31c.12,0,.15-.1.1-.22a3,3,0,0,0-.16-.31c-.24-.37-.44-.7-.6-1l-.4-.7-.28-.46a1.87,1.87,0,0,0-.2-.28l-.21-.22-.28-.3-.08-.09-.15-.19a2.36,2.36,0,0,1-.22-.36.85.85,0,0,1-.09-.38c0-.13.1-.21.28-.26a1.1,1.1,0,0,1,.51,0,1.77,1.77,0,0,1,.51.19,3.74,3.74,0,0,1,.49.32,4.22,4.22,0,0,1,.43.41,3.35,3.35,0,0,1,.32.42l1.61,2.7.72-.38.63-.34.57-.35.41-.25.29-.18a1,1,0,0,1,.22-.1l.31-.05a1.19,1.19,0,0,1,.33,0,.92.92,0,0,1,.32.1,1.13,1.13,0,0,1,.31.24,1.2,1.2,0,0,1,.26.41.73.73,0,0,1,0,.35.6.6,0,0,1-.13.28.91.91,0,0,1-.24.2l-.3.18-.4.25-.45.29-.44.29-.54.37c-.16.1-.29.18-.41.24l-.28.14a.69.69,0,0,1-.2.07c.19.38.4.74.61,1.1s.42.68.62,1,.39.57.56.8.32.41.44.54a4.89,4.89,0,0,0,.46.45,2.61,2.61,0,0,0,.49.35,1.75,1.75,0,0,0,.53.18,1.24,1.24,0,0,0,.54,0,1.06,1.06,0,0,0,.7-.51,2.07,2.07,0,0,0,.28-.89,5.64,5.64,0,0,0,0-1.09c0-.39-.09-.75-.13-1.1a.17.17,0,0,1,.13-.23l.14,0,.21,0,.23.09a.74.74,0,0,1,.2.16l.09.11a6,6,0,0,1,.56,1.24c.14.43.27.86.4,1.3a1.47,1.47,0,0,1,.07.46,3.55,3.55,0,0,1-.06.47,3.81,3.81,0,0,1-.13.45c-.06.14-.11.27-.17.39a1.1,1.1,0,0,1-.48.5,3.33,3.33,0,0,1-.7.29,3.15,3.15,0,0,1-1.23.06,4.68,4.68,0,0,1-1.28-.38,6.29,6.29,0,0,1-1.24-.73A7,7,0,0,1,412.1,192.28Z"/><path class="cls-1" d="M415.51,181.25a3.31,3.31,0,0,1-.25-.5.83.83,0,0,1,0-.6,1,1,0,0,1,.22-.24.88.88,0,0,1,.24-.15.53.53,0,0,1,.24,0,1.31,1.31,0,0,1,.28.09,2.17,2.17,0,0,1,.35.15.57.57,0,0,1,.44.09,1.85,1.85,0,0,1,.38.32,3.07,3.07,0,0,1,.2.27,2.06,2.06,0,0,1,.13.21.65.65,0,0,1,.1.4.75.75,0,0,1-.1.36,1,1,0,0,1-.26.29.88.88,0,0,1-.32.16.82.82,0,0,1-.38,0,3.48,3.48,0,0,1-.56-.23,1.43,1.43,0,0,1-.3-.19.79.79,0,0,1-.13-.12l-.15-.18C415.58,181.35,415.54,181.3,415.51,181.25Zm6,10c-.22-.37-.48-.8-.77-1.3l-.92-1.58c-.32-.56-.65-1.12-1-1.7s-.68-1.15-1-1.69a.62.62,0,0,1,0-.14.37.37,0,0,1,0-.21.42.42,0,0,1,.11-.22.69.69,0,0,1,.31-.16,1.65,1.65,0,0,1,.32,0,1.27,1.27,0,0,1,.34,0,2.19,2.19,0,0,1,.33.12,1,1,0,0,1,.28.23.1.1,0,0,1,.05.06l0,.06.61,1,2,3.45c.67,1.16,1.36,2.32,2.06,3.47,0,0,0,.09.06.15a.67.67,0,0,1,0,.19.34.34,0,0,1,0,.18.27.27,0,0,1-.17.11,1.2,1.2,0,0,1-.5,0,2.07,2.07,0,0,1-.52-.16,2.37,2.37,0,0,1-.47-.26,2.83,2.83,0,0,1-.35-.31l-.08-.08a.41.41,0,0,1,0-.09Z"/><path class="cls-1" d="M426.12,190.91a1.19,1.19,0,0,1-.15-.46,2.57,2.57,0,0,1,0-.48,1.56,1.56,0,0,1,.06-.44c0-.13.05-.24.08-.33,0-.35.09-.76.15-1.22s.11-.95.15-1.44.08-1,.09-1.47,0-.91,0-1.29l-.63.19-.73.21-.68.2-.48.14a1.6,1.6,0,0,1-.39,0,1.35,1.35,0,0,1-.43-.08,1.66,1.66,0,0,1-.43-.2,2.07,2.07,0,0,1-.42-.37.83.83,0,0,1-.24-.45.28.28,0,0,1,.14-.32l.33-.05.35-.08a6.8,6.8,0,0,0,1.07-.37l1.06-.46,1-.46a7.42,7.42,0,0,1,1-.33,1,1,0,0,1,.32-.05,1.1,1.1,0,0,1,.31,0,2,2,0,0,1,.33.13l.42.22.17.11.09.1a1.14,1.14,0,0,1,.26.4,1.54,1.54,0,0,1,.06.43.4.4,0,0,0-.16.22c-.05.12-.09.27-.14.44s-.08.36-.12.57l-.09.61c0,.19-.06.38-.08.55s0,.3-.05.4v.11c0,.1,0,.27-.06.5s0,.48-.07.77,0,.59-.06.92,0,.63-.05.93,0,.57-.05.81,0,.44,0,.58a.4.4,0,0,0,.15,0l.15,0a3,3,0,0,0,.58-.23c.2-.11.4-.21.61-.3l2.12-1a1.15,1.15,0,0,1,.25-.25l.35-.25.22-.13.24-.18.15-.15a.45.45,0,0,1,.13-.11.51.51,0,0,1,.18-.08.77.77,0,0,1,.37,0,1,1,0,0,1,.36.13,2.6,2.6,0,0,1,.36.25c.13.09.26.2.39.31a1.25,1.25,0,0,1,.16.33.74.74,0,0,1,.05.31.49.49,0,0,1-.06.25.3.3,0,0,1-.2.14.54.54,0,0,1-.23,0l-.37.2-.68.37-1,.55-1.5.77-.32.15-.51.21-.51.2-.34.12a3,3,0,0,1-.65.09,3.2,3.2,0,0,1-.75,0,3.28,3.28,0,0,1-.75-.24,1.87,1.87,0,0,1-.62-.45Z"/><path class="cls-1" d="M433.77,185.74a1.36,1.36,0,0,1-.39-.72.51.51,0,0,1,.23-.51,4.27,4.27,0,0,1-.18-.61c-.06-.27-.11-.56-.15-.88a6.34,6.34,0,0,1,0-1,3,3,0,0,1,.21-1,2.24,2.24,0,0,1,.53-.8,2.1,2.1,0,0,1,1-.52,3.62,3.62,0,0,1,1-.11,3.34,3.34,0,0,1,.95.19,3.46,3.46,0,0,1,.86.43,4.47,4.47,0,0,1,.73.64,4.52,4.52,0,0,1,.45.61,2,2,0,0,1,.32,1,1.87,1.87,0,0,1-.21.88,2.37,2.37,0,0,1-.58.74,6,6,0,0,1-.8.6,7.41,7.41,0,0,1-.87.47l-.78.34a2.09,2.09,0,0,0,.23.44,3.08,3.08,0,0,0,.37.5,2.33,2.33,0,0,0,1.14.71,2.77,2.77,0,0,0,1.4,0,2.72,2.72,0,0,0,.73-.31,2.45,2.45,0,0,0,.51-.44,3.31,3.31,0,0,0,.36-.5,3.15,3.15,0,0,0,.24-.49,3.71,3.71,0,0,1,.29-.53.67.67,0,0,1,.38-.28.51.51,0,0,1,.39,0,1.08,1.08,0,0,1,.28.23l.12.14.09.11a1.87,1.87,0,0,1,.24.52,1,1,0,0,1,0,.5,2.92,2.92,0,0,1-1,1.56,4.77,4.77,0,0,1-1.81.87c-.14,0-.32.07-.53.11a5,5,0,0,1-1.54,0,4.16,4.16,0,0,1-.9-.27,4.72,4.72,0,0,1-1-.52,5.68,5.68,0,0,1-.95-.86,7.13,7.13,0,0,1-.73-1,.72.72,0,0,1-.33-.06A.93.93,0,0,1,433.77,185.74Zm3.38-4-.06-.09-.07-.08a1.08,1.08,0,0,0-.51-.32,1.1,1.1,0,0,0-.54,0,1,1,0,0,0-.59.42,1.76,1.76,0,0,0-.25.71,2.82,2.82,0,0,0,0,.82,4.19,4.19,0,0,0,.17.75,5.84,5.84,0,0,0,1-.48,2.36,2.36,0,0,0,.66-.56,1.2,1.2,0,0,0,.28-.58A.93.93,0,0,0,437.15,181.75Z"/><path class="cls-1" d="M359.86,237.47,359,236l-.77-1.21-.71-1.1-.7-1.07c-.24-.35-.48-.73-.73-1.11l-.83-1.27-1.45-2.21c-.25-.38-.47-.7-.67-1s-.4-.5-.6-.72-.38-.43-.53-.62a1.79,1.79,0,0,1-.3-.47.44.44,0,0,1,0-.35.55.55,0,0,1,.35-.21,1.87,1.87,0,0,1,.73-.05,1.94,1.94,0,0,1,.6.21,2.28,2.28,0,0,1,.5.38c.16.15.31.31.46.48a2,2,0,0,1,.37-.58,3.62,3.62,0,0,1,.59-.5,4.72,4.72,0,0,1,.73-.41,4.2,4.2,0,0,1,.79-.29,3.34,3.34,0,0,1,1.34-.07,5.28,5.28,0,0,1,1.36.4,6.89,6.89,0,0,1,1.27.76,8,8,0,0,1,1.09,1,5.52,5.52,0,0,1,.86,1.23,4,4,0,0,1,.38,1.17,3.38,3.38,0,0,1,0,1.1,3.53,3.53,0,0,1-.3,1,5.48,5.48,0,0,1-.52.91,7.59,7.59,0,0,1-.66.8,2.33,2.33,0,0,1-.48.42,2.13,2.13,0,0,1-.52.23,3.35,3.35,0,0,1-.79.11,4.36,4.36,0,0,1-.91-.1q.36.66.75,1.26c.25.39.48.74.7,1l.4.6.39.62.36.57.3.46a.23.23,0,0,1,0,.21.49.49,0,0,1-.14.19.76.76,0,0,1-.23.15,1.17,1.17,0,0,1-.24.09,1,1,0,0,1-1.13-.35A1.44,1.44,0,0,1,359.86,237.47Zm-1.91-6,.32,0,.35,0,.29,0h.16a1.26,1.26,0,0,0,.34-.15,2.27,2.27,0,0,0,.32-.22l.27-.27c.08-.09.14-.18.2-.26a6.36,6.36,0,0,0,.44-.79,3,3,0,0,0,.27-1,2.72,2.72,0,0,0-.13-1.11,3.32,3.32,0,0,0-.74-1.21,4.16,4.16,0,0,0-.48-.46,3.83,3.83,0,0,0-.53-.33,2.26,2.26,0,0,0-.56-.17,1.37,1.37,0,0,0-.57,0,4,4,0,0,0-.53.19,1.81,1.81,0,0,0-.42.28,1.55,1.55,0,0,0-.31.36,2.69,2.69,0,0,0-.24.48,1.43,1.43,0,0,1-.23.52,1.18,1.18,0,0,1-.51.38Z"/><path class="cls-1" d="M362.38,222.73a.84.84,0,0,1-.11-.28.51.51,0,0,1,0-.21.23.23,0,0,1,.06-.12.19.19,0,0,1,.07-.06,1.56,1.56,0,0,1,.26,0l.29,0,.33,0a.7.7,0,0,1,.51.1,2.06,2.06,0,0,1,.49.41,2.16,2.16,0,0,1,.28.38c.47.81.87,1.51,1.2,2.11s.61,1.12.85,1.54.43.77.59,1a4.18,4.18,0,0,0,.4.59c.12.12.26.26.43.41a6.25,6.25,0,0,0,.54.4,2.6,2.6,0,0,0,.56.27.81.81,0,0,0,1-.4,2,2,0,0,0,.22-.77,3.33,3.33,0,0,0,0-.89,6.76,6.76,0,0,0-.15-.8l-.13-.47a6.26,6.26,0,0,0-.38-1c-.17-.36-.36-.72-.56-1.07s-.41-.69-.6-1l-.48-.74-.84-1.27a.86.86,0,0,1-.21-.53c0-.11.15-.2.39-.26a1.67,1.67,0,0,1,.44-.06,1.37,1.37,0,0,1,.47.1,2,2,0,0,1,.49.29,3.78,3.78,0,0,1,.55.53,8,8,0,0,1,.73,1c.26.4.51.8.75,1.21l.47.75c.17.27.34.53.52.79s.36.51.54.74a7.31,7.31,0,0,0,.5.63c.28.3.56.61.86.91s.6.62.9,1q.21.23.36.42a1.38,1.38,0,0,1,.2.28,1.27,1.27,0,0,1,.22.59c0,.14-.13.25-.38.31a1.15,1.15,0,0,1-.47.05,1.18,1.18,0,0,1-.38-.09,1.61,1.61,0,0,1-.31-.19l-.26-.24L372,227.32l-.05.05c0,.31.07.65.11,1a4.35,4.35,0,0,1,0,1.08,2.17,2.17,0,0,1-.3.93,1.33,1.33,0,0,1-.84.56,1.19,1.19,0,0,1-.35,0c-.16,0-.33,0-.52,0s-.37-.06-.56-.1l-.48-.14a6.81,6.81,0,0,1-1.63-.85,8.66,8.66,0,0,1-1.26-1.12c-.19-.23-.38-.46-.54-.69s-.32-.46-.45-.68-.26-.43-.37-.63l-.3-.53c-.3-.48-.55-.9-.77-1.27l-.57-1-.42-.71Z"/><path class="cls-1" d="M376.07,225.4q-.48-.78-1-1.71c-.36-.61-.72-1.24-1.09-1.89l-1.1-1.91c-.37-.64-.71-1.23-1.05-1.79s-.63-1.07-.91-1.52-.52-.8-.71-1.07l-.56-.76-.1-.2a.6.6,0,0,1-.08-.21.41.41,0,0,1,0-.19.28.28,0,0,1,.2-.13,1.14,1.14,0,0,1,.55,0,1.72,1.72,0,0,1,.54.18,2.38,2.38,0,0,1,.5.35,3.73,3.73,0,0,1,.45.44,4.54,4.54,0,0,1,.39.48l.3.45c.55.88,1.07,1.77,1.56,2.68s1,1.81,1.59,2.72a3.93,3.93,0,0,1,.18-.84,3,3,0,0,1,.37-.76,2.58,2.58,0,0,1,.59-.6,2.17,2.17,0,0,1,.81-.38,2.74,2.74,0,0,1,1-.09,3.9,3.9,0,0,1,.95.24,4.24,4.24,0,0,1,.87.5,5.82,5.82,0,0,1,.78.71l.33.4a4.29,4.29,0,0,1,.28.41,7.5,7.5,0,0,1,.85,1.86,5.1,5.1,0,0,1,.21,1.58,3.89,3.89,0,0,1-.25,1.34,6,6,0,0,1-.56,1.14,2.73,2.73,0,0,1-.5.56,1.69,1.69,0,0,1-.66.32,1.93,1.93,0,0,1-.63.08,2.55,2.55,0,0,1-.56-.14.79.79,0,0,1,.06.22.55.55,0,0,1,0,.22.38.38,0,0,1-.1.2.55.55,0,0,1-.25.14,1.46,1.46,0,0,1-.95-.07,2.61,2.61,0,0,1-.84-.64l-.26-.31c-.07-.11-.15-.22-.21-.33Zm2.41-5.19a1.47,1.47,0,0,0-.72.46,3.51,3.51,0,0,0-.52.81,5.89,5.89,0,0,0-.36.94l-.24.87.43.77c.13.25.27.5.41.75s.3.52.46.78.35.54.55.82l.27.37.2.15a.9.9,0,0,1,.2-.26,1.84,1.84,0,0,1,.22-.17l.23-.17a2.32,2.32,0,0,0,.25-.22,3.41,3.41,0,0,0,1-2.15,4.54,4.54,0,0,0-.8-2.7c-.09-.15-.17-.27-.25-.38a2.09,2.09,0,0,0-.22-.28,1.15,1.15,0,0,0-.51-.37A1,1,0,0,0,378.48,220.21Z"/><path class="cls-1" d="M379.69,212.79a5,5,0,0,1-.46-.71,1.4,1.4,0,0,1-.19-.58.28.28,0,0,1,.24-.31,1,1,0,0,1,.37,0,2,2,0,0,1,.47.06,2,2,0,0,1,.47.16,1,1,0,0,1,.37.27,1.09,1.09,0,0,1,.13.17l.12.2,5.86,9.65c.24.39.47.75.7,1.1l.59.84.2.22c.16.18.32.38.49.6a3.84,3.84,0,0,1,.4.63,1.09,1.09,0,0,1,.14.54c0,.15-.1.25-.29.3a1.09,1.09,0,0,1-.51,0,2.32,2.32,0,0,1-.54-.19,3.88,3.88,0,0,1-.48-.3,3.17,3.17,0,0,1-.37-.34l-.29-.36-.33-.46-.32-.49-.28-.42-6-9.87C380.05,213.27,379.87,213,379.69,212.79Z"/><path class="cls-1" d="M385.15,213.06a3.26,3.26,0,0,1-.26-.5.83.83,0,0,1,0-.6,1,1,0,0,1,.22-.24.86.86,0,0,1,.23-.15.53.53,0,0,1,.24,0,1.23,1.23,0,0,1,.29.09c.12,0,.23.1.35.15a.67.67,0,0,1,.44.09,1.6,1.6,0,0,1,.37.33,1.5,1.5,0,0,1,.21.26,1.6,1.6,0,0,0,.13.21.74.74,0,0,1,.1.4.76.76,0,0,1-.11.36,1,1,0,0,1-.25.29,1,1,0,0,1-.32.16.74.74,0,0,1-.39,0,3,3,0,0,1-.55-.23,1.49,1.49,0,0,1-.31-.18l-.13-.13-.14-.18A1.4,1.4,0,0,1,385.15,213.06Zm6,10-.77-1.31c-.29-.5-.6-1-.92-1.58l-1-1.7c-.34-.58-.68-1.15-1-1.69a.53.53,0,0,1-.05-.14.74.74,0,0,1,0-.21.49.49,0,0,1,.42-.37,1.2,1.2,0,0,1,.33,0,1.31,1.31,0,0,1,.34,0,1.1,1.1,0,0,1,.33.12.85.85,0,0,1,.28.22l.05.06.05.06.6,1c.68,1.15,1.36,2.3,2,3.46l2.06,3.47.07.15a1.21,1.21,0,0,1,.05.18.34.34,0,0,1,0,.18.22.22,0,0,1-.16.11,1.19,1.19,0,0,1-.5,0,3.13,3.13,0,0,1-.52-.16,3,3,0,0,1-.47-.27,1.92,1.92,0,0,1-.36-.31l-.07-.08a.19.19,0,0,1-.05-.09Z"/><path class="cls-1" d="M394.19,219.92a11.77,11.77,0,0,1-.79-1.59,9.44,9.44,0,0,1-.51-1.68,6.27,6.27,0,0,1-.09-1.6,2.88,2.88,0,0,1,.45-1.33,1.08,1.08,0,0,1,.34-.33,2,2,0,0,1,.51-.21,3.11,3.11,0,0,1,.6-.09,1.71,1.71,0,0,1,.6.07,2.29,2.29,0,0,1,.59.24,2.54,2.54,0,0,1,.54.46,2.79,2.79,0,0,1,.33.46,1.33,1.33,0,0,1,.17.45.53.53,0,0,1-.06.36.55.55,0,0,1-.34.23,1.22,1.22,0,0,1-.43,0,3.85,3.85,0,0,1-.47-.08l-.23-.05a1,1,0,0,0-.24,0,1.42,1.42,0,0,0-.3.6,3.08,3.08,0,0,0-.06.75,4.16,4.16,0,0,0,.12.83,8.29,8.29,0,0,0,.25.85,7.27,7.27,0,0,0,.34.81c.12.26.25.5.37.71s.2.33.33.53a5.58,5.58,0,0,0,.44.55,3.43,3.43,0,0,0,.33.33,2.09,2.09,0,0,0,.37.26,1.37,1.37,0,0,0,.4.14.9.9,0,0,0,.4,0,2,2,0,0,0,.55-.25,2.48,2.48,0,0,0,.42-.36,2.77,2.77,0,0,0,.31-.45,4.52,4.52,0,0,0,.25-.49,2.92,2.92,0,0,0,.14-.31,2.64,2.64,0,0,1,.14-.29,1.53,1.53,0,0,1,.15-.23.36.36,0,0,1,.18-.12.8.8,0,0,1,.31,0,.74.74,0,0,1,.32.2,1.12,1.12,0,0,1,.18.28,2.3,2.3,0,0,1,.23.72,1.85,1.85,0,0,1,0,.63,1.6,1.6,0,0,1-.21.54,5.66,5.66,0,0,1-.31.48,2.85,2.85,0,0,1-.73.74,2.57,2.57,0,0,1-.82.4,1.34,1.34,0,0,1-.32.05,1.52,1.52,0,0,1-.37,0,4.86,4.86,0,0,1-1.82-.57,5.66,5.66,0,0,1-1.47-1.18,6.21,6.21,0,0,1-.54-.68A8.38,8.38,0,0,1,394.19,219.92Z"/><path class="cls-1" d="M407.66,216.42a1.28,1.28,0,0,1-.38-.71.5.5,0,0,1,.22-.51c-.05-.15-.11-.35-.18-.61a7.06,7.06,0,0,1-.14-.88,5.31,5.31,0,0,1,0-1,3.35,3.35,0,0,1,.2-1,2.27,2.27,0,0,1,.54-.8,2.06,2.06,0,0,1,1-.52,3.29,3.29,0,0,1,1-.11,3.34,3.34,0,0,1,1,.19,3.64,3.64,0,0,1,.86.43,4,4,0,0,1,.72.64,3.28,3.28,0,0,1,.45.61,2,2,0,0,1,.33,1,1.9,1.9,0,0,1-.21.88,2.53,2.53,0,0,1-.58.74,7,7,0,0,1-1.68,1.07c-.29.13-.55.25-.78.33a2.4,2.4,0,0,0,.23.45,3.14,3.14,0,0,0,.38.5,2.28,2.28,0,0,0,1.14.71,2.77,2.77,0,0,0,1.4,0,2.65,2.65,0,0,0,.72-.31,2.45,2.45,0,0,0,.51-.44,2.33,2.33,0,0,0,.36-.5,4.55,4.55,0,0,0,.25-.49,2.93,2.93,0,0,1,.29-.53.67.67,0,0,1,.38-.29.56.56,0,0,1,.39,0,1.27,1.27,0,0,1,.28.23l.12.14.08.11a2.26,2.26,0,0,1,.25.52,1.07,1.07,0,0,1,0,.5,3,3,0,0,1-1,1.56,4.82,4.82,0,0,1-1.82.87c-.14,0-.32.07-.53.11a4.9,4.9,0,0,1-.7.05,6.2,6.2,0,0,1-.83-.07,4.08,4.08,0,0,1-.91-.27,5.21,5.21,0,0,1-.94-.52,5.32,5.32,0,0,1-.95-.86,7.16,7.16,0,0,1-.74-1,.77.77,0,0,1-.33-.06A.93.93,0,0,1,407.66,216.42Zm3.38-4a.41.41,0,0,0-.05-.09.6.6,0,0,1-.08-.08,1,1,0,0,0-.5-.32,1.1,1.1,0,0,0-.54,0,1,1,0,0,0-.6.42,1.76,1.76,0,0,0-.25.71,2.82,2.82,0,0,0,0,.82,3.44,3.44,0,0,0,.18.75,5.41,5.41,0,0,0,1-.48,2.58,2.58,0,0,0,.67-.56,1.26,1.26,0,0,0,.27-.59A.85.85,0,0,0,411,212.44Z"/><path class="cls-1" d="M417.12,214.41a9.81,9.81,0,0,1-.56-1.06,7.47,7.47,0,0,1-.39-1.09,5.29,5.29,0,0,1-.15-1.12,3.84,3.84,0,0,1,.14-1.11,4.78,4.78,0,0,1,.27-.75,3.18,3.18,0,0,1,.41-.66,2.75,2.75,0,0,1,.56-.52,2.31,2.31,0,0,1,.73-.33,2.26,2.26,0,0,1,.57-.09,3.58,3.58,0,0,1,.56,0l-1.05-1.82q-.84-1.49-2.49-4.11a.87.87,0,0,1-.08-.48.32.32,0,0,1,.28-.27,2.32,2.32,0,0,1,.38-.06,1.25,1.25,0,0,1,.42,0,1.78,1.78,0,0,1,.45.2,2.38,2.38,0,0,1,.46.41l4.69,7.73c.13.22.33.51.59.87s.55.74.85,1.13.61.79.92,1.17.59.71.84,1a8.06,8.06,0,0,1,.78,1,4,4,0,0,1,.21.39.71.71,0,0,1,.07.29.3.3,0,0,1-.13.2,1.12,1.12,0,0,1-.34.14,1.24,1.24,0,0,1-.45,0,1,1,0,0,1-.35-.09,1.38,1.38,0,0,1-.28-.19l-.25-.26-.28-.29a2.91,2.91,0,0,0-.33-.26c0,.07-.07.16-.13.27s-.11.22-.16.34-.11.22-.16.32a1.52,1.52,0,0,1-.12.21c-.07.12-.15.24-.25.38a3,3,0,0,1-.34.39,2.78,2.78,0,0,1-.46.35,2.7,2.7,0,0,1-.6.25,2.93,2.93,0,0,1-.91.07,3.94,3.94,0,0,1-1.05-.24,4.93,4.93,0,0,1-1.11-.58,6.42,6.42,0,0,1-1.09-1c-.12-.14-.24-.28-.34-.42A5,5,0,0,1,417.12,214.41Zm1.49-.48a4.19,4.19,0,0,0,.4.54,4.41,4.41,0,0,0,.49.48,2.21,2.21,0,0,0,.52.36,1.82,1.82,0,0,0,.57.19,1.45,1.45,0,0,0,.62,0,.87.87,0,0,0,.33-.17,1.66,1.66,0,0,0,.27-.26,2.61,2.61,0,0,0,.2-.3c.05-.1.1-.19.13-.27s.17-.41.24-.61a2,2,0,0,0,.1-.6,2.09,2.09,0,0,0-.09-.68,3.57,3.57,0,0,0-.36-.79l-.44-.7c-.13-.21-.26-.42-.4-.62s-.27-.4-.42-.61l-.5-.68-.22-.07a.5.5,0,0,0-.27,0,1.87,1.87,0,0,0-.68.33,2.66,2.66,0,0,0-.58.58,2.78,2.78,0,0,0-.39.79,3.14,3.14,0,0,0-.16.94,3.62,3.62,0,0,0,.14,1.05A4.39,4.39,0,0,0,418.61,213.93Z"/><path class="cls-1" d="M424.4,206.38a1,1,0,0,1-.12-.27.52.52,0,0,1,0-.21.53.53,0,0,1,.06-.13.18.18,0,0,1,.08-.05,1.31,1.31,0,0,1,.25,0l.3,0,.32,0a.7.7,0,0,1,.51.11,1.83,1.83,0,0,1,.49.4,1.9,1.9,0,0,1,.28.39c.47.8.87,1.51,1.2,2.11s.62,1.11.85,1.54l.59,1a4.82,4.82,0,0,0,.41.58,4.35,4.35,0,0,0,.43.41,4.19,4.19,0,0,0,.54.4,2.53,2.53,0,0,0,.55.27.78.78,0,0,0,.49,0,.82.82,0,0,0,.56-.43,2.3,2.3,0,0,0,.22-.77,3.33,3.33,0,0,0,0-.89c0-.31-.09-.58-.14-.81l-.13-.46a6,6,0,0,0-.39-1c-.17-.36-.35-.72-.56-1.08s-.4-.69-.6-1-.35-.55-.47-.74l-.85-1.26a.91.91,0,0,1-.2-.53c0-.12.15-.2.38-.26a1.74,1.74,0,0,1,.45-.06,1.29,1.29,0,0,1,.46.09,2.1,2.1,0,0,1,.49.29,4.41,4.41,0,0,1,.56.53,8.51,8.51,0,0,1,.73,1q.39.6.75,1.2l.47.76c.17.26.34.53.52.79l.53.74a6.76,6.76,0,0,0,.51.62c.27.31.56.61.85.92s.6.62.91,1l.36.42c.1.13.16.22.2.28a1.26,1.26,0,0,1,.21.6c0,.14-.13.24-.38.31a1.57,1.57,0,0,1-.46.05.93.93,0,0,1-.38-.1,1.08,1.08,0,0,1-.31-.19,3.08,3.08,0,0,1-.26-.24L434,211l-.06.05q0,.45.12,1a4.89,4.89,0,0,1,0,1.08,2.19,2.19,0,0,1-.31.92,1.3,1.3,0,0,1-.84.56,1.06,1.06,0,0,1-.35,0l-.51,0a5,5,0,0,1-.56-.11c-.19,0-.35-.09-.48-.13a6.65,6.65,0,0,1-1.63-.86,8.11,8.11,0,0,1-1.26-1.12,8.61,8.61,0,0,1-.55-.68l-.45-.68c-.14-.22-.26-.43-.37-.63l-.3-.53-.76-1.28q-.33-.54-.57-1l-.42-.71Z"/><path class="cls-1" d="M437.1,208.61a9.85,9.85,0,0,1-.8-1.59,8.43,8.43,0,0,1-.5-1.68,5.48,5.48,0,0,1-.09-1.6,2.8,2.8,0,0,1,.44-1.33,1.16,1.16,0,0,1,.34-.32,2,2,0,0,1,.51-.22,3.1,3.1,0,0,1,.61-.09,2.05,2.05,0,0,1,.6.07,2.25,2.25,0,0,1,1.12.71,2.36,2.36,0,0,1,.33.45,1.33,1.33,0,0,1,.17.45.57.57,0,0,1-.06.37.51.51,0,0,1-.34.22,1,1,0,0,1-.43,0,3.65,3.65,0,0,1-.46-.07l-.24-.06-.24,0a1.39,1.39,0,0,0-.29.61,2.59,2.59,0,0,0-.07.75,4.06,4.06,0,0,0,.12.82c.07.29.16.58.25.85a7.27,7.27,0,0,0,.34.81c.13.27.25.5.38.72a6.05,6.05,0,0,0,.33.52,5.46,5.46,0,0,0,.43.55c.11.12.22.23.34.34a1.85,1.85,0,0,0,.37.25,1.25,1.25,0,0,0,.39.15.9.9,0,0,0,.4,0,1.83,1.83,0,0,0,.55-.24,2.53,2.53,0,0,0,.42-.37,2.83,2.83,0,0,0,.32-.45q.14-.24.24-.48c.05-.11.1-.21.14-.32a2.64,2.64,0,0,1,.14-.29,2.3,2.3,0,0,1,.15-.23.36.36,0,0,1,.18-.12.66.66,0,0,1,.31,0,.53.53,0,0,1,.32.2,1.06,1.06,0,0,1,.18.27,2,2,0,0,1,.23.73,2.1,2.1,0,0,1,0,.62,2,2,0,0,1-.22.55c-.1.16-.2.32-.31.47a2.57,2.57,0,0,1-.73.74,2.73,2.73,0,0,1-.82.41l-.32.05a1.51,1.51,0,0,1-.37,0,4.92,4.92,0,0,1-1.82-.57,5.46,5.46,0,0,1-1.47-1.18c-.18-.21-.37-.43-.54-.67A8.49,8.49,0,0,1,437.1,208.61Z"/><path class="cls-1" d="M452.06,208.55c-.15-.17-.32-.39-.5-.64a8.47,8.47,0,0,0-.75-.93c-.06.2-.13.43-.19.69a5.28,5.28,0,0,1-.24.77,2.33,2.33,0,0,1-.36.66,1,1,0,0,1-.54.37,1.63,1.63,0,0,1-.59.05,2.51,2.51,0,0,1-.61-.1,6.77,6.77,0,0,1-1.36-.58,4.43,4.43,0,0,1-1-.83c-.13-.15-.26-.31-.38-.48s-.24-.37-.38-.6a8.51,8.51,0,0,1-1.19-3,4.68,4.68,0,0,1,.2-2.62,1.33,1.33,0,0,1,.57-.68,3.29,3.29,0,0,1,.86-.34,4,4,0,0,1,.48-.1l.51-.06.28-.16.26-.09a1.55,1.55,0,0,1,.52,0,1.49,1.49,0,0,1,.46.12,1.91,1.91,0,0,1,.41.24,2.5,2.5,0,0,1,.34.31,2.24,2.24,0,0,1,.33.47l.24.47,3.08,5.07.58.73a6,6,0,0,1,.43.64l.12.22a.92.92,0,0,1,.08.27.44.44,0,0,1-.06.25.4.4,0,0,1-.27.18,4,4,0,0,1-.48.08,1.25,1.25,0,0,1-.35,0,.71.71,0,0,1-.26-.13A1.56,1.56,0,0,1,452.06,208.55Zm-5.42-1.94c.05.09.13.22.24.38s.25.33.38.48a3,3,0,0,0,.47.42.54.54,0,0,0,.49.11.9.9,0,0,0,.55-.35,1.68,1.68,0,0,0,.26-.56,6.1,6.1,0,0,0,.15-.92,5.89,5.89,0,0,0,0-1,5.47,5.47,0,0,0-.17-1,3.89,3.89,0,0,0-.41-1c-.11-.18-.25-.4-.42-.63a7.31,7.31,0,0,0-.5-.63,1.43,1.43,0,0,0-.26-.22.44.44,0,0,0-.31-.06,1.55,1.55,0,0,0-.73.41,2,2,0,0,0-.44.68,2.57,2.57,0,0,0-.18.89,5.1,5.1,0,0,0,.07,1,6.7,6.7,0,0,0,.3,1.06A6.89,6.89,0,0,0,446.64,206.61Z"/><path class="cls-1" d="M455.73,204.59a13.33,13.33,0,0,1-1.24-1.62c-.37-.58-.72-1.13-1-1.66a3,3,0,0,1-1.14,0,1.84,1.84,0,0,1-.56-.18,1.39,1.39,0,0,1-.46-.33l-.15-.22a1,1,0,0,1-.11-.27.48.48,0,0,1,0-.26.26.26,0,0,1,.17-.15l1.2-.32c.12,0,.15-.09.1-.21a2.39,2.39,0,0,0-.16-.32c-.24-.36-.43-.69-.59-1l-.41-.7c-.11-.19-.2-.34-.28-.46a1.87,1.87,0,0,0-.2-.28l-.21-.22-.27-.3-.08-.09-.16-.19a3.6,3.6,0,0,1-.22-.36.85.85,0,0,1-.09-.38c0-.13.1-.21.29-.26a.94.94,0,0,1,.5,0,1.77,1.77,0,0,1,.51.19,3.74,3.74,0,0,1,.49.32,3.38,3.38,0,0,1,.43.41,3.11,3.11,0,0,1,.32.41l1.61,2.71.73-.38.62-.35c.23-.12.42-.24.58-.34l.4-.26.29-.17a1,1,0,0,1,.22-.1l.32-.05h.32a1.42,1.42,0,0,1,.33.11.93.93,0,0,1,.3.24,1.2,1.2,0,0,1,.26.41.73.73,0,0,1,0,.35.6.6,0,0,1-.13.28.91.91,0,0,1-.24.2l-.3.18-.39.25-.45.28-.45.3-.54.37-.4.24-.29.14a.69.69,0,0,1-.2.07c.2.38.4.74.61,1.1s.42.68.62,1,.39.57.56.8.32.41.44.54a4.89,4.89,0,0,0,.46.45,2.67,2.67,0,0,0,.5.35,1.61,1.61,0,0,0,.52.18,1.29,1.29,0,0,0,.55,0,1,1,0,0,0,.69-.51,2.23,2.23,0,0,0,.29-.89,6.61,6.61,0,0,0,0-1.09c0-.39-.08-.75-.13-1.1a.17.17,0,0,1,.13-.23l.15,0,.2,0a1.09,1.09,0,0,1,.23.09.74.74,0,0,1,.2.16l.09.11a6,6,0,0,1,.56,1.24c.14.43.27.86.4,1.3a1.43,1.43,0,0,1,.07.46,2.42,2.42,0,0,1-.06.47,2.54,2.54,0,0,1-.13.45,3.52,3.52,0,0,1-.17.39,1.08,1.08,0,0,1-.47.5,2.92,2.92,0,0,1-.71.28,3,3,0,0,1-1.23.07,5.06,5.06,0,0,1-1.28-.38,6.29,6.29,0,0,1-1.24-.73A7.49,7.49,0,0,1,455.73,204.59Z"/><path class="cls-1" d="M459.14,193.56a3.87,3.87,0,0,1-.25-.5.83.83,0,0,1,0-.6.9.9,0,0,1,.21-.24.88.88,0,0,1,.24-.15.53.53,0,0,1,.24,0,1.4,1.4,0,0,1,.29.09l.35.15a.54.54,0,0,1,.43.09,1.85,1.85,0,0,1,.38.32l.21.27.12.2a.79.79,0,0,1,.11.41.89.89,0,0,1-.37.65,1.07,1.07,0,0,1-.32.16.82.82,0,0,1-.38,0,3.9,3.9,0,0,1-.56-.23,1.43,1.43,0,0,1-.3-.19.79.79,0,0,1-.13-.12l-.15-.18C459.21,193.66,459.17,193.61,459.14,193.56Zm6,10-.77-1.3c-.28-.5-.59-1-.91-1.58l-1-1.7c-.34-.58-.68-1.15-1-1.69a.62.62,0,0,1,0-.14.47.47,0,0,1,.12-.43.6.6,0,0,1,.3-.16,1.65,1.65,0,0,1,.32,0,1.27,1.27,0,0,1,.34,0,1.61,1.61,0,0,1,.33.12,1.28,1.28,0,0,1,.29.23l.05,0,0,.07.61,1,2,3.45c.68,1.16,1.36,2.32,2.06,3.47l.06.15a.67.67,0,0,1,0,.19.27.27,0,0,1,0,.18.24.24,0,0,1-.17.11,1.19,1.19,0,0,1-.5,0,2.07,2.07,0,0,1-.52-.16,2.68,2.68,0,0,1-.47-.26,2.83,2.83,0,0,1-.35-.31l-.07-.08a.47.47,0,0,1-.06-.09Z"/><path class="cls-1" d="M468.32,200.47a9,9,0,0,1-.64-1.28,6.87,6.87,0,0,1-.38-1.45,5.6,5.6,0,0,1,0-1.53,4.61,4.61,0,0,1,.47-1.52,1,1,0,0,1,.26-.28,1.42,1.42,0,0,1,.47-.27q0-.46.6-.63a2.85,2.85,0,0,1,1.5.05,6.8,6.8,0,0,1,1.67.76l.53.34a5.86,5.86,0,0,1,.5.37,6.47,6.47,0,0,1,.51.43c.17.16.34.34.53.54a8.77,8.77,0,0,1,1.08,1.52,7.06,7.06,0,0,1,.65,1.61,5.64,5.64,0,0,1,.21,1.62,4.16,4.16,0,0,1-.27,1.5,1.83,1.83,0,0,1-.58.83,2.69,2.69,0,0,1-1.14.54,4,4,0,0,1-1.37.13,4.37,4.37,0,0,1-1.31-.3,5.42,5.42,0,0,1-1.24-.69,7.13,7.13,0,0,1-1.12-1A8.65,8.65,0,0,1,468.32,200.47Zm1.59-.27c.09.14.18.28.28.41a3.51,3.51,0,0,0,.29.36,4.22,4.22,0,0,0,.58.54,3,3,0,0,0,.64.38,2.41,2.41,0,0,0,.69.17,1.73,1.73,0,0,0,.71-.06,1.41,1.41,0,0,0,1-.68,2.2,2.2,0,0,0,.27-1.15,4.62,4.62,0,0,0-.24-1.33,6,6,0,0,0-.56-1.22q-.19-.33-.39-.63a3.86,3.86,0,0,0-.4-.53,2.41,2.41,0,0,0-.48-.42l-.63-.4-.45-.28-.44-.29a1.66,1.66,0,0,1,.05.26.4.4,0,0,1-.09.24,1.35,1.35,0,0,1-.32.26,3.78,3.78,0,0,1-.63.3,1.22,1.22,0,0,0-.32.46,2.14,2.14,0,0,0-.16.65,3.72,3.72,0,0,0,0,.75,5.39,5.39,0,0,0,.12.79,6.1,6.1,0,0,0,.23.76A3.67,3.67,0,0,0,469.91,200.2Z"/><path class="cls-1" d="M480.78,192.29a1.09,1.09,0,0,0-.54.33,2,2,0,0,0-.38.6,4,4,0,0,0-.27.78,7.88,7.88,0,0,0-.19.87c0,.15-.07.29-.1.41a.71.71,0,0,1-.17.31,3.91,3.91,0,0,0,.22.61c.11.26.24.53.39.82s.31.59.48.89.34.58.5.83a3.77,3.77,0,0,0,.26.39c.09.13.19.26.28.4l.31.47c.11.16.22.35.35.55a.65.65,0,0,1,.1.32.37.37,0,0,1-.06.21.44.44,0,0,1-.15.12l-.14.05a1.28,1.28,0,0,1-.7,0,2,2,0,0,1-.79-.58,3.2,3.2,0,0,1-.22-.27,2,2,0,0,1-.23-.32c-.38-.61-.72-1.16-1-1.65s-.55-.95-.77-1.37-.43-.83-.61-1.21l-.54-1.15-.56-1.21-.65-1.38a.28.28,0,0,1,0-.33.75.75,0,0,1,.4-.23,1.38,1.38,0,0,1,.7,0,1.28,1.28,0,0,1,.61.39l.07.1a1.4,1.4,0,0,1,.09.17l.44,1.05c.08-.27.16-.54.26-.81a4,4,0,0,1,.35-.76,2.8,2.8,0,0,1,.52-.61,1.7,1.7,0,0,1,.73-.38,2.89,2.89,0,0,1,1.76.11,4.69,4.69,0,0,1,1.78,1.32,8.31,8.31,0,0,1,.95,1.32c.29.51.59,1.06.88,1.66s.6,1.23.91,1.89.65,1.32,1,2a3.47,3.47,0,0,1,.21.47.7.7,0,0,1,.05.33.37.37,0,0,1-.15.22.77.77,0,0,1-.34.14.88.88,0,0,1-.6,0,1.3,1.3,0,0,1-.51-.38,6.64,6.64,0,0,1-.48-.64c-.17-.26-.33-.55-.5-.86s-.34-.66-.52-1-.34-.74-.5-1.12l-.41-.92c-.14-.31-.28-.6-.43-.89a8.55,8.55,0,0,0-.45-.79,4.42,4.42,0,0,0-.5-.68,2.69,2.69,0,0,0-.56-.46A.83.83,0,0,0,480.78,192.29Z"/><path class="cls-2" d="M364.67,187.44c-4.74,2-9.73,4.18-13.19,8.13s-5,9.25-6,14.28a61.86,61.86,0,0,0-.05,24.4c1.09,4.9,3.31,10.05,7.7,12.86,4.92,3.16,10.06,1.12,15.18-.48,6.85-2.15,14-3,20.84-5.14,7.87-2.48,15.48-5.72,23.19-8.67,15.09-5.79,31-8.33,46.38-13.12,6.79-2.12,13.59-4.25,20.23-6.82,4.44-1.72,14.42-4.49,16.43-9.33.93-2.26.53-5.45.4-7.83-.19-3.47.12-6.9,0-10.39-.57-15.72-20.05-17.81-32.08-19.09-33.9-3.6-68.8,6.31-99,21.2-.69.35.63,4.69,0,5,20.39-10.06,42.38-17.4,64.95-20.47a138.5,138.5,0,0,1,38.42-.18c11,1.59,26.15,4,27.69,17.55l0-4.65c-.09,5.51-.45,10.44,0,16l0-3.16v1.21l0-1.84c-.95,6-11.23,8.81-16.11,10.72-7.08,2.78-14.36,5.05-21.62,7.31-16.34,5.08-33,7.92-49,14.19-8.21,3.22-16.4,6.61-24.95,8.86-6.72,1.76-13.47,3.21-20.19,5-5.44,1.45-10,.91-13.85-3.58s-5.59-11.53-5.51-17.37c.09-6.25,1.87-13.84,5.26-19.15s9.26-8,14.91-10.42c.62-.26-.57-4.76,0-5Z"/><path d="M327.5,85.62l4.23-1,.07.17c-.54.12-.83.32-.86.58a2.43,2.43,0,0,0,.29,1.16l6.06,14a28.41,28.41,0,0,1,1.17,3,4.2,4.2,0,0,1,.17,1.86,2.67,2.67,0,0,1-2.19,2.31,6.16,6.16,0,0,1-2.08.1l-.06-.2a3.21,3.21,0,0,0,.9-.09,2,2,0,0,0,1.65-1.56,7,7,0,0,0-.84-3.8L329.44,87a2.7,2.7,0,0,0-.79-1.22,1.57,1.57,0,0,0-1.08,0Z"/><path d="M344.92,91.4l-4.62,1.06.31,6.78a4.29,4.29,0,0,0,.11.89c.11.24.34.33.68.25l.08.16-2.34.54-.08-.17a1.05,1.05,0,0,0,.69-.42,2.76,2.76,0,0,0,.17-1.41l-.83-16.41.29-.06,11.91,13.28a7.65,7.65,0,0,0,.89,1,1.81,1.81,0,0,0,1.72.65l.08.16-3.68.85-.07-.17c.33-.07.44-.25.32-.53a3.74,3.74,0,0,0-.63-.84.4.4,0,0,1-.14-.13c0-.07-.07-.1-.08-.1Zm-4.67.57,4.26-1L340,85.85Z"/><path d="M360.71,78l3-.7.07.17c-.45.12-.73.3-.82.53a1.87,1.87,0,0,0,.25,1.27l6.49,15L351.13,83.13l5.28,12.2a3.77,3.77,0,0,0,.46.84.87.87,0,0,0,.41.33,2.93,2.93,0,0,0,.89,0l.07.17-3,.7-.07-.17c.54-.12.84-.3.88-.53a3.43,3.43,0,0,0-.43-1.5L350.77,84a7.64,7.64,0,0,0-1.43-2.3,2,2,0,0,0-2.17-.45l-.07-.17,3-.68,17.48,10.45-5-11.65c-.27-.62-.55-1-.82-1.07a1.64,1.64,0,0,0-.91,0Z"/><path d="M387.13,90l-3,.69-1.1-2.54a5.65,5.65,0,0,1-4.27,3.9,5.93,5.93,0,0,1-4.3-.52,6.84,6.84,0,0,1-3-3.5l-4.27-9.88a2.53,2.53,0,0,0-.7-1.09,1.43,1.43,0,0,0-1.05,0l-.08-.17,4.18-1,.07.17a1.31,1.31,0,0,0-.84.43c-.11.19-.06.55.18,1.1l3.92,9.07a7.22,7.22,0,0,0,3,3.76,4.91,4.91,0,0,0,3.42.55,4.69,4.69,0,0,0,3.48-3.45L378,76.39a4.28,4.28,0,0,0-1-1.69,1.18,1.18,0,0,0-.88-.09l-.15,0-.08-.17,4.15-1,.07.17c-.5.14-.78.31-.85.49a1.33,1.33,0,0,0,.17.89l5.81,13.44a6.09,6.09,0,0,0,.52,1,1,1,0,0,0,.48.33,1.56,1.56,0,0,0,.86,0Z"/><path d="M393.92,80.11l-4.62,1.06.31,6.78a3.65,3.65,0,0,0,.11.89c.11.24.33.33.68.25l.08.16-2.34.54-.08-.17a1.05,1.05,0,0,0,.69-.42,2.68,2.68,0,0,0,.16-1.41l-.82-16.41.29-.06L400.29,84.6a7.65,7.65,0,0,0,.89,1,1.81,1.81,0,0,0,1.72.65l.07.16-3.67.85-.07-.17c.33-.07.44-.25.32-.53a4,4,0,0,0-.63-.84.4.4,0,0,1-.14-.13c0-.07-.07-.1-.08-.1Zm-4.67.57,4.25-1L389,74.56Z"/><path d="M396.88,69.82l-.08-.17,4.47-1c1.13-.26,2-.42,2.49-.49a4.92,4.92,0,0,1,1.78.16,4.06,4.06,0,0,1,1.72.93A5,5,0,0,1,408.47,71a4.44,4.44,0,0,1,.31,2.56,4.73,4.73,0,0,1-1.2,2.39l1.88,1.54c.44.39,1.5,1.22,3.2,2.5a14.24,14.24,0,0,0,3.62,2.21,3.84,3.84,0,0,0,1.87.12,3,3,0,0,0,1.54-1.06l.16.21A4.52,4.52,0,0,1,414.28,83a37.94,37.94,0,0,1-5.43-3.87s0,0,0,0l-2.68-2.19-1.39.37-1.27.29,2.73,6.31a3,3,0,0,0,.66,1.05,1.19,1.19,0,0,0,1.06.12l.08.17-4.06.93-.08-.17c.5-.13.77-.32.8-.55a2.75,2.75,0,0,0-.34-1.27L398.65,71a3.78,3.78,0,0,0-.62-1A1.14,1.14,0,0,0,396.88,69.82Zm3.06-.42,3.35,7.75,1.64-.38a3.28,3.28,0,0,0,2.48-1.63,3.32,3.32,0,0,0-.16-2.75,6.53,6.53,0,0,0-2.17-2.67,4.42,4.42,0,0,0-3.85-.61Z"/><path d="M419.75,64.36l2.36-.54.07.16a1.38,1.38,0,0,0-.64.4,2,2,0,0,0-.32.94l-1.2,7,3.26,7.56A2.76,2.76,0,0,0,424,81a1.45,1.45,0,0,0,1.1,0l.07.17-4.2,1-.08-.17c.83-.13,1.09-.55.78-1.27l-.23-.47-3-7-6.75-5.81c-.71-.62-1.31-.85-1.8-.72l-.08-.17,3.72-.85.07.17c-.34.08-.46.25-.34.53a2.2,2.2,0,0,0,.55.6l5.55,4.76,1.08-6.34a1,1,0,0,0,.07-.37.83.83,0,0,0,0-.36.47.47,0,0,0-.62-.27l-.06,0Z"/><path d="M368.17,152.91l1.29,8.81-33.12,7.63-.58-1.32q9-14.94,10.51-25.05t-1.83-17.75q-2.78-6.42-7.34-9.2A11.82,11.82,0,0,0,328,114.3a10.37,10.37,0,0,0-6.54,4.66,16.41,16.41,0,0,0-2.71,8.11l-1.65-.41q.92-6.75,3.91-10.14a14.89,14.89,0,0,1,8.11-4.57,16.9,16.9,0,0,1,12.59,1.77,19.23,19.23,0,0,1,8.43,9.29q2.38,5.52,1.11,13.29T344.37,156L341,163.11l21.06-4.86c2-.47,3.36-1,3.94-1.58a7.59,7.59,0,0,0,1.45-3.6Z"/><path d="M392.69,157.28q-7.56,1.74-15.16-3.92T365,136.18q-5.67-13.12-3.94-22.61t9.82-11.35A16.4,16.4,0,0,1,380,103a25.49,25.49,0,0,1,9.84,6.94,47.64,47.64,0,0,1,8.58,13.77q5.31,12.27,3.9,22T392.69,157.28Zm1.48-2.47q4-.92,5.08-6.83t-3.48-16.53q-5.82-13.44-13-20.84t-13.52-5.94q-4.47,1-5.37,7.06t3.74,16.74q5.52,12.76,12.9,20.27T394.17,154.81Z"/><path d="M395.28,103.18l6.48-8,.54-.13,21.12,48.84c.82,1.91,1.6,3.06,2.32,3.43s2,.34,3.89-.09l.23.53-14.12,3.26-.23-.54a10.42,10.42,0,0,0,2.4-.81,1.68,1.68,0,0,0,.89-1.64,9.9,9.9,0,0,0-1-3.43l-17-39.39a11.55,11.55,0,0,0-1.32-2.41,1.58,1.58,0,0,0-1.75-.62,5.1,5.1,0,0,0-2.21,1.5Z"/><path d="M436.93,115.72q-6.26-2-8.39-2.93a17.76,17.76,0,0,1-4.55-3,14.08,14.08,0,0,1-3.69-5,11.08,11.08,0,0,1,.19-9.62q2.29-4.74,9.33-6.37,6.46-1.48,11.25.64a12.79,12.79,0,0,1,6.82,6.82q3.47,8-4.93,15.63a60.06,60.06,0,0,1,13.4,5.61,16.79,16.79,0,0,1,6.63,7.79q2.81,6.48-.58,11.56t-10.74,6.77a21.23,21.23,0,0,1-13.28-.91,15.44,15.44,0,0,1-8.6-8.33,11.33,11.33,0,0,1-.36-9.13Q431.19,121,436.93,115.72Zm4.13-4.41q5.22-5.81,2.36-12.39a13,13,0,0,0-6.14-6.59,12.24,12.24,0,0,0-8.6-1.23A9.54,9.54,0,0,0,423,94.65c-1.35,1.79-1.47,4-.36,6.55a10,10,0,0,0,2.92,3.92,27.4,27.4,0,0,0,7.17,3.43Q438,110.45,441.06,111.31Zm-1.46,5.15-.76-.3a20.22,20.22,0,0,0-4.8,6.49,9.89,9.89,0,0,0,.2,8.49,18,18,0,0,0,7.71,8.3q5.57,3.31,10.78,2.11a9.86,9.86,0,0,0,6.36-4.65q2.3-3.72.29-8.37a15.39,15.39,0,0,0-5.32-6.39Q450.35,119.47,439.6,116.46Z"/></g><path class="cls-3" d="M293.77,332H313c11.2,0,18.64,8.72,18.64,21S324.2,374.28,313,374.28h-5.21v18.89h-14Zm16.67,29.84c4.44,0,6.92-3.68,6.92-8.81s-2.82-8.63-6.66-8.63h-2.91v17.44Z"/><path class="cls-3" d="M335,332h14v41c0,5.9,2.48,8.12,6.41,8.12s6.33-2.22,6.33-8.12V332h14v41c0,12.91-8,21.12-20.26,21.12C342.93,394.2,335,386,335,373.08Z"/><path class="cls-3" d="M382.6,332h17.87c10.6,0,18,5.47,18,16,0,5.13-2.22,10.34-7.1,13v.18c7,2.13,9,8.29,9,13.76,0,13.34-8.38,18.21-19,18.21H382.6Zm17.87,23.85c2.65,0,3.76-2.73,3.76-5.81s-1.28-5.64-4.19-5.64h-3.42v11.45Zm.77,24.88c3.51,0,5-3.16,5-6.75,0-3.76-1.37-6.58-4.53-6.58h-5.05v13.33Z"/><path class="cls-3" d="M425.1,332h14v48.73H457.5v12.4H425.1Z"/><path class="cls-3" d="M460.66,332h14v61.13h-14Z"/><path class="cls-3" d="M506.92,331c5.38,0,11.28,1.53,15.39,5.13l-5.82,12.05a12.87,12.87,0,0,0-8.89-3.93c-9.15,0-13.76,8.2-13.76,17.78,0,10,5,18.9,13.59,18.9,4.19,0,7.18-2,9.83-4.11l5.82,11.88c-3.85,2.91-8.47,5.48-16.85,5.48-17,0-26.84-13.34-26.84-31.47C479.39,344.27,489.65,331,506.92,331Z"/><path class="cls-3" d="M541,332h30.7v12.4H555.06v11.71h13.16v12.4H555.06v12.22H572.5v12.4H541Z"/><path class="cls-3" d="M577.29,332h17.86c15.65,0,25.14,11.2,25.14,30.44s-9.49,30.69-25.14,30.69H577.29Zm17.52,48.73c7.18,0,11-6.32,11-18.29s-4.1-18-11-18h-3.5v36.33Z"/><path class="cls-3" d="M624.82,332h14v41c0,5.9,2.48,8.12,6.41,8.12s6.32-2.22,6.32-8.12V332h14v41c0,12.91-8,21.12-20.27,21.12-12.56,0-20.52-8.21-20.52-21.12Z"/><path class="cls-3" d="M697.5,331c5.38,0,11.28,1.53,15.39,5.13l-5.82,12.05a12.87,12.87,0,0,0-8.89-3.93c-9.15,0-13.76,8.2-13.76,17.78,0,10,5,18.9,13.59,18.9,4.19,0,7.18-2,9.83-4.11l5.82,11.88c-3.85,2.91-8.47,5.48-16.85,5.48-17,0-26.84-13.34-26.84-31.47C670,344.27,680.23,331,697.5,331Z"/><path class="cls-3" d="M727.17,332h15.22l15.39,61.13h-14l-2.56-13H728.28l-2.48,13h-14Zm12,36.59-2.4-12.14C735.89,352.56,735,346,735,346h-.34s-.86,6.58-1.71,10.51l-2.4,12.14Z"/><path class="cls-3" d="M765.05,344.44H751.62V332h40.87v12.4H779v48.73H765.05Z"/><path class="cls-3" d="M795.91,332h14v61.13h-14Z"/><path class="cls-3" d="M839.69,331c16.07,0,25,13.33,25,31.29s-9,31.89-25,31.89-25-13.77-25-32C814.72,344.44,823.61,331,839.69,331Zm0,49.75c7.26,0,10.51-7.69,10.51-18.46s-3.25-17.87-10.51-17.87-10.61,7.27-10.61,17.78C829.08,373.16,832.42,380.77,839.69,380.77Z"/><path class="cls-3" d="M869.53,332h14.79l10.43,28.22a69.93,69.93,0,0,1,3,10.17h.34s-.77-6.41-.77-10.26V332h13.17v61.13H895.77L885.26,365a80.49,80.49,0,0,1-2.91-10.26H882s.77,6.42.77,10.26v28.13H869.53Z"/><path class="cls-4" d="M296.57,273.61h3.36v35.24h-3.36Z"/><path class="cls-4" d="M314.47,276.62h-9.53v-3h22.41v3h-9.58v32.23h-3.3Z"/><path class="cls-4" d="M332.91,273.11h3.26l-2.31,8.62h-2.5Z"/><path class="cls-4" d="M342,303.33a9.53,9.53,0,0,0,6.62,3c3.41,0,5.76-2.35,5.76-6.11,0-8.52-13.28-7.62-13.28-17.95,0-5.11,3.46-9.22,9.47-9.22a12.23,12.23,0,0,1,7,2.15l-1.3,3a10.37,10.37,0,0,0-5.72-2,5.7,5.7,0,0,0-6,6.06c0,8.12,13.28,7.07,13.28,17.75,0,5.36-3.31,9.47-9.22,9.47a12,12,0,0,1-8.27-3.26Z"/><path class="cls-4" d="M379.62,276.62H370.1v-3h22.41v3h-9.58v32.23h-3.31Z"/><path class="cls-4" d="M397.57,273.61h3.35v35.24h-3.35Z"/><path class="cls-4" d="M410.25,273.61h3.61l6.66,20.15c.55,1.85,1.26,4.71,1.26,4.71h.1s.65-2.86,1.2-4.71l6.62-20.15h3.6l2.21,35.24h-3.16l-1.5-24.56c-.1-2-.05-4.87-.05-4.87h-.1a52.53,52.53,0,0,1-1.36,5.27l-5.86,17.59h-3.36l-5.86-17.59c-.6-1.81-1.36-5.37-1.36-5.37h-.1s0,3-.1,5l-1.45,24.56H408Z"/><path class="cls-4" d="M442.63,273.61h15.63v3H446v12.93h10v3H446v13.23h12.94v3.06H442.63Z"/><path class="cls-4" d="M475.25,273.61h14.69v3H478.61V290h9.73v3h-9.73v15.89h-3.36Z"/><path class="cls-4" d="M507.93,273c8,0,13.94,6.92,13.94,18,0,11.23-6,18.45-13.94,18.45S494,302.28,494,291C494,279.93,500,273,507.93,273Zm0,33.23c5.92,0,10.43-5.71,10.43-15.24,0-9.32-4.51-14.78-10.43-14.78s-10.47,5.46-10.47,14.78C497.46,300.53,502,306.24,507.93,306.24Z"/><path class="cls-4" d="M528.33,273.61h9a10.17,10.17,0,0,1,4.67,1.15c2.65,1.41,4.51,4.56,4.51,8.77A10.2,10.2,0,0,1,541,293v.1a16.38,16.38,0,0,1,.76,1.55l6.06,14.19h-3.71L538,294h-6.32v14.84h-3.36ZM537.1,291c2.91,0,6-2.7,6-7.31,0-2.66-1-4.87-2.61-5.92a7,7,0,0,0-3.56-1.05h-5.21V291Z"/><path class="cls-4" d="M563.73,267h11.32c6.66,0,11.5,3.83,11.5,10.79a9.87,9.87,0,0,1-4.89,9v.12c4.3,1.35,6.25,5.42,6.25,9.9,0,8.37-5.25,12.09-12.62,12.09H563.73Zm11.62,17.15c2.36,0,3.89-2.35,3.89-5.48s-1.59-5.31-4.42-5.31h-3.9v10.79Zm-.18,18.34c3.77,0,5.37-2.65,5.37-6.13,0-3.78-1.77-6.25-4.54-6.25h-5.08v12.38Z"/><path class="cls-4" d="M610.14,266.28a15.54,15.54,0,0,1,10.2,3.48l-3,6.19a10.19,10.19,0,0,0-7-2.89c-7.25,0-11.2,6.48-11.2,14.5,0,8.2,4.19,15.22,11.08,15.22a12.43,12.43,0,0,0,7.79-3.07l2.94,6.07a16.83,16.83,0,0,1-11.26,3.78c-11.32,0-17.92-9.32-17.92-21.7S598.58,266.28,610.14,266.28Z"/><path class="cls-4" d="M641.22,276.62H631.7v-3h22.4v3h-9.57v32.23h-3.31Z"/><path class="cls-4" d="M669.69,273c8,0,13.94,6.92,13.94,18,0,11.23-6,18.45-13.94,18.45s-13.93-7.17-13.93-18.45C655.76,279.93,661.72,273,669.69,273Zm0,33.23c5.92,0,10.43-5.71,10.43-15.24,0-9.32-4.51-14.78-10.43-14.78s-10.48,5.46-10.48,14.78C659.21,300.53,663.73,306.24,669.69,306.24Z"/><path class="cls-4" d="M700.51,273.61h8.58c5.76,0,10,4.11,10,10.68s-4.26,10.72-10,10.72h-5.22v13.84h-3.36Zm8.12,18.4c4.16,0,7-3,7-7.72s-2.9-7.67-7-7.67h-4.76V292Z"/><path class="cls-4" d="M724.72,273.61h9a10.16,10.16,0,0,1,4.66,1.15c2.65,1.41,4.51,4.56,4.51,8.77a10.2,10.2,0,0,1-5.52,9.48v.1a16.38,16.38,0,0,1,.76,1.55l6.06,14.19h-3.71L734.4,294h-6.32v14.84h-3.36ZM733.49,291c2.91,0,6-2.7,6-7.31,0-2.66-1-4.87-2.61-5.92a7,7,0,0,0-3.56-1.05h-5.21V291Z"/><path class="cls-4" d="M749.73,273.61h3.36v35.24h-3.36Z"/><path class="cls-4" d="M773.49,273c8,0,13.94,6.92,13.94,18,0,11.23-6,18.45-13.94,18.45s-13.93-7.17-13.93-18.45C759.56,279.93,765.52,273,773.49,273Zm0,33.23c5.92,0,10.43-5.71,10.43-15.24,0-9.32-4.51-14.78-10.43-14.78S763,281.68,763,291C763,300.53,767.53,306.24,773.49,306.24Z"/><path class="cls-4" d="M793.89,273.61h9a10.1,10.1,0,0,1,4.66,1.15c2.66,1.41,4.52,4.56,4.52,8.77a10.2,10.2,0,0,1-5.52,9.48v.1a15.07,15.07,0,0,1,.75,1.55l6.07,14.19h-3.71L803.56,294h-6.31v14.84h-3.36ZM802.66,291c2.91,0,6-2.7,6-7.31,0-2.66-1-4.87-2.61-5.92a7,7,0,0,0-3.56-1.05h-5.21V291Z"/><path class="cls-4" d="M818.9,273.61h3.36v35.24H818.9Z"/><path class="cls-4" d="M836.79,276.62h-9.52v-3h22.41v3H840.1v32.23h-3.31Z"/><path class="cls-4" d="M854.74,273.61h3.36v35.24h-3.36Z"/><path class="cls-4" d="M863.76,306.34l13.88-26.46a28.49,28.49,0,0,1,1.91-3.26v-.1a15.83,15.83,0,0,1-2,.1H864.41v-3h18.9v2.46l-13.89,26.51c-1,1.86-1.95,3.26-1.95,3.26v.1a11.25,11.25,0,0,1,2-.15h14v3.06h-19.7Z"/><path class="cls-4" d="M889.37,273.61H905v3H892.73v12.93h10v3h-10v13.23h12.93v3.06H889.37Z"/><path class="cls-4" d="M291.66,330.27h19.23c11.2,0,18.64,8.72,18.64,21s-7.44,21.21-18.64,21.21h-5.21V391.4h-14Zm16.67,29.84c4.44,0,6.92-3.68,6.92-8.81s-2.82-8.63-6.67-8.63h-2.9v17.44Z"/><path class="cls-4" d="M332.87,330.27h14v41c0,5.9,2.48,8.12,6.41,8.12s6.33-2.22,6.33-8.12v-41h14v41c0,12.91-8,21.12-20.26,21.12-12.57,0-20.52-8.21-20.52-21.12Z"/><path class="cls-4" d="M380.49,330.27h17.87c10.6,0,18,5.47,18,16,0,5.13-2.22,10.34-7.1,13v.17c7,2.13,9,8.29,9,13.76,0,13.34-8.38,18.21-19,18.21H380.49Zm17.87,23.86c2.65,0,3.76-2.74,3.76-5.82s-1.28-5.64-4.19-5.64h-3.42v11.46Zm.77,24.87c3.5,0,5-3.16,5-6.75,0-3.76-1.37-6.58-4.53-6.58h-5.05V379Z"/><path class="cls-4" d="M423,330.27h14V379h18.38v12.4H423Z"/><path class="cls-4" d="M458.55,330.27h14V391.4h-14Z"/><path class="cls-4" d="M504.81,329.25c5.38,0,11.28,1.54,15.39,5.13l-5.82,12.05a12.87,12.87,0,0,0-8.89-3.93c-9.15,0-13.76,8.21-13.76,17.78,0,10,4.95,18.9,13.59,18.9,4.19,0,7.18-2,9.83-4.11L521,387c-3.85,2.9-8.47,5.47-16.85,5.47-17,0-26.84-13.34-26.84-31.46C477.28,342.5,487.54,329.25,504.81,329.25Z"/><path class="cls-4" d="M538.92,330.27h30.7v12.4H552.94v11.71h13.17v12.4H552.94V379h17.44v12.4H538.92Z"/><path class="cls-4" d="M575.17,330.27H593c15.65,0,25.14,11.2,25.14,30.44S608.69,391.4,593,391.4H575.17ZM592.7,379c7.18,0,11-6.32,11-18.29s-4.1-18-11-18h-3.5V379Z"/><path class="cls-4" d="M622.71,330.27h14v41c0,5.9,2.48,8.12,6.42,8.12s6.32-2.22,6.32-8.12v-41h14v41c0,12.91-8,21.12-20.26,21.12-12.57,0-20.52-8.21-20.52-21.12Z"/><path class="cls-4" d="M695.39,329.25c5.38,0,11.28,1.54,15.39,5.13L705,346.43a12.87,12.87,0,0,0-8.89-3.93c-9.15,0-13.76,8.21-13.76,17.78,0,10,5,18.9,13.59,18.9,4.19,0,7.18-2,9.83-4.11L711.55,387c-3.85,2.9-8.47,5.47-16.85,5.47-17,0-26.84-13.34-26.84-31.46C667.86,342.5,678.12,329.25,695.39,329.25Z"/><path class="cls-4" d="M725.06,330.27h15.22l15.38,61.13h-14l-2.56-13H726.17l-2.48,13h-14Zm12,36.59-2.4-12.14c-.85-3.93-1.79-10.51-1.79-10.51h-.34s-.86,6.58-1.71,10.51l-2.4,12.14Z"/><path class="cls-4" d="M762.93,342.67H749.51v-12.4h40.87v12.4H776.87V391.4H762.93Z"/><path class="cls-4" d="M793.8,330.27h14V391.4h-14Z"/><path class="cls-4" d="M837.57,329.25c16.08,0,25.06,13.33,25.06,31.29s-9,31.89-25.06,31.89-25-13.77-25-32C812.61,342.67,821.5,329.25,837.57,329.25Zm0,49.75c7.27,0,10.52-7.69,10.52-18.46s-3.25-17.87-10.52-17.87S827,349.94,827,360.45C827,371.4,830.31,379,837.57,379Z"/><path class="cls-4" d="M867.42,330.27h14.79l10.43,28.22a69.93,69.93,0,0,1,3,10.17H896s-.77-6.41-.77-10.26V330.27h13.17V391.4H893.66l-10.51-28.13A80.49,80.49,0,0,1,880.24,353h-.34s.77,6.42.77,10.26V391.4H867.42Z"/><path class="cls-4" d="M522.68,116h7.52a8.49,8.49,0,0,1,3.9,1c2.23,1.18,3.79,3.82,3.79,7.35a8.55,8.55,0,0,1-4.63,7.94v.09a12.05,12.05,0,0,1,.63,1.3L539,145.53h-3.11l-5.08-12.44h-5.3v12.44h-2.81ZM530,130.53c2.44,0,5-2.27,5-6.13,0-2.23-.8-4.08-2.19-5a5.78,5.78,0,0,0-3-.88h-4.37v12Z"/><path class="cls-4" d="M549.35,123.89c5.08,0,7,4.62,7,9.41,0,.55,0,1.1-.09,1.77H544.1c.08,5.71,2.69,8.44,6,8.44a7.1,7.1,0,0,0,5.13-2.18l.8,2.22a8.84,8.84,0,0,1-6.18,2.48c-5.33,0-8.52-4.54-8.52-11.26S544.44,123.89,549.35,123.89Zm4.24,9c0-4.49-1.55-6.55-4.28-6.55s-4.71,2.31-5.21,6.55Z"/><path class="cls-4" d="M560.69,124.4h2.69v2.14a6.13,6.13,0,0,1-.13,1.3h.08a6.36,6.36,0,0,1,6-4c2.73,0,4.16,1.56,4.75,4h.13a6.49,6.49,0,0,1,6.13-4c3.61,0,5.08,2.61,5.08,6.72v14.92H582.7V131.24c0-2.35-.42-4.74-3.07-4.74-3,0-5.21,3-5.21,6.47v12.56h-2.73V131.24c0-2.39-.46-4.74-3.06-4.74-3,0-5.21,3.06-5.21,6.59v12.44h-2.73Z"/><path class="cls-4" d="M590.63,116h3v3.61h-3Zm.13,8.4h2.73v21.13h-2.73Z"/><path class="cls-4" d="M599,124.4h2.69v2.14a6.13,6.13,0,0,1-.13,1.3h.09a6.78,6.78,0,0,1,6.42-4c3.91,0,5.46,2.61,5.46,6.72v14.92h-2.77V131.2c0-2.31-.38-4.7-3.32-4.7-3.4,0-5.71,3.32-5.71,6.64v12.39H599Z"/><path class="cls-4" d="M625.12,123.89a5.35,5.35,0,0,1,5.21,3.32h.08a10.75,10.75,0,0,1-.13-1.64V116H633v29.53h-2.64v-1.77a10,10,0,0,1,.12-1.59h-.08a5.53,5.53,0,0,1-5.55,3.86c-4.78,0-7.09-4.54-7.09-11.09S620.37,123.89,625.12,123.89Zm.29,19.66c3,0,5-2.56,5-8.57,0-4.37-1.18-8.61-4.83-8.61-3.2,0-5,3.15-5,8.61C620.58,140.23,622.13,143.55,625.41,143.55Z"/><path class="cls-4" d="M647.25,116h7.18c4.83,0,8.4,3.44,8.4,8.94s-3.57,9-8.4,9h-4.37v11.6h-2.81Zm6.8,15.41c3.49,0,5.89-2.48,5.89-6.47s-2.44-6.42-5.89-6.42h-4v12.89Z"/><path class="cls-4" d="M666.65,124.4h2.69v3.23a16.27,16.27,0,0,1-.08,1.64h.08c.71-2.77,2.82-5.08,5.13-5.08a3.17,3.17,0,0,1,.88.12v2.78a3.63,3.63,0,0,0-.88-.09c-3.57,0-5.09,5.42-5.09,9.37v9.16h-2.73Z"/><path class="cls-4" d="M685.26,123.89c5.08,0,7,4.62,7,9.41,0,.55,0,1.1-.09,1.77H680c.08,5.71,2.69,8.44,6,8.44a7.1,7.1,0,0,0,5.13-2.18l.8,2.22a8.84,8.84,0,0,1-6.18,2.48c-5.33,0-8.52-4.54-8.52-11.26S680.35,123.89,685.26,123.89Zm4.24,9c0-4.49-1.55-6.55-4.28-6.55s-4.71,2.31-5.21,6.55Z"/><path class="cls-4" d="M696.6,124.4h2.69v2.14a6.13,6.13,0,0,1-.13,1.3h.09a6.33,6.33,0,0,1,6-4c2.73,0,4.16,1.56,4.75,4h.13a6.49,6.49,0,0,1,6.13-4c3.61,0,5.08,2.61,5.08,6.72v14.92h-2.77V131.24c0-2.35-.42-4.74-3.07-4.74-3,0-5.21,3-5.21,6.47v12.56H707.6V131.24c0-2.39-.46-4.74-3.06-4.74-3,0-5.21,3.06-5.21,6.59v12.44H696.6Z"/><path class="cls-4" d="M726.54,116h3v3.61h-3Zm.13,8.4h2.73v21.13h-2.73Z"/><path class="cls-4" d="M741.88,123.89c5.08,0,7,4.62,7,9.41,0,.55,0,1.1-.08,1.77H736.62c.09,5.71,2.69,8.44,6,8.44a7.09,7.09,0,0,0,5.12-2.18l.8,2.22a8.81,8.81,0,0,1-6.17,2.48c-5.34,0-8.53-4.54-8.53-11.26S737,123.89,741.88,123.89Zm4.24,9c0-4.49-1.56-6.55-4.29-6.55s-4.7,2.31-5.21,6.55Z"/><path class="cls-4" d="M753.21,124.4h2.69v3.23a16.27,16.27,0,0,1-.08,1.64h.08c.72-2.77,2.82-5.08,5.13-5.08a3.12,3.12,0,0,1,.88.12v2.78A3.57,3.57,0,0,0,761,127c-3.57,0-5.09,5.42-5.09,9.37v9.16h-2.73Z"/><path class="cls-4" d="M773.46,116h2.81v13.48h12.44V116h2.77v29.53h-2.77V132H776.27v13.53h-2.81Z"/><path class="cls-4" d="M804.79,123.89c5.25,0,8.7,4.71,8.7,11S810,146,804.75,146s-8.7-4.79-8.7-11.13S799.54,123.89,804.79,123.89Zm0,19.66c3.7,0,5.92-3.69,5.92-8.69s-2.22-8.49-5.92-8.49-5.88,3.53-5.88,8.49S801.09,143.55,804.75,143.55Z"/><path class="cls-4" d="M817.85,124.4h2.69v3.23a16.27,16.27,0,0,1-.08,1.64h.08c.71-2.77,2.81-5.08,5.12-5.08a3.19,3.19,0,0,1,.89.12v2.78a3.67,3.67,0,0,0-.89-.09c-3.57,0-5.08,5.42-5.08,9.37v9.16h-2.73Z"/><path class="cls-4" d="M835.28,151.79c3.11,0,5.51-1.89,5.51-6.64v-1.81c0-.84,0-1.55,0-1.55h0c-.93,2.27-2.44,3.61-5,3.61-4.54,0-7.27-4.54-7.27-10.79s2.65-10.72,7.14-10.72a5.27,5.27,0,0,1,5.25,3.49h0v-3h2.57V145c0,6.72-3.95,9.33-8.07,9.33a10.33,10.33,0,0,1-5.42-1.6l.84-2.35A8.54,8.54,0,0,0,835.28,151.79Zm5.59-17.23c0-6.17-2.14-8.1-4.83-8.1-3.07,0-4.71,3-4.71,8.06s1.85,8.32,5,8.32C838.73,142.84,840.87,140.78,840.87,134.56Z"/><path class="cls-4" d="M857.12,132.55h1.09v-.63c0-4.33-1.51-5.59-3.82-5.59a9,9,0,0,0-4.75,1.55l-.84-2.18a10,10,0,0,1,5.76-1.81c4.28,0,6.38,2.69,6.38,8.11v13.53h-2.52v-1.85a17.05,17.05,0,0,1,.09-1.81h-.09c-.88,1.89-2.6,4-5.41,4s-5.47-1.89-5.47-6.21C847.54,133,853.89,132.55,857.12,132.55Zm-3.61,11c3.15,0,4.7-4.12,4.7-7v-1.77h-1.05c-2.43,0-7,.21-7,4.71C850.19,141.79,851.58,143.51,853.51,143.51Z"/><path class="cls-4" d="M866.23,124.4h2.69v2.14a6.61,6.61,0,0,1-.12,1.3h.08a6.78,6.78,0,0,1,6.43-4c3.9,0,5.46,2.61,5.46,6.72v14.92H878V131.2c0-2.31-.38-4.7-3.32-4.7-3.4,0-5.72,3.32-5.72,6.64v12.39h-2.73Z"/><path class="cls-4" d="M894.12,142.17h2.94v3.36h-2.94Z"/><path class="cls-4" d="M902,142.17H905v3.36H902Z"/><path class="cls-4" d="M909.91,142.17h2.94v3.36h-2.94Z"/><path class="cls-3" d="M424,504h3.29V525.8h8.33v3H424Z"/><path class="cls-3" d="M438.33,504H449.7v3h-8.08v7.8h6.54v3h-6.54v8h8.5v3H438.33Z"/><path class="cls-3" d="M458.07,504h3.57l6.72,24.75H465l-1.85-7.14h-6.65l-1.79,7.14h-3.32Zm4.55,14.81-2-7.81c-.31-1.29-.7-3.5-.7-3.5h-.1s-.35,2.21-.67,3.5l-2,7.81Z"/><path class="cls-3" d="M471,504h6.76a7.31,7.31,0,0,1,3.25.81,6.8,6.8,0,0,1,3.47,6.37,7.51,7.51,0,0,1-3.78,6.75V518a6.16,6.16,0,0,1,.63,1.19l4.2,9.56h-3.64l-4-9.84h-3.57v9.84H471Zm6.34,12c1.92,0,3.74-1.71,3.74-4.58a4.37,4.37,0,0,0-1.57-3.71,4.07,4.07,0,0,0-2.17-.67h-3.05v9Z"/><path class="cls-3" d="M488.41,504h3.43l7.81,15.75a35.94,35.94,0,0,1,1.29,3.5h.11s-.21-2.17-.21-3.57V504H504v24.75h-3.39L492.75,513c-.63-1.4-1.29-3.53-1.29-3.53h-.11s.21,2.2.21,3.57v15.75h-3.15Z"/><path class="cls-3" d="M516.3,504H520l4,13.09c.38,1.4.84,3.54.84,3.54h.07s.45-2.14.8-3.54l4-13.09h3.64l1.54,24.75h-3.08l-.94-15.47c-.07-1.51,0-3.61,0-3.61h-.11s-.45,2.45-.84,3.82l-3.39,10.85h-3.29l-3.4-10.85c-.38-1.37-.87-3.89-.87-3.89h-.11s.11,2.17,0,3.68l-.95,15.47h-3.11Z"/><path class="cls-3" d="M547.6,503.61c5.88,0,9.9,5.08,9.9,12.64s-4,13-9.9,13-9.84-5.22-9.84-13C537.76,508.69,541.71,503.61,547.6,503.61Zm0,22.44c3.85,0,6.47-3.82,6.47-9.8s-2.62-9.45-6.47-9.45-6.44,3.6-6.44,9.45C541.16,522.27,543.75,526.05,547.6,526.05Z"/><path class="cls-3" d="M561.1,504h6.76a7.32,7.32,0,0,1,3.26.81c2,1,3.46,3.29,3.46,6.37A7.51,7.51,0,0,1,570.8,518V518a5.55,5.55,0,0,1,.63,1.19l4.2,9.56H572l-4-9.84h-3.57v9.84H561.1Zm6.34,12c1.93,0,3.75-1.71,3.75-4.58a4.37,4.37,0,0,0-1.58-3.71,4,4,0,0,0-2.17-.67h-3.05v9Z"/><path class="cls-3" d="M578.53,504h11.38v3h-8.09v7.8h6.55v3h-6.55v8h8.51v3h-11.8Z"/><path class="cls-3" d="M593.93,525h3.19l-2.49,7.28h-2.48Z"/><path class="cls-3" d="M611.61,507h-6.34v-3h16v3h-6.38v21.77h-3.25Z"/><path class="cls-3" d="M626.69,504h3.57L637,528.78h-3.33l-1.86-7.14h-6.65l-1.78,7.14H620Zm4.55,14.81-2-7.81c-.32-1.29-.7-3.5-.7-3.5h-.11s-.35,2.21-.66,3.5l-2,7.81Z"/><path class="cls-3" d="M639.61,504h3.29v10.36h2.31L650,504h3.57l-5.43,11.76v.07L654,528.78h-3.75l-5-11.31H642.9v11.31h-3.29Z"/><path class="cls-3" d="M656.62,504H668v3h-8.08v7.8h6.54v3h-6.54v8h8.5v3H656.62Z"/><path class="cls-3" d="M682.27,504h3.57l6.73,24.75h-3.33l-1.86-7.14h-6.65L679,528.78h-3.33Zm4.55,14.81-2-7.81c-.32-1.29-.7-3.5-.7-3.5H684s-.35,2.21-.66,3.5l-2,7.81Z"/><path class="cls-3" d="M704.25,503.61a9.26,9.26,0,0,1,6,2l-1.41,2.87a7,7,0,0,0-4.48-1.75c-4.65,0-7.31,4.13-7.31,9.45s2.73,9.87,7.21,9.87a8.1,8.1,0,0,0,5-1.92l1.29,2.83A9.77,9.77,0,0,1,704,529.2c-6.54,0-10.46-5.6-10.46-12.85S697.57,503.61,704.25,503.61Z"/><path class="cls-3" d="M717.94,507H711.6v-3h16v3h-6.38v21.77h-3.25Z"/><path class="cls-3" d="M730.29,504h3.29v24.75h-3.29Z"/><path class="cls-3" d="M747.09,503.61c5.88,0,9.91,5.08,9.91,12.64s-4,13-9.91,13-9.83-5.22-9.83-13C737.26,508.69,741.21,503.61,747.09,503.61Zm0,22.44c3.85,0,6.48-3.82,6.48-9.8s-2.63-9.45-6.48-9.45-6.44,3.6-6.44,9.45C740.65,522.27,743.24,526.05,747.09,526.05Z"/><path class="cls-3" d="M760.6,504H764l7.81,15.75a35.94,35.94,0,0,1,1.29,3.5h.11s-.21-2.17-.21-3.57V504h3.11v24.75h-3.39L764.94,513c-.63-1.4-1.29-3.53-1.29-3.53h-.11s.21,2.2.21,3.57v15.75H760.6Z"/><path class="cls-3" d="M646,582.75h1.61v1.07a6.67,6.67,0,0,1-.07,1h0a3.36,3.36,0,0,1,3.43-2.37c3,0,4.42,2.81,4.42,6.84s-1.67,6.86-4.55,6.86a3.33,3.33,0,0,1-3.22-2.08h-.06a6.87,6.87,0,0,1,.08,1.06V601H646Zm4.63,11.85c2,0,3.06-2,3.06-5.3s-1-5.33-3-5.33-3.07,1.59-3.07,5.33C647.67,592,648.35,594.6,650.66,594.6Z"/><path class="cls-3" d="M663.52,587.79h.68v-.39c0-2.67-.94-3.45-2.37-3.45a5.47,5.47,0,0,0-2.93,1l-.52-1.35a6.17,6.17,0,0,1,3.56-1.12c2.65,0,3.95,1.66,3.95,5v8.36h-1.56v-1.14c0-.65,0-1.12,0-1.12h0A3.81,3.81,0,0,1,661,596c-1.67,0-3.38-1.17-3.38-3.84C657.6,588.08,661.52,587.79,663.52,587.79Zm-2.23,6.79c2,0,2.91-2.55,2.91-4.34v-1.09h-.65c-1.51,0-4.31.13-4.31,2.91C659.24,593.51,660.09,594.58,661.29,594.58Z"/><path class="cls-3" d="M669.42,582.75h1.67v1.33a3.74,3.74,0,0,1-.08.8h0a4.2,4.2,0,0,1,4-2.44c2.41,0,3.38,1.61,3.38,4.16v9.22H676.7V587c0-1.43-.23-2.91-2.05-2.91-2.11,0-3.54,2.06-3.54,4.11v7.66h-1.69Z"/><path class="cls-3" d="M680.76,582.75h1.76l2.65,9.57c.19.67.34,1.58.34,1.58h0s.15-.91.31-1.58l2.68-9.57h1.74l-3.77,13.07h-2Z"/><path class="cls-3" d="M697.62,587.79h.68v-.39c0-2.67-.94-3.45-2.37-3.45a5.47,5.47,0,0,0-2.93,1l-.52-1.35a6.17,6.17,0,0,1,3.56-1.12c2.65,0,4,1.66,4,5v8.36h-1.56v-1.14c0-.65.05-1.12.05-1.12h-.05a3.81,3.81,0,0,1-3.35,2.47c-1.67,0-3.38-1.17-3.38-3.84C691.7,588.08,695.62,587.79,697.62,587.79Zm-2.23,6.79c2,0,2.91-2.55,2.91-4.34v-1.09h-.65c-1.51,0-4.32.13-4.32,2.91A2.25,2.25,0,0,0,695.39,594.58Z"/><path class="cls-3" d="M703.52,582.75h1.67v1.33a3.74,3.74,0,0,1-.08.8h0a4.2,4.2,0,0,1,4-2.44c2.41,0,3.37,1.61,3.37,4.16v9.22H710.8V587c0-1.43-.23-2.91-2-2.91-2.11,0-3.54,2.06-3.54,4.11v7.66h-1.69Z"/><path class="cls-3" d="M721,582.44a4.61,4.61,0,0,1,3.38,1.3l-.68,1.4a3.61,3.61,0,0,0-2.67-1.17c-2.4,0-4,2.19-4,5.33s1.5,5.3,4,5.3a4.17,4.17,0,0,0,3-1.37l.52,1.4a5.1,5.1,0,0,1-3.77,1.51c-3.24,0-5.5-2.76-5.5-6.84S717.58,582.44,721,582.44Z"/><path class="cls-3" d="M731.75,582.44c3.25,0,5.38,2.91,5.38,6.81s-2.13,6.89-5.41,6.89-5.38-3-5.38-6.89S728.5,582.44,731.75,582.44Zm0,12.16c2.29,0,3.67-2.28,3.67-5.38S734,584,731.72,584s-3.64,2.19-3.64,5.25S729.46,594.6,731.72,594.6Z"/><path class="cls-3" d="M740,582.75h1.69v8.84c0,1.45.23,2.93,2.08,2.93s3.43-2,3.43-4.07v-7.7h1.69v13.07h-1.67V594.5a4.24,4.24,0,0,1,.08-.83h0a4.1,4.1,0,0,1-3.87,2.47c-2.45,0-3.38-1.64-3.38-4.16Z"/><path class="cls-3" d="M751.42,582.75h1.77l2.65,9.57c.18.67.34,1.58.34,1.58h0s.15-.91.31-1.58l2.67-9.57h1.74l-3.76,13.07h-1.95Z"/><path class="cls-3" d="M767.51,582.44c3.14,0,4.34,2.86,4.34,5.82,0,.34,0,.68-.05,1.09h-7.54c0,3.54,1.66,5.23,3.69,5.23a4.39,4.39,0,0,0,3.17-1.35l.5,1.37a5.48,5.48,0,0,1-3.82,1.54c-3.3,0-5.28-2.81-5.28-7S764.47,582.44,767.51,582.44Zm2.62,5.54c0-2.78-1-4.06-2.65-4.06s-2.91,1.43-3.22,4.06Z"/><path class="cls-3" d="M774.79,582.75h1.66v2a10,10,0,0,1-.05,1h.05c.44-1.72,1.74-3.15,3.17-3.15a1.92,1.92,0,0,1,.55.08v1.72a2.26,2.26,0,0,0-.55-.06c-2.21,0-3.14,3.36-3.14,5.8v5.66h-1.69Z"/><path class="cls-3" d="M781.65,593.75h1.82v2.07h-1.82Z"/><path class="cls-3" d="M791.94,582.44a4.59,4.59,0,0,1,3.38,1.3l-.68,1.4A3.61,3.61,0,0,0,792,584c-2.39,0-4,2.19-4,5.33s1.5,5.3,4,5.3a4.17,4.17,0,0,0,3-1.37l.52,1.4a5.1,5.1,0,0,1-3.76,1.51c-3.25,0-5.51-2.76-5.51-6.84S788.49,582.44,791.94,582.44Z"/><path class="cls-3" d="M803.17,587.79h.67v-.39c0-2.67-.93-3.45-2.36-3.45a5.53,5.53,0,0,0-2.94,1l-.52-1.35a6.2,6.2,0,0,1,3.56-1.12c2.65,0,3.95,1.66,3.95,5v8.36H804v-1.14a9.8,9.8,0,0,1,.06-1.12H804a3.79,3.79,0,0,1-3.35,2.47c-1.66,0-3.38-1.17-3.38-3.84C797.24,588.08,801.17,587.79,803.17,587.79Zm-2.24,6.79c2,0,2.91-2.55,2.91-4.34v-1.09h-.65c-1.5,0-4.31.13-4.31,2.91A2.25,2.25,0,0,0,800.93,594.58Z"/><polygon class="cls-8" points="867.66 526.11 867.51 536.6 865.18 538.74 861.13 534.99 861.73 519.59 867.66 526.11"/><path class="cls-8" d="M908.33,563l-.94,4.28a58.52,58.52,0,0,1-6.52,16.6,39.63,39.63,0,0,1-5.54,7.27,31,31,0,0,1-7.4,5.67,28.69,28.69,0,0,1-8.91,3.07,32.49,32.49,0,0,1-9.31.11c-.76-.08-1.52-.22-2.26-.36l-.33-.06a8.58,8.58,0,0,1-.85-.18l-.86-.2-.83.32-.75.28-1.11.34a27.63,27.63,0,0,1-8.06,1.26c-.45,0-.89,0-1.33,0a22.21,22.21,0,0,1-9.3-2.68,46.47,46.47,0,0,1-6.4-5l-4.4,3.45,2.83-10.29,11.43.33-5.19,3.24a36.41,36.41,0,0,0,4.48,3.2,16.33,16.33,0,0,0,6.88,2,21.14,21.14,0,0,0,7.38-1l1-.29c.17,0,.36-.13.55-.2l1.57-.61a2.37,2.37,0,0,1,1.9-.1,1.77,1.77,0,0,0,.33.08l.06,0,1.16.27c.25.07.44.1.64.14l.63.11a15.36,15.36,0,0,0,1.57.24,26.07,26.07,0,0,0,7.66-.08,22.69,22.69,0,0,0,7.1-2.43,29.28,29.28,0,0,0,10.77-10.86,53,53,0,0,0,5.84-14.94l.73-3.54,2.43,2.6Z"/><path class="cls-9" d="M868,545.74l-.23-.41-.29-.48h0c-.22-.35-.54-.83-.71-1.12l-.07-.09-1.17-1.83-1.07-1.41-.13-.15a19.37,19.37,0,0,0-1.44-1.58l-.84-.84-.85-.78a23.34,23.34,0,0,0-8.29-4.84,20.55,20.55,0,0,0-9.76-.71,22.56,22.56,0,0,0-8.94,3.67,26.31,26.31,0,0,0-6.76,6.63,27,27,0,0,0-5,18,13.71,13.71,0,0,0,.2,1.6c0,.24.08.5.13.79.09.53.22,1,.35,1.54.07.25.13.5.2.79.42,1.49.89,2.91,1.3,4.17,1,3,2,5.66,3,8.18,1.16,2.76,5.93,12.28,5.93,12.28l1.66-3.91h4.18s-5.1-7.86-6.48-10.66c-.31-.63-2.05-5.28-2.86-7.73-.42-1.29-.86-2.63-1.21-3.87,0-.25-.12-.49-.18-.74s-.19-.74-.25-1.05-.07-.53-.12-.79a8.64,8.64,0,0,1-.14-1.11,21.23,21.23,0,0,1,3.91-14.1,19.08,19.08,0,0,1,12-8,15,15,0,0,1,7,.51,17.79,17.79,0,0,1,6.25,3.67l.7.64.69.69c.13.15,1.36,1.6,1.9,2.28a30.57,30.57,0,0,1,2.13,3.23.16.16,0,0,1,0,.07L858,550.52l9.64,1.31L872.3,544Z"/><path class="cls-10" d="M913.32,558.09,905.27,563l-5.74-6.35,4,.47a16,16,0,0,0-.14-1.65A29.19,29.19,0,0,0,898,540.93a18.38,18.38,0,0,0-5.58-5.07,13.63,13.63,0,0,0-7-1.82,16.37,16.37,0,0,0-7.14,2,26.35,26.35,0,0,0-5.66,4.09l-.65.59-.52.52c-.25.23-.49.47-.73.71l-1.57,1.82-.58.67v-3.5l-3.09.1,1.85-2c.34-.36.69-.69,1-1l.54-.53.19-.18.18-.15a31.59,31.59,0,0,1,6.94-5.06,20.66,20.66,0,0,1,9.11-2.52,18.42,18.42,0,0,1,9.28,2.4,22.8,22.8,0,0,1,6.93,6.27,34.46,34.46,0,0,1,6.32,16.85,14.76,14.76,0,0,1,.13,2.51Z"/><path class="cls-3" d="M441.74,554.3h-1.25v-1.48h1.25v-.57c0-4.26,2.42-4.86,3.64-4.86a3.29,3.29,0,0,1,.75.06V549a2,2,0,0,0-.44-.05c-1.07,0-2.21.62-2.21,3.32v.57H446v1.48h-2.47v11.49h-1.74Z"/><path class="cls-3" d="M453.41,557.76h.67v-.39c0-2.67-.93-3.45-2.36-3.45a5.44,5.44,0,0,0-2.94,1l-.52-1.35a6.12,6.12,0,0,1,3.56-1.12c2.65,0,3.95,1.66,3.95,5v8.37h-1.56v-1.14a9.8,9.8,0,0,1,.06-1.12h-.06a3.79,3.79,0,0,1-3.35,2.47c-1.66,0-3.38-1.17-3.38-3.85C447.48,558.05,451.41,557.76,453.41,557.76Zm-2.24,6.78c1.95,0,2.91-2.54,2.91-4.34v-1.09h-.65c-1.5,0-4.31.13-4.31,2.91A2.24,2.24,0,0,0,451.17,564.54Z"/><path class="cls-3" d="M464.3,552.41a4.62,4.62,0,0,1,3.38,1.3l-.68,1.4a3.62,3.62,0,0,0-2.68-1.17c-2.39,0-3.95,2.18-3.95,5.33s1.51,5.3,4,5.3a4.16,4.16,0,0,0,3-1.38l.52,1.41a5.12,5.12,0,0,1-3.77,1.5c-3.25,0-5.51-2.75-5.51-6.83S460.84,552.41,464.3,552.41Z"/><path class="cls-3" d="M474.64,552.41c3.15,0,4.34,2.86,4.34,5.82,0,.34,0,.67-.05,1.09h-7.54c.06,3.53,1.67,5.22,3.69,5.22a4.35,4.35,0,0,0,3.17-1.35l.5,1.38a5.47,5.47,0,0,1-3.82,1.53c-3.3,0-5.28-2.8-5.28-7S471.6,552.41,474.64,552.41Zm2.63,5.53c0-2.78-1-4.05-2.65-4.05s-2.91,1.43-3.23,4.05Z"/><path class="cls-3" d="M481.92,547.52h1.69v6.11a6.76,6.76,0,0,1-.08,1.07h.05a3.36,3.36,0,0,1,3.38-2.29c2.94,0,4.42,2.8,4.42,6.83s-1.69,6.86-4.57,6.86a3.36,3.36,0,0,1-3.3-2.15h-.06a6.11,6.11,0,0,1,.08,1v.86h-1.61Zm4.65,17.05c1.93,0,3-2,3-5.3s-1-5.33-3-5.33-3.06,1.56-3.06,5.33C483.56,562,484.23,564.57,486.57,564.57Z"/><path class="cls-3" d="M499.36,552.41a4.62,4.62,0,0,1,3.38,1.3l-.68,1.4a3.62,3.62,0,0,0-2.68-1.17c-2.39,0-3.94,2.18-3.94,5.33s1.5,5.3,4,5.3a4.16,4.16,0,0,0,3-1.38l.52,1.41a5.12,5.12,0,0,1-3.77,1.5c-3.24,0-5.51-2.75-5.51-6.83S495.9,552.41,499.36,552.41Z"/><path class="cls-3" d="M505.49,563.71h1.82v2.08h-1.82Z"/><path class="cls-3" d="M515.79,552.41a4.58,4.58,0,0,1,3.37,1.3l-.67,1.4a3.64,3.64,0,0,0-2.68-1.17c-2.39,0-3.95,2.18-3.95,5.33s1.51,5.3,4,5.3a4.16,4.16,0,0,0,3-1.38l.52,1.41a5.12,5.12,0,0,1-3.77,1.5c-3.25,0-5.51-2.75-5.51-6.83S512.33,552.41,515.79,552.41Z"/><path class="cls-3" d="M527,557.76h.68v-.39c0-2.67-.94-3.45-2.37-3.45a5.39,5.39,0,0,0-2.93,1l-.52-1.35a6.1,6.1,0,0,1,3.56-1.12c2.65,0,4,1.66,4,5v8.37h-1.56v-1.14c0-.65,0-1.12,0-1.12h0a3.81,3.81,0,0,1-3.35,2.47c-1.67,0-3.38-1.17-3.38-3.85C521.09,558.05,525,557.76,527,557.76Zm-2.23,6.78c2,0,2.91-2.54,2.91-4.34v-1.09H527c-1.51,0-4.32.13-4.32,2.91A2.24,2.24,0,0,0,524.78,564.54Z"/><path class="cls-3" d="M537.2,546.51h1.53l-5.09,20.37h-1.53Z"/><path class="cls-3" d="M541.26,552.72h1.66v1.33a3.86,3.86,0,0,1-.08.8h0a4.2,4.2,0,0,1,4-2.44c2.42,0,3.38,1.61,3.38,4.16v9.22h-1.72v-8.86c0-1.43-.23-2.91-2-2.91-2.1,0-3.53,2.05-3.53,4.1v7.67h-1.69Z"/><path class="cls-3" d="M558.12,552.41c3.15,0,4.34,2.86,4.34,5.82,0,.34,0,.67-.05,1.09h-7.53c0,3.53,1.66,5.22,3.69,5.22a4.39,4.39,0,0,0,3.17-1.35l.49,1.38a5.47,5.47,0,0,1-3.82,1.53c-3.3,0-5.28-2.8-5.28-7S555.08,552.41,558.12,552.41Zm2.63,5.53c0-2.78-1-4.05-2.65-4.05s-2.91,1.43-3.22,4.05Z"/><path class="cls-3" d="M564.15,552.72h1.74l2.24,9.72c.16.62.29,1.4.29,1.4h0s.13-.8.26-1.4l2.34-9.67h1.71l2.34,9.67a12.66,12.66,0,0,1,.26,1.4h.06s.13-.75.28-1.4l2.26-9.72h1.69l-3.25,13.07h-1.92l-2.29-9.3c-.15-.63-.26-1.43-.26-1.43h0a14,14,0,0,1-.26,1.43l-2.26,9.3h-2Z"/><path class="cls-3" d="M582.84,569.71c.88,0,1.48-1,1.85-2.18l.57-1.82-4.26-13h1.82l2.83,9.51a11,11,0,0,1,.28,1.43H586s.18-.83.33-1.43l2.73-9.51h1.77l-4.73,15.51c-.55,1.85-1.72,3-3.17,3a3.15,3.15,0,0,1-1.9-.65l.55-1.38A2.08,2.08,0,0,0,582.84,569.71Z"/><path class="cls-3" d="M597.37,552.41c3.14,0,4.34,2.86,4.34,5.82,0,.34,0,.67-.05,1.09h-7.54c0,3.53,1.66,5.22,3.69,5.22a4.35,4.35,0,0,0,3.17-1.35l.5,1.38a5.47,5.47,0,0,1-3.82,1.53c-3.3,0-5.28-2.8-5.28-7S594.33,552.41,597.37,552.41Zm2.62,5.53c0-2.78-1-4.05-2.65-4.05s-2.91,1.43-3.22,4.05Z"/><path class="cls-3" d="M609.69,557.76h.67v-.39c0-2.67-.93-3.45-2.36-3.45a5.44,5.44,0,0,0-2.94,1l-.52-1.35a6.12,6.12,0,0,1,3.56-1.12c2.65,0,3.95,1.66,3.95,5v8.37h-1.56v-1.14a9.8,9.8,0,0,1,.06-1.12h-.06a3.79,3.79,0,0,1-3.35,2.47c-1.66,0-3.38-1.17-3.38-3.85C603.76,558.05,607.69,557.76,609.69,557.76Zm-2.24,6.78c1.95,0,2.91-2.54,2.91-4.34v-1.09h-.65c-1.5,0-4.31.13-4.31,2.91A2.24,2.24,0,0,0,607.45,564.54Z"/><path class="cls-3" d="M615.59,552.72h1.66v2a10,10,0,0,1,0,1h0c.44-1.71,1.74-3.14,3.17-3.14a1.92,1.92,0,0,1,.55.08v1.71a3.12,3.12,0,0,0-.55,0c-2.21,0-3.14,3.35-3.14,5.8v5.66h-1.69Z"/><path class="cls-11" d="M425,543.7H286.68v48.49H425Zm-3,45.49H289.67v-42.5H422Z"/><path class="cls-11" d="M290.87,547.89V588h130V547.89ZM316,570.81H300.2v14.26h-5.86V550.29h23.35l-.05,5.27H300.2v10H316Zm31.3,14.26L344,577.22H326.43l-3.33,7.85H317l15.35-34.78h6l15.2,34.78Zm25.19.25c-10.19,0-18.08-7.7-18.08-17.69s8-17.48,18.28-17.48a19.17,19.17,0,0,1,13.21,5.36l-3.43,4.27a13.58,13.58,0,0,0-9.68-4.42,12.25,12.25,0,1,0,0,24.49,14.38,14.38,0,0,0,9.68-4.12L386,579.6A19.73,19.73,0,0,1,372.49,585.32Zm44.86-.25H391.92V550.29h24.84v5.27h-19V565h17v5.27h-17v9.58h19.57Z"/><polygon class="cls-11" points="328.62 572 341.73 572 335.18 556.55 328.62 572"/><path class="cls-11" d="M335.18,562.68l2.94,6.93h-5.88l2.94-6.93m0-6.13L328.62,572h13.11l-6.55-15.45Z"/><path class="cls-11" d="M389.52,550.28h0V585.6h-8a22.49,22.49,0,0,0,6.14-4.29l1.63-1.6-1.53-1.7-3.47-3.88-1.66-1.84L380.81,574a11.93,11.93,0,0,1-8,3.46,9.85,9.85,0,1,1,0-19.7,11.28,11.28,0,0,1,7.93,3.65l1.89,2,1.73-2.17,3.43-4.27,1.35-1.69-1.54-1.51a20.68,20.68,0,0,0-4.84-3.53h6.78m-27.08,0A19.56,19.56,0,0,0,352,567.63a19.84,19.84,0,0,0,11.19,18h-6.8l-.65-1.49L341,550.28h21.48m-32.71,0L314.8,584.1l-.66,1.5H302.59V573.21h15.8v-10h-15.8V558H320l0-2.37.05-5.26v0h9.65M418.42,558v19.46H400.17v-4.8h17V562.56h-17V558h18.25m-76,21.66,2.54,6H325.48l2.54-6h14.36m78.44-31.72H290.87V588h130V547.89Zm-48.33,37.43c-10.19,0-18.08-7.7-18.08-17.69s8-17.48,18.28-17.48a19.17,19.17,0,0,1,13.21,5.36l-3.43,4.27a13.58,13.58,0,0,0-9.68-4.42,12.25,12.25,0,1,0,0,24.49,14.38,14.38,0,0,0,9.68-4.12L386,579.6a19.73,19.73,0,0,1-13.46,5.72Zm19.43-.25V550.29h24.84v5.27h-19V565h17v5.27h-17v9.58h19.57v5.27Zm-74.93,0,15.35-34.78h6l15.2,34.78H347.3L344,577.22H326.43l-3.33,7.85Zm.7-34.78-.05,5.27H300.2v10H316v5.21H300.2v14.26h-5.86V550.29Z"/><path class="cls-3" d="M287.67,595v1.63h2.57v.85h-2.57v2.32h-.95v-5.66h3.79V595Z"/><path class="cls-3" d="M293.88,599.24a1.73,1.73,0,0,1-1.42.57,1.36,1.36,0,0,1-1.51-1.34c0-.78.59-1.28,1.62-1.29h1.31v-.13c0-.54-.35-.86-1-.86a2.28,2.28,0,0,0-1.27.43l-.38-.64a3.12,3.12,0,0,1,1.85-.55c1.11,0,1.73.57,1.74,1.52v2.82h-.92Zm0-1v-.4h-1.17c-.6,0-.89.16-.89.57s.32.64.84.64S293.83,598.72,293.88,598.26Z"/><path class="cls-3" d="M303.23,597.09v2.68h-.93v-2.42a1,1,0,0,0-1-1.05,1.22,1.22,0,0,0-1.18,1.34v2.13h-.93v-2.42a1,1,0,0,0-1-1.05,1.23,1.23,0,0,0-1.2,1.34v2.13H296v-4.3H297v.83a1.59,1.59,0,0,1,1.56-.87,1.44,1.44,0,0,1,1.5,1,1.58,1.58,0,0,1,1.63-1A1.5,1.5,0,0,1,303.23,597.09Z"/><path class="cls-3" d="M305.47,594.24a.54.54,0,1,1-.54-.57A.54.54,0,0,1,305.47,594.24Zm-1,5.53v-4.3h.92v4.3Z"/><path class="cls-3" d="M306.8,599.77v-6h.93v6Z"/><path class="cls-3" d="M310.15,594.24a.54.54,0,1,1-.54-.57A.54.54,0,0,1,310.15,594.24Zm-1,5.53v-4.3h.92v4.3Z"/><path class="cls-3" d="M315.23,598H312a1.3,1.3,0,0,0,1.33,1.08,1.67,1.67,0,0,0,1.21-.5l.5.52a2.35,2.35,0,0,1-1.78.73,2.07,2.07,0,0,1-2.2-2.17,2.09,2.09,0,0,1,2.17-2.2C314.73,595.43,315.34,596.42,315.23,598Zm-.81-.68a1.11,1.11,0,0,0-1.2-1.11,1.23,1.23,0,0,0-1.26,1.11Z"/><path class="cls-3" d="M319,595.86l-.34.69a2.55,2.55,0,0,0-1.23-.38c-.37,0-.63.12-.63.43,0,.79,2.28.36,2.28,1.92,0,.88-.79,1.28-1.65,1.28a2.66,2.66,0,0,1-1.73-.6l.33-.66a2.34,2.34,0,0,0,1.44.53c.39,0,.7-.13.7-.46,0-.88-2.26-.39-2.25-1.94,0-.87.76-1.24,1.58-1.24A2.73,2.73,0,0,1,319,595.86Z"/><path class="cls-3" d="M322.93,598.49l-.54,1.28h-1l2.5-5.66h1l2.48,5.66h-1l-.54-1.28Zm1.43-3.36-1.07,2.51h2.13Z"/><path class="cls-3" d="M331.71,599.35a2,2,0,0,1-2.23,2,3.12,3.12,0,0,1-1.79-.57l.4-.67a2.15,2.15,0,0,0,1.35.47,1.2,1.2,0,0,0,1.35-1.22v-.54a1.58,1.58,0,0,1-1.42.73,2.07,2.07,0,0,1,0-4.13,1.62,1.62,0,0,1,1.45.73v-.69h.92Zm-.92-1.85a1.22,1.22,0,0,0-1.24-1.31,1.32,1.32,0,1,0,1.24,1.31Z"/><path class="cls-3" d="M335.58,599.24a1.75,1.75,0,0,1-1.42.57,1.36,1.36,0,0,1-1.51-1.34c0-.78.59-1.28,1.62-1.29h1.3v-.13c0-.54-.34-.86-1-.86a2.28,2.28,0,0,0-1.27.43l-.38-.64a3.12,3.12,0,0,1,1.85-.55c1.11,0,1.73.57,1.74,1.52v2.82h-.92Zm0-1v-.4h-1.16c-.61,0-.89.16-.89.57s.32.64.83.64C335,599.07,335.53,598.72,335.57,598.26Z"/><path class="cls-3" d="M338.74,594.24a.54.54,0,1,1-.54-.57A.54.54,0,0,1,338.74,594.24Zm-1,5.53v-4.3h.92v4.3Z"/><path class="cls-3" d="M344.15,597.09v2.68h-.93v-2.42a1,1,0,0,0-1-1,1.21,1.21,0,0,0-1.22,1.17v2.29H340v-4.3H341v.82a1.63,1.63,0,0,1,1.59-.86A1.51,1.51,0,0,1,344.15,597.09Z"/><path class="cls-3" d="M348.18,595.86l-.34.69a2.59,2.59,0,0,0-1.24-.38c-.36,0-.63.12-.63.43,0,.79,2.29.36,2.28,1.92,0,.88-.78,1.28-1.65,1.28a2.66,2.66,0,0,1-1.73-.6l.34-.66a2.34,2.34,0,0,0,1.43.53c.4,0,.71-.13.71-.46,0-.88-2.27-.39-2.26-1.94,0-.87.76-1.24,1.59-1.24A2.75,2.75,0,0,1,348.18,595.86Z"/><path class="cls-3" d="M351.62,599.49a2.08,2.08,0,0,1-1.06.32,1.13,1.13,0,0,1-1.2-1.25v-2.24h-.61v-.69h.61v-1.18h.92v1.18h1.27v.69h-1.27v2.07c0,.44.17.58.46.58a1.52,1.52,0,0,0,.65-.19Z"/><path class="cls-3" d="M359.28,595l-.56.69a2.22,2.22,0,0,0-1.58-.72,2,2,0,1,0,0,4,2.35,2.35,0,0,0,1.58-.67l.56.63a3.23,3.23,0,0,1-2.19.93,2.86,2.86,0,1,1,0-5.72A3.13,3.13,0,0,1,359.28,595Z"/><path class="cls-3" d="M364.1,599.77h-.93v-.84a1.58,1.58,0,0,1-1.54.87,1.49,1.49,0,0,1-1.57-1.66v-2.67H361v2.41a1,1,0,0,0,1,1,1.22,1.22,0,0,0,1.18-1.34v-2.12h.93Z"/><path class="cls-3" d="M367.91,599.49a2.11,2.11,0,0,1-1.06.32,1.13,1.13,0,0,1-1.21-1.25v-2.24H365v-.69h.6v-1.18h.92v1.18h1.27v.69h-1.27v2.07c0,.44.17.58.46.58a1.52,1.52,0,0,0,.65-.19Z"/><path class="cls-3" d="M371.55,595.86l-.34.69a2.59,2.59,0,0,0-1.24-.38c-.36,0-.63.12-.63.43,0,.79,2.29.36,2.28,1.92,0,.88-.78,1.28-1.65,1.28a2.66,2.66,0,0,1-1.73-.6l.34-.66a2.34,2.34,0,0,0,1.43.53c.4,0,.71-.13.71-.46,0-.88-2.27-.39-2.26-1.94,0-.87.76-1.24,1.59-1.24A2.75,2.75,0,0,1,371.55,595.86Z"/><path class="cls-3" d="M377.08,599.49a2.11,2.11,0,0,1-1.06.32,1.13,1.13,0,0,1-1.21-1.25v-2.24h-.6v-.69h.6v-1.18h.93v1.18H377v.69h-1.26v2.07c0,.44.17.58.46.58a1.52,1.52,0,0,0,.64-.19Z"/><path class="cls-3" d="M382,597.62a2.25,2.25,0,1,1-2.24-2.19A2.11,2.11,0,0,1,382,597.62Zm-3.56,0a1.32,1.32,0,1,0,1.32-1.39A1.29,1.29,0,0,0,378.41,597.63Z"/><path class="cls-3" d="M386,595v1.52h2.77v.86H386v1.56h3.19v.86h-4.14v-5.66h4V595Z"/><path class="cls-3" d="M394.42,599.77h-.93V599a1.67,1.67,0,0,1-1.51.78,2,2,0,0,1-2.06-2.21,2,2,0,0,1,2-2.17,1.7,1.7,0,0,1,1.53.78v-2.44h.93Zm-.93-2.14a1.32,1.32,0,1,0-1.32,1.4A1.31,1.31,0,0,0,393.49,597.63Z"/><path class="cls-3" d="M399.74,599.77h-.93v-.84a1.58,1.58,0,0,1-1.54.87,1.49,1.49,0,0,1-1.57-1.66v-2.67h.92v2.41a1,1,0,0,0,1,1,1.22,1.22,0,0,0,1.18-1.34v-2.12h.93Z"/><path class="cls-3" d="M404.65,596.14l-.51.6a1.61,1.61,0,0,0-1.23-.49,1.38,1.38,0,0,0,0,2.75,1.61,1.61,0,0,0,1.27-.52l.52.52a2.19,2.19,0,0,1-1.83.8,2.19,2.19,0,0,1,0-4.37A2.29,2.29,0,0,1,404.65,596.14Z"/><path class="cls-3" d="M408.07,599.24a1.75,1.75,0,0,1-1.42.57,1.37,1.37,0,0,1-1.52-1.34c0-.78.59-1.28,1.63-1.29h1.3v-.13c0-.54-.35-.86-1-.86a2.28,2.28,0,0,0-1.27.43l-.38-.64a3.15,3.15,0,0,1,1.86-.55c1.1,0,1.73.57,1.73,1.52v2.82h-.91Zm0-1v-.4H406.9c-.61,0-.89.16-.89.57s.31.64.83.64S408,598.72,408.06,598.26Z"/><path class="cls-3" d="M412.66,599.49a2.11,2.11,0,0,1-1.06.32,1.13,1.13,0,0,1-1.2-1.25v-2.24h-.61v-.69h.61v-1.18h.92v1.18h1.27v.69h-1.27v2.07c0,.44.17.58.46.58a1.52,1.52,0,0,0,.64-.19Z"/><path class="cls-3" d="M414.52,594.24a.55.55,0,1,1-.55-.57A.54.54,0,0,1,414.52,594.24Zm-1,5.53v-4.3h.93v4.3Z"/><path class="cls-3" d="M419.89,597.62a2.24,2.24,0,1,1-2.24-2.19A2.11,2.11,0,0,1,419.89,597.62Zm-3.56,0a1.32,1.32,0,1,0,1.32-1.39A1.3,1.3,0,0,0,416.33,597.63Z"/><path class="cls-3" d="M425,597.09v2.68H424v-2.42a1,1,0,0,0-1-1,1.2,1.2,0,0,0-1.22,1.17v2.29h-.93v-4.3h.93v.82a1.63,1.63,0,0,1,1.58-.86A1.5,1.5,0,0,1,425,597.09Z"/></g></svg>