<svg xmlns="http://www.w3.org/2000/svg" viewBox="0 0 1024 512"><defs><style>.cls-1{fill:#09c;}.cls-2{fill:#f33;}.cls-3{fill:#231f20;}.cls-4,.cls-7{fill:#fff;}.cls-5{fill:gray;}.cls-6{fill:#bfbebe;}.cls-7{stroke:#000;stroke-linecap:round;stroke-linejoin:round;stroke-width:0.04px;}.cls-8{fill:#ec1c24;}.cls-9{fill:#2e3191;}.cls-10{fill:#00a551;}.cls-11{fill:#00ac4d;}</style></defs><title>bced2018_twitter</title><g id="fb_feed" data-name="fb feed"><rect class="cls-1" width="1030.64" height="360.01"/><rect class="cls-2" y="191.83" width="1030.64" height="207.66"/><path class="cls-3" d="M428.94,366.37h-3.77l.59-4.05h3.77l.87-6.58h-3.73l.64-4.05h3.63l1.27-9.08h4.14l-1.28,9.08h4.46l1.27-9.08h4.13l-1.27,9.08h3.91l-.59,4.05h-3.87l-.86,6.58H446l-.59,4.05h-3.81l-1.09,8.49h-4.14l1.14-8.49H433l-1.14,8.49h-4.08Zm9.18-4.05.86-6.58h-4.45l-.91,6.58Z"/><path class="cls-3" d="M451.93,342.61h8.72c5.14,0,8.86,2.95,8.86,8.31a7.62,7.62,0,0,1-3.77,6.91v.09c3.32,1,4.81,4.18,4.81,7.63,0,6.45-4,9.31-9.72,9.31h-8.9Zm8.95,13.22c1.82,0,3-1.82,3-4.23s-1.23-4.09-3.41-4.09h-3v8.32ZM460.74,370c2.91,0,4.14-2,4.14-4.72,0-2.91-1.37-4.82-3.5-4.82h-3.91V370Z"/><path class="cls-3" d="M487.68,342.06a12,12,0,0,1,7.86,2.68l-2.32,4.77a7.86,7.86,0,0,0-5.36-2.22c-5.58,0-8.63,5-8.63,11.17s3.23,11.72,8.54,11.72a9.56,9.56,0,0,0,6-2.36L496,372.5a13,13,0,0,1-8.68,2.91c-8.72,0-13.81-7.18-13.81-16.72S478.78,342.06,487.68,342.06Z"/><path class="cls-3" d="M499.63,342.61H515v4.9h-9.81v8.63h7.91v4.91h-7.91V370h10.36v4.91h-15.9Z"/><path class="cls-3" d="M519.71,342.61h8.95c8,0,13,5.9,13,16.08s-5,16.17-13,16.17h-8.95Zm8.72,27.3c4.73,0,7.5-3.91,7.5-11.22s-2.86-11.13-7.5-11.13h-3.18v22.35Z"/><path class="cls-3" d="M545.38,371.86c0-10.95,11.13-12.44,11.13-20.12,0-2.82-1.55-4.32-3.86-4.32a4.79,4.79,0,0,0-4.09,2.23l-3.77-3.09a10.61,10.61,0,0,1,8.63-4.5c4.81,0,8.86,3.18,8.86,9.09,0,9.76-10.72,12.45-11,18.8h11.4v4.91h-17A16.49,16.49,0,0,1,545.38,371.86Z"/><path class="cls-3" d="M566.64,358.69c0-9.27,1.91-16.63,9.45-16.63s9.36,7.36,9.36,16.63-1.87,16.72-9.36,16.72S566.64,368,566.64,358.69Zm13.17,0c0-6.36-.54-11.36-3.72-11.36s-3.77,5-3.77,11.36.54,11.45,3.77,11.45S579.81,365.14,579.81,358.69Z"/><path class="cls-3" d="M589.63,370.09H595V352c0-1.05.09-2.05.09-2.05H595a7,7,0,0,1-1,1.68l-1.68,2.14L589,350.6l6.58-8h4.77v27.48h5.32v4.77H589.63Z"/><path class="cls-3" d="M613,357.69a9.14,9.14,0,0,1-3.64-7.31c0-4.32,2.55-8.32,8.54-8.32s8.68,3.64,8.68,7.95c0,4-2.59,7.36-3.5,8.5a9.16,9.16,0,0,1,4.13,7.72c0,4.91-3.22,9.18-9.53,9.18s-9.27-4.18-9.27-8.91S611.89,358.55,613,357.69Zm3.58,2.5a7.34,7.34,0,0,0-2.54,5.59c0,2.58,1.23,4.58,3.82,4.58s3.72-1.77,3.72-4C621.56,362.91,618.84,361.55,616.56,360.19Zm2.59-3.95a8.3,8.3,0,0,0,2-5.32c0-2.36-1.09-3.82-3.36-3.82s-3,1.46-3,3.28C614.79,353.56,617.06,355,619.15,356.24Z"/><g id="g2848"><path id="_2" data-name="2" class="cls-4" d="M265.4,48.9,407.2,16.43l38.23,167-141.8,32.47Z"/><path id="_3" data-name="3" class="cls-5" d="M265.4,48.9,237.12,36.47l38.22,166.92,28.29,12.47L265.4,48.9Z"/><path id="_4" data-name="4" class="cls-6" d="M237.12,36.47,378.92,4l28,12.5L265.4,48.9,237.12,36.47Z"/><path id="_5" data-name="5" class="cls-5" d="M265.11,52.25l1.19,5.17,3.44,14L275.06,92l6.82,24.85,8,26.85,8.89,26.6,9.36,24.07,9.56,19.27,7.23-.68,15.92-3.81,21.61-5.92,24.33-7.11,24.1-7.22,20.89-6.41,14.73-4.55,5.57-1.72-1.55-4.67-4.17-12.72-6-18.83-7.2-23.14-7.66-25.47-7.4-25.93-6.42-24.5L407,19.76,265.12,52.25Z"/><path id="_6" data-name="6" class="cls-7" d="M265.45,48.93l1.18,5.16,3.44,14,5.32,20.57,6.83,24.85,8,26.85,8.89,26.6L308.48,191l9.57,19.27,7.23-.68,15.88-3.8,21.55-6,24.35-7.08,24.05-7.25L432,179.17l14.69-4.59,5.57-1.72-1.56-4.67-4.12-12.69-6.06-18.85-7.16-23.11-7.66-25.47-7.4-25.94-6.42-24.49-4.72-21.15L265.45,48.93Z"/><path id="_7" data-name="7" class="cls-5" d="M294.88,60.89l-.19-.65-.27-.62-.33-.58-.41-.55-.44-.51-.55-.44-.53-.37-.6-.31-.63-.26-.68-.17-.67-.09h-.65l-.72,0-.66.15-.65.19-.62.31-.57.33-.55.41-.5.48-.41.5-.4.58-.31.6-.21.65-.14.64-.09.67v.69l.07.64.15.65.23.64.3.62.37.57.4.51.52.49.54.41.57.35.63.27.62.22.68.13.69,0,.65,0,.71-.08.65-.19.63-.22.61-.35.57-.37.51-.44.46-.47.4-.54.35-.61.26-.62.18-.65.13-.64,0-.7,0-.64-.11-.67Z"/><path id="_8" data-name="8" class="cls-5" d="M398.91,37.07l.11.67,0,.68,0,.7-.14.64-.16.69-.31.59-.31.6-.45.55-.45.51-.54.45-.58.33-.62.31-.62.26-.66.15-.71.08h-.65l-.71-.08-.65-.18-.67-.25-.59-.31-.57-.36-.51-.45-.48-.5-.41-.55-.34-.61-.27-.63-.19-.65-.11-.66,0-.68,0-.7.13-.68.21-.66.26-.63.36-.56.39-.58.5-.48.51-.44.56-.37.62-.31.64-.23.7-.16.67-.07h.69l.67.09.65.17.66.22.59.31.58.39.55.44.44.51.41.56.33.57.27.63.2.68Z"/><path id="_9" data-name="9" class="cls-5" d="M273.88,91.26,305.81,216l1.83.72-31.47-122-2.29-3.41Z"/><path id="_10" data-name="10" class="cls-5" d="M273.82,92.57,309.71,216.2l1.79.73L276.67,95.82l-2.85-3.25Z"/><path class="cls-1" d="M340.24,171c-.26-.42-.49-.8-.72-1.15l-.62-1-.58-.89c-.18-.28-.37-.57-.57-.86s-.38-.6-.59-.91l-.67-1-1.18-1.79q-.3-.47-.54-.78c-.17-.21-.33-.41-.49-.58l-.42-.5a1.55,1.55,0,0,1-.25-.39.31.31,0,0,1,0-.28.43.43,0,0,1,.28-.17,1.36,1.36,0,0,1,.59,0,1.58,1.58,0,0,1,.49.17,1.66,1.66,0,0,1,.4.31c.13.12.25.25.38.39A1.58,1.58,0,0,1,336,161a2.73,2.73,0,0,1,.48-.41,4.42,4.42,0,0,1,.6-.34,4.88,4.88,0,0,1,.64-.23,2.61,2.61,0,0,1,1.08,0,4,4,0,0,1,1.1.32,5.83,5.83,0,0,1,1,.62,6.16,6.16,0,0,1,.88.8,4.25,4.25,0,0,1,.7,1,3.4,3.4,0,0,1,.31,1,3,3,0,0,1,0,.89,3.25,3.25,0,0,1-.25.82,4.62,4.62,0,0,1-.42.75,6.81,6.81,0,0,1-.53.65,2.41,2.41,0,0,1-.4.33,1.56,1.56,0,0,1-.42.19,3.19,3.19,0,0,1-.64.09,3.4,3.4,0,0,1-.74-.08c.2.36.41.7.61,1l.57.85.32.48.33.5.29.46c.09.15.17.27.24.37a.23.23,0,0,1,0,.18.48.48,0,0,1-.11.15.57.57,0,0,1-.18.12l-.2.08a.86.86,0,0,1-.92-.29A1.74,1.74,0,0,1,340.24,171Zm-1.55-4.84.27,0,.28,0h.36a1,1,0,0,0,.28-.12,2.4,2.4,0,0,0,.26-.18,2.13,2.13,0,0,0,.21-.22l.17-.21a4,4,0,0,0,.36-.65,2.57,2.57,0,0,0,.22-.79A2.44,2.44,0,0,0,341,163a2.85,2.85,0,0,0-.6-1,2.72,2.72,0,0,0-.39-.37,2.2,2.2,0,0,0-.43-.27,1.91,1.91,0,0,0-.45-.13,1,1,0,0,0-.46,0,2.25,2.25,0,0,0-.44.16,1.27,1.27,0,0,0-.33.22,1.08,1.08,0,0,0-.26.3,2.36,2.36,0,0,0-.19.39,1.17,1.17,0,0,1-.19.41.93.93,0,0,1-.41.31Z"/><path class="cls-1" d="M346.34,165.06l-.8-1.18c-.28-.44-.57-.88-.86-1.32l-.85-1.3c-.28-.43-.54-.82-.79-1.17l-.12-.13-.11-.12-.38-.46-.29-.44a.91.91,0,0,1-.16-.43c0-.08.08-.14.23-.18a.82.82,0,0,1,.41,0,1.59,1.59,0,0,1,.4.18,2,2,0,0,1,.38.29l.36.36.19.23.17.2c0-.18,0-.36.05-.55a1.86,1.86,0,0,1,.12-.53,1.57,1.57,0,0,1,.28-.44,1.06,1.06,0,0,1,.5-.28l.26,0a1.5,1.5,0,0,1,.3,0,1.76,1.76,0,0,1,.39,0,2.18,2.18,0,0,1,.46.09,3.55,3.55,0,0,1,.81.35,2.59,2.59,0,0,1,.67.52,1.21,1.21,0,0,1,.17.25,1.61,1.61,0,0,1,.09.26.57.57,0,0,1,0,.23.29.29,0,0,1-.17.13,1.31,1.31,0,0,1-.36,0,2.14,2.14,0,0,1-.44-.08l-.22-.1-.24-.14-.22-.12-.15-.08h-.09l-.08,0a.81.81,0,0,0-.54.38,1.57,1.57,0,0,0-.21.63,3.45,3.45,0,0,0,0,.72c0,.26,0,.48.08.68q.39.63.81,1.35t.9,1.5l.16.18c.14.15.26.3.39.45a1.5,1.5,0,0,1,.27.43.27.27,0,0,1-.06.24.41.41,0,0,1-.28.17.89.89,0,0,1-.63-.08,1.79,1.79,0,0,1-.58-.43A1.2,1.2,0,0,1,346.34,165.06Z"/><path class="cls-1" d="M347.11,154.75a1.86,1.86,0,0,1-.2-.4.64.64,0,0,1,0-.49.58.58,0,0,1,.17-.19.47.47,0,0,1,.19-.12.35.35,0,0,1,.2,0l.23.07.28.13a.5.5,0,0,1,.36.07,1.22,1.22,0,0,1,.3.26,1.46,1.46,0,0,1,.17.22l.1.16a.59.59,0,0,1,.09.33.75.75,0,0,1-.09.3.76.76,0,0,1-.21.23.71.71,0,0,1-.26.13.65.65,0,0,1-.31,0,2.81,2.81,0,0,1-.45-.19,1.46,1.46,0,0,1-.25-.15l-.1-.1-.12-.15A.57.57,0,0,1,347.11,154.75Zm4.89,8.09c-.18-.3-.39-.65-.62-1.06l-.75-1.28-.81-1.38c-.27-.47-.55-.92-.82-1.37l0-.11a.48.48,0,0,1,0-.17.54.54,0,0,1,.1-.18.45.45,0,0,1,.24-.12.8.8,0,0,1,.27,0,1.23,1.23,0,0,1,.27,0,.88.88,0,0,1,.27.1.66.66,0,0,1,.23.18l0,0a.1.1,0,0,1,0,.05l.49.83,1.65,2.8c.55.93,1.1,1.87,1.67,2.81l0,.12a.75.75,0,0,1,0,.16.22.22,0,0,1,0,.14.19.19,0,0,1-.13.09,1.12,1.12,0,0,1-.41,0,2.25,2.25,0,0,1-.42-.13,1.79,1.79,0,0,1-.38-.22,1.45,1.45,0,0,1-.29-.25l-.06-.06,0-.07Z"/><path class="cls-1" d="M354.55,160.36a5.58,5.58,0,0,1-.51-1,5.18,5.18,0,0,1-.31-1.17,4.68,4.68,0,0,1,0-1.24,3.88,3.88,0,0,1,.39-1.24.91.91,0,0,1,.2-.23,1.22,1.22,0,0,1,.39-.21c0-.26.17-.43.49-.51a2.22,2.22,0,0,1,1.22,0,5.67,5.67,0,0,1,1.35.61l.43.28.41.3c.13.1.27.22.4.34s.28.28.43.44a6.78,6.78,0,0,1,.88,1.23,6.54,6.54,0,0,1,.53,1.31,5,5,0,0,1,.17,1.31,3.72,3.72,0,0,1-.22,1.22,1.58,1.58,0,0,1-.47.68,2.37,2.37,0,0,1-.93.44,3.45,3.45,0,0,1-1.1.1,3.63,3.63,0,0,1-1.07-.25,4.22,4.22,0,0,1-1-.56,5.84,5.84,0,0,1-.91-.83A7.26,7.26,0,0,1,354.55,160.36Zm1.29-.22a2.75,2.75,0,0,0,.23.33c.07.1.16.2.24.3a3.72,3.72,0,0,0,.46.43,2.37,2.37,0,0,0,.53.31,2.12,2.12,0,0,0,.55.14,1.65,1.65,0,0,0,.58-.05,1.19,1.19,0,0,0,.78-.55,1.88,1.88,0,0,0,.22-.93,3.54,3.54,0,0,0-.2-1.08,4.51,4.51,0,0,0-.45-1l-.32-.52a2.88,2.88,0,0,0-.33-.43,2,2,0,0,0-.38-.33l-.51-.33-.37-.22-.35-.24a.88.88,0,0,1,0,.21.24.24,0,0,1-.07.19.79.79,0,0,1-.25.21,3,3,0,0,1-.51.25.85.85,0,0,0-.27.37,2.06,2.06,0,0,0-.13.53,3.07,3.07,0,0,0,0,.61,4.92,4.92,0,0,0,.09.64,6.36,6.36,0,0,0,.19.62A3.71,3.71,0,0,0,355.84,160.14Z"/><path class="cls-1" d="M364.35,160.31c-.25-.35-.51-.75-.79-1.18s-.58-.87-.87-1.32-.57-.87-.85-1.3-.54-.82-.79-1.17l-.12-.13-.11-.12c-.13-.15-.26-.31-.37-.46a4.33,4.33,0,0,1-.3-.44,1,1,0,0,1-.16-.43c0-.08.08-.14.23-.18a.72.72,0,0,1,.41,0,1.27,1.27,0,0,1,.4.17,2.12,2.12,0,0,1,.38.29c.13.12.24.24.36.37a2.33,2.33,0,0,1,.19.23l.18.2a5.46,5.46,0,0,1,0-.56,2.4,2.4,0,0,1,.12-.53,1.4,1.4,0,0,1,.29-.44.94.94,0,0,1,.49-.27l.26,0h.3a2.68,2.68,0,0,1,.39,0,2.07,2.07,0,0,1,.46.09,4,4,0,0,1,.81.35,2.64,2.64,0,0,1,.67.52,1.56,1.56,0,0,1,.17.25.72.72,0,0,1,.09.27.53.53,0,0,1,0,.22.24.24,0,0,1-.17.13,1.19,1.19,0,0,1-.35,0,1.63,1.63,0,0,1-.45-.09,1,1,0,0,1-.21-.1l-.25-.13-.22-.13-.15-.08h-.09l-.08,0a.84.84,0,0,0-.54.38,1.61,1.61,0,0,0-.2.63,3,3,0,0,0,0,.73c0,.25,0,.47.08.67q.39.63.81,1.35t.9,1.5l.17.18.38.45a2.07,2.07,0,0,1,.28.43.33.33,0,0,1-.07.25.45.45,0,0,1-.27.16.86.86,0,0,1-.64-.08,1.76,1.76,0,0,1-.58-.43A1.31,1.31,0,0,1,364.35,160.31Z"/><path class="cls-1" d="M365.12,150a3.15,3.15,0,0,1-.2-.41.64.64,0,0,1,0-.49,1,1,0,0,1,.17-.19.49.49,0,0,1,.2-.12.43.43,0,0,1,.19,0l.23.08a1.78,1.78,0,0,1,.29.12.47.47,0,0,1,.35.07,1.54,1.54,0,0,1,.31.27l.16.21.11.17a.56.56,0,0,1,.08.32.62.62,0,0,1-.09.3.87.87,0,0,1-.2.23.9.9,0,0,1-.26.13.66.66,0,0,1-.31,0,2.49,2.49,0,0,1-.46-.19,1,1,0,0,1-.24-.15l-.11-.1a.79.79,0,0,1-.12-.15ZM370,158.1c-.18-.31-.38-.66-.62-1.06s-.48-.83-.75-1.28l-.8-1.38c-.28-.48-.56-.93-.83-1.37a.68.68,0,0,1,0-.12.25.25,0,0,1,0-.17.32.32,0,0,1,.09-.17.45.45,0,0,1,.25-.13,1.09,1.09,0,0,1,.26,0,1.37,1.37,0,0,1,.28,0,.82.82,0,0,1,.26.1.84.84,0,0,1,.23.18l0,0,0,.05.49.83,1.65,2.8c.55.94,1.1,1.87,1.67,2.81l.05.12a.75.75,0,0,1,0,.16.22.22,0,0,1,0,.14.24.24,0,0,1-.14.09.9.9,0,0,1-.4,0,1.64,1.64,0,0,1-.43-.13,2.82,2.82,0,0,1-.38-.21,2.63,2.63,0,0,1-.29-.25l-.06-.07a.43.43,0,0,1,0-.07Z"/><path class="cls-1" d="M374,155.89a10.65,10.65,0,0,1-1-1.32c-.31-.47-.59-.92-.85-1.35a2,2,0,0,1-.44,0,2.59,2.59,0,0,1-.48,0,1.9,1.9,0,0,1-.46-.15,1.26,1.26,0,0,1-.37-.27.83.83,0,0,1-.12-.17,1.09,1.09,0,0,1-.09-.23.3.3,0,0,1,0-.21.16.16,0,0,1,.13-.12l1-.25c.09,0,.12-.08.08-.18s-.08-.17-.13-.25c-.2-.3-.36-.57-.49-.79l-.33-.56-.22-.38a1.14,1.14,0,0,0-.16-.22l-.17-.19a2.84,2.84,0,0,1-.23-.24l-.06-.07-.13-.16a1.38,1.38,0,0,1-.17-.29.56.56,0,0,1-.08-.3c0-.11.08-.18.23-.22a.94.94,0,0,1,.41,0,1.56,1.56,0,0,1,.41.15,2.57,2.57,0,0,1,.41.26,3.58,3.58,0,0,1,.34.33,2.21,2.21,0,0,1,.26.34l1.31,2.19.58-.31.51-.27.47-.28.33-.21.23-.14a.67.67,0,0,1,.18-.08l.25,0a1.2,1.2,0,0,1,.27,0,.79.79,0,0,1,.26.08.92.92,0,0,1,.25.2.9.9,0,0,1,.21.33.47.47,0,0,1,0,.28.48.48,0,0,1-.1.23.62.62,0,0,1-.2.16l-.24.15-.32.2-.37.24-.36.24-.44.29-.32.2a1.56,1.56,0,0,1-.24.11l-.15.06c.15.31.32.6.49.89s.34.55.5.79.32.47.46.65.26.34.35.44a4.31,4.31,0,0,0,.37.37,2.49,2.49,0,0,0,.41.28,1.5,1.5,0,0,0,.42.15,1.09,1.09,0,0,0,.44,0,.85.85,0,0,0,.57-.41,1.84,1.84,0,0,0,.23-.73,4.31,4.31,0,0,0,0-.88c0-.31-.07-.61-.11-.89a.15.15,0,0,1,.11-.19h.12a.52.52,0,0,1,.17,0,.67.67,0,0,1,.18.07.52.52,0,0,1,.17.13l.07.09a4.79,4.79,0,0,1,.45,1q.17.51.33,1a1.14,1.14,0,0,1,.05.37,2.33,2.33,0,0,1,0,.38,3.07,3.07,0,0,1-.11.36c0,.12-.09.23-.13.33a1,1,0,0,1-.39.4,2.27,2.27,0,0,1-.58.23,2.52,2.52,0,0,1-1,0,3.65,3.65,0,0,1-1-.31,5.21,5.21,0,0,1-1-.59A6.2,6.2,0,0,1,374,155.89Z"/><path class="cls-1" d="M376.77,146.94a3.09,3.09,0,0,1-.21-.41.75.75,0,0,1,0-.49.79.79,0,0,1,.18-.19.47.47,0,0,1,.19-.12.47.47,0,0,1,.2,0l.23.08a1.69,1.69,0,0,1,.28.12.5.5,0,0,1,.36.07,1.5,1.5,0,0,1,.3.27,1.42,1.42,0,0,1,.17.21l.1.17a.68.68,0,0,1,.09.32.75.75,0,0,1-.09.3.76.76,0,0,1-.21.23.71.71,0,0,1-.26.13.65.65,0,0,1-.31,0,2.09,2.09,0,0,1-.45-.19,1.46,1.46,0,0,1-.25-.15.93.93,0,0,1-.1-.1.79.79,0,0,1-.12-.15Zm4.89,8.09L381,154l-.75-1.28-.81-1.38c-.28-.47-.55-.93-.82-1.37,0,0,0-.06,0-.12a.48.48,0,0,1,0-.17.33.33,0,0,1,.1-.17.46.46,0,0,1,.24-.13,1.1,1.1,0,0,1,.27,0,1.23,1.23,0,0,1,.27,0,1,1,0,0,1,.27.1,1,1,0,0,1,.23.18l0,0,0,.05.49.83,1.65,2.8c.54.94,1.1,1.87,1.66,2.81l.06.12a.75.75,0,0,1,0,.16.32.32,0,0,1,0,.14.22.22,0,0,1-.13.09.94.94,0,0,1-.41,0,1.69,1.69,0,0,1-.42-.13,2,2,0,0,1-.38-.21,2.63,2.63,0,0,1-.29-.25l-.06-.07a.16.16,0,0,1,0-.07Z"/><path class="cls-1" d="M385.38,154.77a1,1,0,0,1-.13-.37,1.7,1.7,0,0,1,0-.39,2,2,0,0,1,.05-.36,2.56,2.56,0,0,1,.07-.27q0-.42.12-1c0-.37.09-.76.12-1.17s.06-.79.08-1.18,0-.74,0-1l-.51.15-.59.17-.55.17-.39.11a1.08,1.08,0,0,1-.32,0,1.06,1.06,0,0,1-.34-.06,2,2,0,0,1-.36-.17,1.53,1.53,0,0,1-.34-.3.7.7,0,0,1-.19-.36.23.23,0,0,1,.11-.26l.28,0,.27-.07a5.92,5.92,0,0,0,.87-.29l.87-.38.83-.37a4.84,4.84,0,0,1,.78-.27.93.93,0,0,1,.27,0l.25,0a1.4,1.4,0,0,1,.27.11,2.94,2.94,0,0,1,.34.18.48.48,0,0,1,.13.09l.08.07a.84.84,0,0,1,.2.33.81.81,0,0,1,.05.35.34.34,0,0,0-.12.18,3.78,3.78,0,0,0-.12.36c0,.14-.07.29-.09.46s-.06.33-.08.49,0,.31-.06.44,0,.25,0,.33v.09c0,.08,0,.22,0,.4s0,.39-.06.63,0,.48-.05.74,0,.51,0,.76,0,.46,0,.66,0,.36,0,.47H387l.12,0a2.5,2.5,0,0,0,.47-.18c.16-.09.33-.17.49-.24l1.73-.8a.74.74,0,0,1,.2-.2l.29-.2.17-.11a1.15,1.15,0,0,0,.2-.15l.12-.12a.28.28,0,0,1,.1-.09.36.36,0,0,1,.15-.06.61.61,0,0,1,.3,0,.86.86,0,0,1,.29.11,2,2,0,0,1,.29.19l.32.26a1.11,1.11,0,0,1,.13.27.77.77,0,0,1,0,.25.42.42,0,0,1-.05.2.28.28,0,0,1-.16.12.6.6,0,0,1-.19,0l-.3.17-.55.29-.85.45-1.21.63-.26.12-.41.17-.42.16-.28.1a2.85,2.85,0,0,1-1.13,0,2,2,0,0,1-.61-.19,1.52,1.52,0,0,1-.5-.37A.93.93,0,0,1,385.38,154.77Z"/><path class="cls-1" d="M391.57,150.57a1.14,1.14,0,0,1-.31-.58.39.39,0,0,1,.18-.4c0-.13-.09-.29-.14-.51a6.35,6.35,0,0,1-.12-.7,5.31,5.31,0,0,1,0-.8,2.94,2.94,0,0,1,.17-.78,1.89,1.89,0,0,1,.43-.65,1.81,1.81,0,0,1,.79-.42,3,3,0,0,1,.83-.09,2.51,2.51,0,0,1,.77.15,3.09,3.09,0,0,1,.7.36,3.6,3.6,0,0,1,.59.51,3,3,0,0,1,.36.5,1.54,1.54,0,0,1,.26.82,1.46,1.46,0,0,1-.17.71,2,2,0,0,1-.47.6,5.26,5.26,0,0,1-.65.49,6.94,6.94,0,0,1-.71.38l-.63.27a2.14,2.14,0,0,0,.19.36,3.91,3.91,0,0,0,.3.41,1.92,1.92,0,0,0,.93.57,2.17,2.17,0,0,0,1.13,0,1.87,1.87,0,0,0,.59-.25,2.44,2.44,0,0,0,.42-.35,3.43,3.43,0,0,0,.29-.41c.08-.14.14-.27.2-.4a2.18,2.18,0,0,1,.23-.43.57.57,0,0,1,.31-.23.43.43,0,0,1,.32,0,1,1,0,0,1,.22.18l.1.12.07.09a1.62,1.62,0,0,1,.2.42.78.78,0,0,1,0,.4,2.34,2.34,0,0,1-.78,1.27,3.88,3.88,0,0,1-1.47.71,3.53,3.53,0,0,1-.44.08,3.32,3.32,0,0,1-.57,0A3.16,3.16,0,0,1,395,153a3.24,3.24,0,0,1-.74-.22,3.86,3.86,0,0,1-.76-.42,4.1,4.1,0,0,1-.77-.7,5.63,5.63,0,0,1-.6-.79.54.54,0,0,1-.26,0A.81.81,0,0,1,391.57,150.57Zm2.75-3.23-.05-.07-.06-.06a.76.76,0,0,0-.41-.26.83.83,0,0,0-.44,0,.84.84,0,0,0-.48.33,1.54,1.54,0,0,0-.2.58,2.5,2.5,0,0,0,0,.67,3.23,3.23,0,0,0,.14.61,4.28,4.28,0,0,0,.83-.4,1.92,1.92,0,0,0,.54-.45.88.88,0,0,0,.22-.47A.71.71,0,0,0,394.32,147.34Z"/><path class="cls-1" d="M331.63,192.53c-.25-.42-.49-.81-.71-1.15l-.63-1c-.2-.31-.39-.61-.58-.89s-.37-.58-.56-.87l-.6-.9-.67-1-1.17-1.8c-.2-.3-.39-.56-.55-.77l-.48-.59c-.17-.18-.31-.35-.43-.49a1.9,1.9,0,0,1-.25-.39.31.31,0,0,1,0-.28.43.43,0,0,1,.28-.17,1.4,1.4,0,0,1,.6,0,1.6,1.6,0,0,1,.48.16,2.94,2.94,0,0,1,.41.31c.12.13.25.26.37.4a1.34,1.34,0,0,1,.3-.47,2.49,2.49,0,0,1,.48-.42,4.75,4.75,0,0,1,.59-.33,3.77,3.77,0,0,1,.64-.23,2.61,2.61,0,0,1,1.08-.05,4,4,0,0,1,1.11.32,6.11,6.11,0,0,1,1.91,1.42,4.25,4.25,0,0,1,.7,1,3.3,3.3,0,0,1,.31.95,2.66,2.66,0,0,1,0,.89,2.89,2.89,0,0,1-.25.82,3.62,3.62,0,0,1-.42.74,5.76,5.76,0,0,1-.53.65,1.81,1.81,0,0,1-.4.34,1.56,1.56,0,0,1-.42.19,3.19,3.19,0,0,1-.64.09,4,4,0,0,1-.73-.08c.2.36.4.69.6,1s.4.6.57.84l.33.49.32.5.29.46.24.37a.19.19,0,0,1,0,.18.36.36,0,0,1-.11.15.57.57,0,0,1-.18.12,1,1,0,0,1-.2.07.85.85,0,0,1-.92-.28A1.74,1.74,0,0,1,331.63,192.53Zm-1.55-4.85.27,0,.28,0H331a1.59,1.59,0,0,0,.27-.12,2.48,2.48,0,0,0,.26-.19l.22-.21.16-.21a4,4,0,0,0,.36-.65,2.32,2.32,0,0,0,.22-.79,2.25,2.25,0,0,0-.11-.91,2.76,2.76,0,0,0-.6-1,2.72,2.72,0,0,0-.39-.37,2.2,2.2,0,0,0-.43-.27,1.94,1.94,0,0,0-.45-.14,1.18,1.18,0,0,0-.46,0,1.75,1.75,0,0,0-.44.16,1.36,1.36,0,0,0-.59.51,3.54,3.54,0,0,0-.19.39,1.14,1.14,0,0,1-.19.42,1,1,0,0,1-.41.31Z"/><path class="cls-1" d="M333.68,180.57a.57.57,0,0,1-.09-.22.34.34,0,0,1,0-.17.23.23,0,0,1,.05-.1s0,0,.06,0a.58.58,0,0,1,.21,0l.24,0h.26a.57.57,0,0,1,.41.08,1.38,1.38,0,0,1,.4.33,1.9,1.9,0,0,1,.23.31c.38.66.7,1.23,1,1.72l.69,1.24.48.84a3.53,3.53,0,0,0,.33.47c.09.1.21.21.35.34a5,5,0,0,0,.44.32,2.33,2.33,0,0,0,.45.22.67.67,0,0,0,.39,0,.65.65,0,0,0,.45-.35,1.55,1.55,0,0,0,.18-.63,2.9,2.9,0,0,0,0-.72,4.75,4.75,0,0,0-.12-.65l-.11-.38a4.26,4.26,0,0,0-.31-.79c-.13-.29-.29-.59-.45-.87s-.33-.56-.49-.81l-.38-.61-.69-1a.66.66,0,0,1-.16-.43c0-.09.12-.16.31-.21a1.12,1.12,0,0,1,.36-.05,1.08,1.08,0,0,1,.38.08,1.8,1.8,0,0,1,.39.23,3.5,3.5,0,0,1,.45.43,6.64,6.64,0,0,1,.6.8c.2.32.41.65.6,1l.39.61c.13.21.27.43.42.64s.29.41.43.6.28.36.41.51.45.49.69.74.49.5.74.78l.29.34a2,2,0,0,1,.16.23,1.1,1.1,0,0,1,.18.48c0,.12-.11.2-.31.25a1.37,1.37,0,0,1-.38,0,1.57,1.57,0,0,1-.31-.08,1.07,1.07,0,0,1-.25-.16l-.21-.19-1.32-1.37-.05,0c0,.25.06.53.1.83a4.33,4.33,0,0,1,0,.88,1.85,1.85,0,0,1-.25.75,1.09,1.09,0,0,1-.68.45,1.15,1.15,0,0,1-.29,0l-.42,0a3.58,3.58,0,0,1-.45-.09,2.66,2.66,0,0,1-.39-.11,5.5,5.5,0,0,1-1.32-.69,6.47,6.47,0,0,1-1-.91,5.58,5.58,0,0,1-.44-.55c-.14-.19-.26-.38-.37-.55l-.3-.51-.24-.43c-.24-.39-.45-.74-.62-1s-.33-.56-.47-.78-.24-.42-.34-.58S333.76,180.69,333.68,180.57Z"/><path class="cls-1" d="M344.78,182.74c-.26-.42-.53-.88-.82-1.38s-.59-1-.89-1.53-.6-1-.89-1.56-.58-1-.85-1.45-.51-.87-.74-1.23-.42-.65-.58-.87l-.45-.62s-.05-.1-.09-.15a.61.61,0,0,1-.05-.18.26.26,0,0,1,0-.15.24.24,0,0,1,.16-.11,1.2,1.2,0,0,1,.46,0,1.4,1.4,0,0,1,.43.16,1.82,1.82,0,0,1,.41.27,3.06,3.06,0,0,1,.36.36c.12.13.22.26.32.39l.25.37c.44.71.86,1.43,1.26,2.17s.83,1.47,1.28,2.2a3.82,3.82,0,0,1,.15-.67,2.57,2.57,0,0,1,.31-.62,1.82,1.82,0,0,1,.47-.49,2,2,0,0,1,.66-.31,2.13,2.13,0,0,1,.79-.06,2.56,2.56,0,0,1,.77.19,3.14,3.14,0,0,1,.71.4,4.34,4.34,0,0,1,.63.58l.27.32.23.34a5.71,5.71,0,0,1,.68,1.5,4.33,4.33,0,0,1,.18,1.28A3.16,3.16,0,0,1,350,183a4.62,4.62,0,0,1-.45.92,1.85,1.85,0,0,1-.41.46,1.38,1.38,0,0,1-.53.26,1.24,1.24,0,0,1-.52.06,1.49,1.49,0,0,1-.44-.11.8.8,0,0,1,0,.18.37.37,0,0,1,0,.18.35.35,0,0,1-.08.16.39.39,0,0,1-.2.11,1.21,1.21,0,0,1-.78-.05,2,2,0,0,1-.67-.52,1.71,1.71,0,0,1-.21-.26,1.92,1.92,0,0,1-.17-.26Zm2-4.2a1.16,1.16,0,0,0-.59.37,3,3,0,0,0-.42.65,5.4,5.4,0,0,0-.29.76c-.07.27-.14.51-.19.71l.34.63.34.61c.11.2.24.41.37.62a7.86,7.86,0,0,0,.45.67l.21.3.16.12a.85.85,0,0,1,.17-.2,1.22,1.22,0,0,1,.17-.15l.19-.13a1.12,1.12,0,0,0,.2-.18,2.77,2.77,0,0,0,.81-1.75,3.67,3.67,0,0,0-.65-2.19l-.2-.3a1.54,1.54,0,0,0-.18-.23,1,1,0,0,0-.41-.3A.71.71,0,0,0,346.74,178.54Z"/><path class="cls-1" d="M347.72,172.52a4.57,4.57,0,0,1-.37-.58,1.14,1.14,0,0,1-.16-.47.22.22,0,0,1,.2-.25,1.26,1.26,0,0,1,.3,0,2.52,2.52,0,0,1,.37.05,1.79,1.79,0,0,1,.39.13,1,1,0,0,1,.3.22.71.71,0,0,1,.1.14.86.86,0,0,0,.1.16l4.75,7.83c.19.31.38.61.57.89s.35.5.48.68l.16.18c.13.14.26.31.4.49a2.66,2.66,0,0,1,.32.51,1,1,0,0,1,.12.43c0,.13-.09.21-.24.25a.94.94,0,0,1-.41,0,1.76,1.76,0,0,1-.44-.15,2.55,2.55,0,0,1-.39-.24,2.8,2.8,0,0,1-.3-.28,2.94,2.94,0,0,1-.23-.29l-.27-.37-.27-.4c-.08-.13-.16-.24-.21-.34l-4.85-8Z"/><path class="cls-1" d="M352.14,172.74c-.06-.11-.13-.25-.2-.41a.64.64,0,0,1,0-.49.79.79,0,0,1,.18-.19.47.47,0,0,1,.19-.12.42.42,0,0,1,.19,0l.24.08.28.12a.47.47,0,0,1,.35.07,1.86,1.86,0,0,1,.31.26c.07.08.12.16.17.22a1.94,1.94,0,0,0,.1.17.55.55,0,0,1,.08.32.61.61,0,0,1-.08.3,1.15,1.15,0,0,1-.21.23.79.79,0,0,1-.26.13.66.66,0,0,1-.31,0,2.49,2.49,0,0,1-.46-.19,1.28,1.28,0,0,1-.24-.15l-.11-.1a.72.72,0,0,1-.11-.15Zm4.9,8.09-.63-1.06c-.23-.41-.48-.83-.74-1.28s-.54-.91-.81-1.39l-.82-1.36a.28.28,0,0,1,0-.12.48.48,0,0,1,0-.17.32.32,0,0,1,.09-.17.49.49,0,0,1,.25-.13,1.09,1.09,0,0,1,.26,0,1.32,1.32,0,0,1,.28,0,1,1,0,0,1,.27.1,1,1,0,0,1,.22.18l.05.05,0,0,.49.83,1.65,2.8c.55.94,1.11,1.87,1.67,2.81a.73.73,0,0,1,.05.12.42.42,0,0,1,0,.16.22.22,0,0,1,0,.14.24.24,0,0,1-.14.09.89.89,0,0,1-.4,0,1.47,1.47,0,0,1-.42-.13,1.75,1.75,0,0,1-.67-.46l-.06-.07a.18.18,0,0,1-.05-.07Z"/><path class="cls-1" d="M359.48,178.3a8.64,8.64,0,0,1-.65-1.29,7.3,7.3,0,0,1-.4-1.37,4.77,4.77,0,0,1-.08-1.29,2.28,2.28,0,0,1,.37-1.08A.75.75,0,0,1,359,173a1.33,1.33,0,0,1,.42-.18,2.65,2.65,0,0,1,.48-.07,1.6,1.6,0,0,1,.49.05,1.75,1.75,0,0,1,.47.2,2,2,0,0,1,.45.38,1.9,1.9,0,0,1,.26.37,1,1,0,0,1,.14.36.44.44,0,0,1-.05.3.46.46,0,0,1-.28.18,1,1,0,0,1-.35,0l-.37-.07-.19,0-.2,0a1.37,1.37,0,0,0-.24.5,2.36,2.36,0,0,0,0,.6,4.3,4.3,0,0,0,.1.68c.06.23.12.46.2.69a5.3,5.3,0,0,0,.28.65c.1.21.2.41.3.58a3.63,3.63,0,0,0,.27.42,3,3,0,0,0,.35.45,3.44,3.44,0,0,0,.27.27,1.37,1.37,0,0,0,.3.21,1.15,1.15,0,0,0,.32.12.92.92,0,0,0,.33,0,1.78,1.78,0,0,0,.44-.2,1.66,1.66,0,0,0,.34-.3,1.83,1.83,0,0,0,.26-.36l.2-.4a2.72,2.72,0,0,0,.11-.25,2.68,2.68,0,0,1,.12-.24.81.81,0,0,1,.12-.18.33.33,0,0,1,.14-.1.53.53,0,0,1,.25,0,.54.54,0,0,1,.27.16,1.28,1.28,0,0,1,.14.23,1.87,1.87,0,0,1,.19.58,2.06,2.06,0,0,1,0,.51,1.55,1.55,0,0,1-.17.44,3.77,3.77,0,0,1-.26.39,2.11,2.11,0,0,1-.59.6,2.31,2.31,0,0,1-.67.33,1.3,1.3,0,0,1-.26,0,1.4,1.4,0,0,1-.29,0,4.15,4.15,0,0,1-1.48-.47,4.65,4.65,0,0,1-1.19-.95c-.15-.17-.3-.36-.44-.55S359.61,178.52,359.48,178.3Z"/><path class="cls-1" d="M370.4,175.46a1.07,1.07,0,0,1-.31-.58.42.42,0,0,1,.18-.41c0-.12-.09-.29-.14-.5a6.15,6.15,0,0,1-.12-.71,5.15,5.15,0,0,1,0-.79,2.78,2.78,0,0,1,.17-.78,1.89,1.89,0,0,1,.43-.65,1.81,1.81,0,0,1,.79-.42,3,3,0,0,1,.83-.09,2.51,2.51,0,0,1,.77.15,3,3,0,0,1,.69.35,4.31,4.31,0,0,1,.6.52,3.9,3.9,0,0,1,.36.5,1.63,1.63,0,0,1,.26.82,1.58,1.58,0,0,1-.17.71,2,2,0,0,1-.47.6,5.26,5.26,0,0,1-.65.49,6.94,6.94,0,0,1-.71.38l-.63.27a2.14,2.14,0,0,0,.19.36,3.91,3.91,0,0,0,.3.41,1.88,1.88,0,0,0,.93.57,2.17,2.17,0,0,0,1.13,0,2.28,2.28,0,0,0,.59-.25,2.07,2.07,0,0,0,.41-.36,2.2,2.2,0,0,0,.3-.4,2.87,2.87,0,0,0,.19-.4,2.86,2.86,0,0,1,.24-.43.53.53,0,0,1,.31-.23.4.4,0,0,1,.31,0,.84.84,0,0,1,.23.18l.1.12.07.09a1.33,1.33,0,0,1,.19.42.79.79,0,0,1,0,.4,2.35,2.35,0,0,1-.79,1.27,3.74,3.74,0,0,1-1.47.71l-.43.08a3.32,3.32,0,0,1-.57,0,4.06,4.06,0,0,1-.67-.06,3.06,3.06,0,0,1-.74-.21,3.86,3.86,0,0,1-.76-.42,4.1,4.1,0,0,1-.77-.7,5.63,5.63,0,0,1-.6-.79.54.54,0,0,1-.26-.05A.81.81,0,0,1,370.4,175.46Zm2.74-3.23a.16.16,0,0,0,0-.07l-.06-.07a.85.85,0,0,0-.41-.25.83.83,0,0,0-.44,0,.84.84,0,0,0-.48.33,1.54,1.54,0,0,0-.2.58,2.15,2.15,0,0,0,0,.67,3.23,3.23,0,0,0,.14.61,4.28,4.28,0,0,0,.83-.4,2.08,2.08,0,0,0,.54-.45.88.88,0,0,0,.22-.47A.72.72,0,0,0,373.14,172.23Z"/><path class="cls-1" d="M378.08,173.83a6.5,6.5,0,0,1-.46-.86,4.85,4.85,0,0,1-.31-.88,4.08,4.08,0,0,1-.13-.91,3.65,3.65,0,0,1,.34-1.51,2.44,2.44,0,0,1,.33-.54,2.24,2.24,0,0,1,.45-.42,2,2,0,0,1,.59-.27,2.57,2.57,0,0,1,.46-.07,2.4,2.4,0,0,1,.46,0c-.11-.18-.39-.68-.85-1.48s-1.13-1.91-2-3.33a.71.71,0,0,1-.07-.39.28.28,0,0,1,.23-.22,1.54,1.54,0,0,1,.31-.05.81.81,0,0,1,.34,0,1.14,1.14,0,0,1,.36.16,1.82,1.82,0,0,1,.38.33l3.8,6.27c.11.18.27.41.48.7s.44.6.69.92.49.64.75.95.48.58.67.8a5.49,5.49,0,0,1,.64.84,3.5,3.5,0,0,1,.17.32.42.42,0,0,1,.05.23.23.23,0,0,1-.1.16.88.88,0,0,1-.27.11,1.05,1.05,0,0,1-.37.05.83.83,0,0,1-.28-.08.73.73,0,0,1-.23-.16l-.2-.2-.23-.24a1.94,1.94,0,0,0-.27-.21l-.1.22-.14.27c0,.1-.09.18-.13.26l-.09.18-.2.3a2.67,2.67,0,0,1-.28.32,2.11,2.11,0,0,1-.37.28,1.63,1.63,0,0,1-.49.2,2.14,2.14,0,0,1-.73.06,3.19,3.19,0,0,1-.86-.19,4.32,4.32,0,0,1-.9-.47,4.88,4.88,0,0,1-.88-.78l-.28-.34A2.4,2.4,0,0,1,378.08,173.83Zm1.2-.39a2.81,2.81,0,0,0,.33.44,4.78,4.78,0,0,0,.39.39,2.32,2.32,0,0,0,.43.29,1.57,1.57,0,0,0,.46.16,1.42,1.42,0,0,0,.5,0,.7.7,0,0,0,.27-.14,1.45,1.45,0,0,0,.22-.21l.16-.24c0-.09.08-.16.11-.22s.14-.33.19-.49a1.69,1.69,0,0,0,.08-.5,1.51,1.51,0,0,0-.08-.54,2.56,2.56,0,0,0-.29-.65l-.35-.57-.32-.49c-.11-.17-.23-.33-.35-.5s-.25-.35-.41-.55l-.17-.06a.42.42,0,0,0-.22,0,1.57,1.57,0,0,0-.55.27,1.91,1.91,0,0,0-.47.47,2.49,2.49,0,0,0-.32.63,2.43,2.43,0,0,0-.12.77,2.88,2.88,0,0,0,.11.85A3.42,3.42,0,0,0,379.28,173.44Z"/><path class="cls-1" d="M384,167.32a.64.64,0,0,1-.1-.23.29.29,0,0,1,0-.16.19.19,0,0,1,0-.1.13.13,0,0,1,.06-.05l.21,0,.24,0,.26,0a.59.59,0,0,1,.42.08,2.41,2.41,0,0,1,.4.33,1.84,1.84,0,0,1,.22.32c.38.65.71,1.22,1,1.71s.49.9.68,1.25.35.62.48.83a4.69,4.69,0,0,0,.33.48,3.89,3.89,0,0,0,.35.33,3.28,3.28,0,0,0,.44.32,1.87,1.87,0,0,0,.45.22.64.64,0,0,0,.4,0,.69.69,0,0,0,.44-.36,1.73,1.73,0,0,0,.19-.62,2.92,2.92,0,0,0,0-.72,4.92,4.92,0,0,0-.12-.66l-.1-.38a5.53,5.53,0,0,0-.31-.79c-.14-.29-.29-.58-.46-.87s-.33-.56-.49-.81-.28-.45-.38-.6l-.68-1a.68.68,0,0,1-.17-.43c0-.09.12-.16.31-.21a1.49,1.49,0,0,1,.36,0,1.08,1.08,0,0,1,.38.08,1.57,1.57,0,0,1,.4.24,3.42,3.42,0,0,1,.45.43,7,7,0,0,1,.59.8c.21.32.41.64.61,1s.24.4.38.61.28.43.42.64l.43.61c.14.19.28.35.41.5s.46.5.7.74l.73.79a3.8,3.8,0,0,1,.29.34,1.62,1.62,0,0,1,.17.23,1.11,1.11,0,0,1,.17.48c0,.11-.11.19-.31.25a1,1,0,0,1-.38,0,1.09,1.09,0,0,1-.31-.08,1.28,1.28,0,0,1-.25-.15l-.21-.2-1.32-1.36,0,0c0,.24,0,.52.09.82a3.72,3.72,0,0,1,0,.88,1.85,1.85,0,0,1-.25.75,1.11,1.11,0,0,1-.68.46,1.22,1.22,0,0,1-.29,0,3.32,3.32,0,0,1-.41,0l-.46-.08a3.72,3.72,0,0,1-.38-.11,5.26,5.26,0,0,1-1.33-.7,6.43,6.43,0,0,1-1-.9c-.16-.19-.31-.37-.44-.56s-.26-.37-.37-.55l-.3-.51c-.08-.16-.16-.3-.24-.43l-.62-1-.46-.79c-.14-.22-.25-.41-.34-.57Z"/><path class="cls-1" d="M394.27,169.13a8.61,8.61,0,0,1-.64-1.29,7.35,7.35,0,0,1-.41-1.37,4.75,4.75,0,0,1-.07-1.29,2.17,2.17,0,0,1,.36-1.08.78.78,0,0,1,.28-.26,1.28,1.28,0,0,1,.41-.18,2.63,2.63,0,0,1,.49-.07,1.67,1.67,0,0,1,.49,0,1.9,1.9,0,0,1,.47.2,2.18,2.18,0,0,1,.44.38,2.51,2.51,0,0,1,.27.37.93.93,0,0,1,.13.36.44.44,0,0,1-.05.3.43.43,0,0,1-.27.18,1,1,0,0,1-.35,0l-.38-.07-.19,0-.19,0a1.11,1.11,0,0,0-.24.5,2,2,0,0,0-.05.6,4.24,4.24,0,0,0,.09.68q.09.34.21.69c.08.22.17.44.27.65s.21.41.3.58l.27.42a5.37,5.37,0,0,0,.35.45,2.37,2.37,0,0,0,.28.27,1,1,0,0,0,.3.21,1,1,0,0,0,.32.12.7.7,0,0,0,.32,0,1.53,1.53,0,0,0,.45-.19,2.43,2.43,0,0,0,.34-.3,1.78,1.78,0,0,0,.25-.36c.08-.13.14-.27.21-.4s.07-.17.11-.25a1.33,1.33,0,0,1,.11-.24,1.4,1.4,0,0,1,.12-.18.26.26,0,0,1,.14-.1.57.57,0,0,1,.26,0,.56.56,0,0,1,.26.16.91.91,0,0,1,.15.23,1.83,1.83,0,0,1,.18.58,1.41,1.41,0,0,1,0,.51,1.3,1.3,0,0,1-.17.44,3.73,3.73,0,0,1-.25.39,2.25,2.25,0,0,1-.59.6,2.43,2.43,0,0,1-.67.33l-.26,0h-.3a4.15,4.15,0,0,1-1.48-.47,4.65,4.65,0,0,1-1.19-.95c-.15-.17-.3-.36-.44-.55S394.4,169.35,394.27,169.13Z"/><path class="cls-1" d="M406.41,169.08c-.12-.14-.26-.32-.4-.52a8.85,8.85,0,0,0-.61-.75,4.32,4.32,0,0,0-.16.56,4.44,4.44,0,0,1-.19.62,2.07,2.07,0,0,1-.29.53.76.76,0,0,1-.45.3,1.42,1.42,0,0,1-.47.05,2,2,0,0,1-.49-.09,5.29,5.29,0,0,1-1.11-.47,3.45,3.45,0,0,1-.82-.67,2.88,2.88,0,0,1-.3-.39c-.1-.14-.2-.3-.31-.48a6.85,6.85,0,0,1-1-2.4,3.85,3.85,0,0,1,.16-2.12,1.05,1.05,0,0,1,.46-.55,2.7,2.7,0,0,1,.7-.28,3,3,0,0,1,.39-.08l.42-.05.23-.13a1,1,0,0,1,.21-.07,1.17,1.17,0,0,1,.41,0,1.64,1.64,0,0,1,.38.1,1.86,1.86,0,0,1,.33.19,3.45,3.45,0,0,1,.28.26,1.72,1.72,0,0,1,.26.38c.07.12.13.25.2.38l2.5,4.11c.16.22.32.42.46.6a4.42,4.42,0,0,1,.36.51,1.5,1.5,0,0,0,.09.18.46.46,0,0,1,.06.22.32.32,0,0,1,0,.21.38.38,0,0,1-.22.14,2.19,2.19,0,0,1-.39.06.8.8,0,0,1-.28,0,.65.65,0,0,1-.22-.11A.94.94,0,0,1,406.41,169.08ZM402,167.5a3,3,0,0,0,.2.31,3,3,0,0,0,.31.39,1.72,1.72,0,0,0,.38.34.42.42,0,0,0,.39.09.73.73,0,0,0,.45-.28,1.28,1.28,0,0,0,.21-.46,4.09,4.09,0,0,0,.12-.74,5.82,5.82,0,0,0,0-.84,5,5,0,0,0-.14-.85,3.72,3.72,0,0,0-.34-.83c-.09-.15-.2-.32-.34-.51a5.69,5.69,0,0,0-.41-.51.76.76,0,0,0-.21-.18.28.28,0,0,0-.25,0,1.36,1.36,0,0,0-.59.32,1.58,1.58,0,0,0-.36.56,2.36,2.36,0,0,0-.14.72,4,4,0,0,0,.06.83,4.61,4.61,0,0,0,.24.86A5.66,5.66,0,0,0,402,167.5Z"/><path class="cls-1" d="M409.39,165.87a10,10,0,0,1-1-1.32c-.3-.46-.59-.91-.85-1.35a1.9,1.9,0,0,1-.44.05,2.61,2.61,0,0,1-.48-.05,1.7,1.7,0,0,1-.45-.15.91.91,0,0,1-.37-.27.83.83,0,0,1-.12-.17,1.15,1.15,0,0,1-.1-.23.46.46,0,0,1,0-.2.16.16,0,0,1,.14-.12l1-.26c.09,0,.12-.08.08-.17a2.1,2.1,0,0,0-.13-.26c-.19-.3-.35-.56-.48-.79l-.33-.56-.23-.38a1.58,1.58,0,0,0-.16-.22,1,1,0,0,0-.17-.18L405,159l-.07-.08-.12-.15c0-.07-.11-.17-.18-.29a.57.57,0,0,1-.07-.31c0-.1.08-.17.23-.21a.77.77,0,0,1,.4,0,1.77,1.77,0,0,1,.42.15,2,2,0,0,1,.4.27,2.72,2.72,0,0,1,.35.32,2.62,2.62,0,0,1,.25.34l1.31,2.2.59-.31.51-.28.46-.28.33-.21.24-.14a.48.48,0,0,1,.18-.08.93.93,0,0,1,.25,0h.27a1,1,0,0,1,.26.09.88.88,0,0,1,.25.2,1.09,1.09,0,0,1,.21.32.76.76,0,0,1,0,.29.46.46,0,0,1-.11.22.77.77,0,0,1-.19.17,1.62,1.62,0,0,0-.24.14l-.33.21-.36.23-.36.24-.44.3a3,3,0,0,1-.33.19l-.23.12-.16.06c.16.3.32.59.5.88s.34.55.5.8.31.46.45.65.26.33.35.43a3.3,3.3,0,0,0,.38.37,1.71,1.71,0,0,0,.4.28,1.69,1.69,0,0,0,.43.15,1.1,1.1,0,0,0,.44,0,.89.89,0,0,0,.57-.42,1.74,1.74,0,0,0,.22-.72,3.76,3.76,0,0,0,0-.89c0-.31-.07-.6-.11-.88,0-.11,0-.17.11-.19l.12,0,.16,0,.19.07a.65.65,0,0,1,.16.13l.07.09a4.37,4.37,0,0,1,.46,1c.11.35.22.7.32,1.05a1.19,1.19,0,0,1,.06.37,2.32,2.32,0,0,1-.05.38,2.24,2.24,0,0,1-.1.37c-.05.11-.09.22-.14.32a.94.94,0,0,1-.39.4,2.35,2.35,0,0,1-.57.23,2.39,2.39,0,0,1-1,.05,4.08,4.08,0,0,1-1-.3,5.76,5.76,0,0,1-1-.6A6.2,6.2,0,0,1,409.39,165.87Z"/><path class="cls-1" d="M412.15,156.92a2.62,2.62,0,0,1-.2-.41.62.62,0,0,1,0-.48.81.81,0,0,1,.18-.2.72.72,0,0,1,.19-.12.42.42,0,0,1,.19,0l.23.08.29.12a.52.52,0,0,1,.35.07,1.54,1.54,0,0,1,.31.27,2.65,2.65,0,0,1,.17.22l.1.16a.58.58,0,0,1,.08.33.52.52,0,0,1-.09.29.74.74,0,0,1-.2.23.64.64,0,0,1-.26.13.55.55,0,0,1-.31,0,2.28,2.28,0,0,1-.46-.18,1,1,0,0,1-.24-.15l-.11-.11a1.1,1.1,0,0,1-.11-.14Zm4.9,8.09c-.19-.3-.39-.66-.63-1.06l-.74-1.28q-.4-.67-.81-1.38c-.28-.47-.55-.93-.83-1.37a.53.53,0,0,1,0-.11.54.54,0,0,1,0-.18.35.35,0,0,1,.09-.17.49.49,0,0,1,.25-.13l.26,0a1.33,1.33,0,0,1,.28,0,.79.79,0,0,1,.49.27l.05,0,0,.05.49.83,1.65,2.8c.55.94,1.11,1.88,1.67,2.82l.05.12a.42.42,0,0,1,0,.15.22.22,0,0,1,0,.14.18.18,0,0,1-.14.09.77.77,0,0,1-.4,0,1.45,1.45,0,0,1-.42-.12,2.46,2.46,0,0,1-.39-.22,1.76,1.76,0,0,1-.28-.25l-.06-.07a.18.18,0,0,1,0-.07Z"/><path class="cls-1" d="M419.59,162.53a7.73,7.73,0,0,1-.51-1,5.26,5.26,0,0,1-.31-1.18,4.29,4.29,0,0,1,0-1.24,3.73,3.73,0,0,1,.38-1.23.81.81,0,0,1,.21-.23,1.27,1.27,0,0,1,.38-.22c0-.25.17-.42.49-.51a2.31,2.31,0,0,1,1.22,0,5.72,5.72,0,0,1,1.35.62l.43.28c.14.09.27.18.41.29s.27.22.41.35.28.27.43.44a7.24,7.24,0,0,1,.87,1.23,5.38,5.38,0,0,1,.53,1.31,4.54,4.54,0,0,1,.17,1.31,3.51,3.51,0,0,1-.21,1.22,1.49,1.49,0,0,1-.48.67,2.26,2.26,0,0,1-.92.44,3.28,3.28,0,0,1-1.11.11,3.7,3.7,0,0,1-1.07-.25,4.72,4.72,0,0,1-1-.56,5.89,5.89,0,0,1-.91-.83A7.12,7.12,0,0,1,419.59,162.53Zm1.3-.23a4,4,0,0,0,.22.34l.24.29a3.89,3.89,0,0,0,.47.44,2,2,0,0,0,.52.3,1.86,1.86,0,0,0,.56.15,1.67,1.67,0,0,0,.58,0,1.17,1.17,0,0,0,.78-.56,1.88,1.88,0,0,0,.21-.93,3.71,3.71,0,0,0-.19-1.07,6.15,6.15,0,0,0-.45-1q-.16-.27-.33-.51a3.7,3.7,0,0,0-.32-.43,2.5,2.5,0,0,0-.39-.34c-.14-.1-.31-.2-.51-.32l-.36-.23-.36-.23c0,.08,0,.15,0,.21a.26.26,0,0,1-.08.19.8.8,0,0,1-.25.21,4.26,4.26,0,0,1-.51.24,1.09,1.09,0,0,0-.27.38,2.64,2.64,0,0,0-.13.52,4.12,4.12,0,0,0,0,.61,4.49,4.49,0,0,0,.1.64,5.61,5.61,0,0,0,.18.62A2.38,2.38,0,0,0,420.89,162.3Z"/><path class="cls-1" d="M429.7,155.89a.86.86,0,0,0-.43.27,1.68,1.68,0,0,0-.32.48,4.78,4.78,0,0,0-.22.64c-.06.23-.11.46-.15.7s-.05.23-.08.34a.68.68,0,0,1-.14.25,4.64,4.64,0,0,0,.18.5c.09.2.2.42.32.66l.39.72c.14.24.27.47.4.67l.21.32c.08.1.15.21.23.33s.17.24.25.37.18.28.28.45a.51.51,0,0,1,.09.26.34.34,0,0,1,0,.17.53.53,0,0,1-.12.1l-.12,0a1.11,1.11,0,0,1-.57,0,1.6,1.6,0,0,1-.63-.47l-.19-.22a2,2,0,0,1-.18-.26c-.31-.5-.58-.94-.81-1.34s-.44-.77-.63-1.11-.34-.67-.49-1-.3-.62-.44-.94-.3-.64-.45-1-.33-.71-.53-1.12a.23.23,0,0,1,0-.27.64.64,0,0,1,.32-.19,1,1,0,0,1,.57,0,1,1,0,0,1,.5.31l.06.08s.05.09.07.14l.36.85c.06-.22.13-.44.2-.66a3.81,3.81,0,0,1,.29-.61,2.28,2.28,0,0,1,.42-.5,1.52,1.52,0,0,1,.59-.31,2.35,2.35,0,0,1,1.43.09,3.8,3.8,0,0,1,1.44,1.07,6.54,6.54,0,0,1,.77,1.07q.36.63.72,1.35l.74,1.53c.25.53.52,1.07.82,1.62a1.72,1.72,0,0,1,.17.38.52.52,0,0,1,0,.26.25.25,0,0,1-.11.18,1,1,0,0,1-.77.12,1.11,1.11,0,0,1-.41-.31,3.35,3.35,0,0,1-.39-.52c-.14-.21-.27-.44-.41-.7s-.28-.53-.42-.83-.28-.6-.41-.91l-.33-.74c-.11-.25-.23-.49-.34-.72s-.24-.44-.37-.64a3.42,3.42,0,0,0-.41-.55,1.74,1.74,0,0,0-.45-.37A.67.67,0,0,0,429.7,155.89Z"/><path class="cls-2" d="M335.53,152c-3.83,1.62-7.89,3.39-10.69,6.59s-4.06,7.51-4.89,11.58a50.32,50.32,0,0,0,0,19.79c.88,4,2.69,8.15,6.24,10.43,4,2.56,8.16.91,12.32-.39,5.55-1.75,11.32-2.42,16.89-4.17,6.39-2,12.56-4.63,18.81-7,12.24-4.7,25.13-6.76,37.61-10.64,5.51-1.72,11-3.45,16.41-5.53,3.61-1.4,11.7-3.64,13.33-7.57.75-1.83.43-4.41.32-6.35-.15-2.81.1-5.59,0-8.42-.46-12.75-16.26-14.45-26-15.48-27.48-2.93-55.79,5.11-80.29,17.19-.56.28.52,3.8,0,4.06a172.42,172.42,0,0,1,52.68-16.61,112.53,112.53,0,0,1,31.16-.15c9,1.3,21.21,3.22,22.45,14.24v-3.78a119.41,119.41,0,0,0,0,13l0-2.57v1l0-1.49c-.78,4.84-9.11,7.15-13.07,8.7-5.74,2.26-11.64,4.09-17.53,5.92-13.26,4.13-26.78,6.43-39.75,11.52-6.66,2.61-13.3,5.36-20.23,7.18-5.46,1.43-10.93,2.6-16.38,4-4.41,1.18-8.12.74-11.23-2.9s-4.54-9.35-4.47-14.09c.07-5.07,1.52-11.22,4.27-15.52S331,158,335.53,156c.51-.22-.45-3.87,0-4.06Z"/><path d="M305.39,69.38l3.43-.79.06.14c-.44.1-.67.25-.7.46a2.12,2.12,0,0,0,.23,1l4.93,11.39a22.38,22.38,0,0,1,.94,2.45,3.5,3.5,0,0,1,.14,1.51,2.15,2.15,0,0,1-1.78,1.87,4.88,4.88,0,0,1-1.68.08l0-.16a2.08,2.08,0,0,0,.73-.08A1.59,1.59,0,0,0,313,86a5.78,5.78,0,0,0-.69-3.09L307,70.54a2.22,2.22,0,0,0-.65-1,1.3,1.3,0,0,0-.87,0Z"/><path d="M319.52,74.07l-3.75.86.25,5.5a3.13,3.13,0,0,0,.1.72c.08.2.27.26.55.2l.06.13-1.9.44-.06-.13a.9.9,0,0,0,.56-.35,2.23,2.23,0,0,0,.13-1.14L314.8,67l.23,0,9.65,10.77a7.79,7.79,0,0,0,.73.78,1.45,1.45,0,0,0,1.39.52l.06.14-3,.69-.06-.14c.28-.06.36-.21.27-.43a3.09,3.09,0,0,0-.52-.68l-.11-.1-.06-.09Zm-3.79.46,3.46-.8-3.7-4.16Z"/><path d="M332.32,63.17l2.47-.57.06.14c-.37.1-.59.24-.67.43a1.57,1.57,0,0,0,.2,1l5.27,12.18-15.09-9,4.28,9.9a3.08,3.08,0,0,0,.37.68.69.69,0,0,0,.33.26,2.4,2.4,0,0,0,.72,0l.06.13-2.45.57-.06-.14c.44-.1.68-.24.71-.43a2.82,2.82,0,0,0-.34-1.21l-3.92-9a6.39,6.39,0,0,0-1.15-1.87,1.63,1.63,0,0,0-1.76-.37l-.06-.13,2.4-.56,14.18,8.48-4.09-9.45q-.33-.75-.66-.87a1.42,1.42,0,0,0-.74,0Z"/><path d="M353.75,73l-2.41.56-.89-2.06A4.6,4.6,0,0,1,347,74.61a4.8,4.8,0,0,1-3.49-.42A5.65,5.65,0,0,1,341,71.36l-3.46-8a2,2,0,0,0-.57-.88,1.16,1.16,0,0,0-.85,0l-.06-.14,3.39-.78.06.14a1,1,0,0,0-.68.35c-.1.15-.05.45.14.89l3.18,7.35a5.83,5.83,0,0,0,2.45,3.06,4,4,0,0,0,2.77.45,3.8,3.8,0,0,0,2.82-2.8l-3.91-9.06a3.56,3.56,0,0,0-.81-1.37,1,1,0,0,0-.72-.08l-.12,0-.06-.14,3.36-.77.06.13c-.41.12-.64.26-.69.4a1.06,1.06,0,0,0,.14.73l4.71,10.9a4.25,4.25,0,0,0,.42.83.91.91,0,0,0,.39.27,1.27,1.27,0,0,0,.7,0Z"/><path d="M359.25,64.91l-3.74.86.25,5.5a4,4,0,0,0,.09.72c.09.2.27.27.56.2l.06.14-1.9.44-.06-.14a.91.91,0,0,0,.56-.34,2.27,2.27,0,0,0,.13-1.15l-.67-13.3.23-.06,9.66,10.78a7.66,7.66,0,0,0,.72.77,1.48,1.48,0,0,0,1.4.53l.06.13-3,.69-.06-.14c.27-.06.36-.2.26-.43a2.87,2.87,0,0,0-.51-.68.47.47,0,0,1-.11-.1c0-.06-.06-.09-.07-.09Zm-3.78.46,3.45-.79-3.69-4.17Z"/><path d="M361.66,56.56l-.06-.13,3.62-.84c.92-.21,1.59-.34,2-.39a3.89,3.89,0,0,1,1.44.13,3.34,3.34,0,0,1,1.4.75,4.16,4.16,0,0,1,1,1.43,3.64,3.64,0,0,1,.25,2.08,3.86,3.86,0,0,1-1,1.94l1.53,1.24c.36.32,1.22,1,2.6,2a11.24,11.24,0,0,0,2.93,1.79,3,3,0,0,0,1.52.1,2.47,2.47,0,0,0,1.25-.86l.13.17A3.38,3.38,0,0,1,378,67.51a3.31,3.31,0,0,1-2.2-.25,30,30,0,0,1-4.4-3.13s0,0,0,0l-2.18-1.78-1.12.3-1,.24L369.22,68a2.18,2.18,0,0,0,.53.85,1,1,0,0,0,.86.1l.06.14-3.29.75-.06-.13c.41-.11.62-.26.65-.45a2.31,2.31,0,0,0-.28-1L363.1,57.56a3.1,3.1,0,0,0-.51-.83A.94.94,0,0,0,361.66,56.56Zm2.48-.33,2.71,6.28,1.34-.31a2.67,2.67,0,0,0,2-1.32,2.72,2.72,0,0,0-.13-2.23,5.45,5.45,0,0,0-1.76-2.17,3.6,3.6,0,0,0-3.12-.49Z"/><path d="M380.2,52.14l1.92-.44.06.14a1,1,0,0,0-.52.32,1.68,1.68,0,0,0-.26.76l-1,5.68,2.65,6.12a2.42,2.42,0,0,0,.6.94,1.19,1.19,0,0,0,.9,0l.06.14-3.41.79-.06-.14c.67-.11.88-.45.63-1l-.19-.38-2.44-5.66-5.47-4.71c-.58-.5-1.07-.69-1.47-.58l-.06-.14,3-.69.06.14c-.28.06-.37.2-.28.43a1.77,1.77,0,0,0,.45.48l4.5,3.86.87-5.13a.93.93,0,0,0,.06-.31.72.72,0,0,0,0-.29.38.38,0,0,0-.5-.21h-.06Z"/><path d="M338.38,124l1,7.15-26.86,6.19-.46-1.08q7.32-12.11,8.51-20.31a26.15,26.15,0,0,0-1.48-14.39,15.52,15.52,0,0,0-5.95-7.46,9.64,9.64,0,0,0-7.36-1.41,8.43,8.43,0,0,0-5.3,3.78,13.31,13.31,0,0,0-2.2,6.58l-1.33-.33c.49-3.65,1.55-6.4,3.16-8.23a12.16,12.16,0,0,1,6.58-3.71,13.71,13.71,0,0,1,10.21,1.44,15.6,15.6,0,0,1,6.84,7.53,19.13,19.13,0,0,1,.9,10.79q-1.05,6.3-5.6,16l-2.7,5.74,17.07-3.93a7.3,7.3,0,0,0,3.2-1.28,6.17,6.17,0,0,0,1.17-2.93Z"/><path d="M358.26,127.5q-6.13,1.41-12.29-3.18t-10.2-13.93q-4.59-10.65-3.2-18.34t8-9.2a13.21,13.21,0,0,1,7.44.62,20.55,20.55,0,0,1,8,5.63,38.32,38.32,0,0,1,7,11.17q4.29,9.95,3.16,17.81T358.26,127.5Zm1.2-2q3.23-.73,4.12-5.54t-2.82-13.4q-4.71-10.9-10.52-16.9t-11-4.82q-3.63.84-4.36,5.72t3,13.58q4.47,10.37,10.46,16.44T359.46,125.49Z"/><path d="M360.36,83.62l5.26-6.45.44-.11,17.12,39.61a5.78,5.78,0,0,0,1.88,2.78,5.16,5.16,0,0,0,3.16-.07l.19.43L377,122.45l-.19-.43a8.52,8.52,0,0,0,1.94-.66,1.37,1.37,0,0,0,.72-1.33,7.68,7.68,0,0,0-.79-2.78L364.83,85.3a9.45,9.45,0,0,0-1.07-2,1.28,1.28,0,0,0-1.42-.5,4,4,0,0,0-1.79,1.21Z"/><path d="M394.14,93.79c-3.38-1.09-5.65-1.89-6.8-2.38a14.46,14.46,0,0,1-3.7-2.45,11.27,11.27,0,0,1-3-4.08,9,9,0,0,1,.15-7.79c1.23-2.57,3.76-4.29,7.56-5.17a14.27,14.27,0,0,1,9.13.52A10.39,10.39,0,0,1,403,78q2.81,6.51-4,12.67A49.29,49.29,0,0,1,409.9,95.2a13.67,13.67,0,0,1,5.38,6.31q2.27,5.26-.48,9.38t-8.7,5.49a17.23,17.23,0,0,1-10.78-.74,12.53,12.53,0,0,1-7-6.75,9.21,9.21,0,0,1-.29-7.41Q389.49,98,394.14,93.79Zm3.35-3.58q4.23-4.69,1.92-10a10.69,10.69,0,0,0-5-5.35,9.89,9.89,0,0,0-7-1,7.78,7.78,0,0,0-4.64,2.87c-1.09,1.46-1.19,3.23-.28,5.32a8.19,8.19,0,0,0,2.36,3.18A22.3,22.3,0,0,0,390.71,88C393.57,89,395.83,89.76,397.49,90.21Zm-1.19,4.18-.61-.24a16.29,16.29,0,0,0-3.89,5.27,8,8,0,0,0,.15,6.88,14.71,14.71,0,0,0,6.26,6.73,11.64,11.64,0,0,0,8.75,1.71,8,8,0,0,0,5.15-3.77,7,7,0,0,0,.24-6.79A12.44,12.44,0,0,0,408,99Q405,96.84,396.3,94.39Z"/></g><path class="cls-3" d="M278,269.28h15.6c9.08,0,15.11,7.08,15.11,17.06s-6,17.19-15.11,17.19h-4.23v15.33H278Zm13.52,24.2c3.6,0,5.61-3,5.61-7.14s-2.29-7-5.41-7h-2.35v14.14Z"/><path class="cls-3" d="M311.46,269.28h11.37v33.28c0,4.79,2,6.59,5.2,6.59s5.13-1.8,5.13-6.59V269.28h11.37v33.28c0,10.47-6.52,17.13-16.43,17.13-10.19,0-16.64-6.66-16.64-17.13Z"/><path class="cls-3" d="M350.08,269.28h14.49c8.6,0,14.63,4.44,14.63,13,0,4.16-1.8,8.39-5.75,10.54v.14c5.68,1.73,7.28,6.72,7.28,11.16,0,10.82-6.8,14.77-15.4,14.77H350.08Zm14.49,19.35c2.15,0,3.05-2.22,3.05-4.72s-1-4.57-3.39-4.57h-2.78v9.29Zm.63,20.17c2.84,0,4-2.56,4-5.47s-1.11-5.34-3.68-5.34h-4.09V308.8Z"/><path class="cls-3" d="M384.54,269.28h11.37V308.8h14.91v10.06H384.54Z"/><path class="cls-3" d="M413.39,269.28h11.37v49.58H413.39Z"/><path class="cls-3" d="M450.9,268.45c4.37,0,9.15,1.25,12.48,4.16l-4.71,9.78a10.44,10.44,0,0,0-7.22-3.19c-7.41,0-11.16,6.65-11.16,14.42,0,8.11,4,15.32,11,15.32,3.39,0,5.82-1.59,8-3.33l4.71,9.64c-3.12,2.36-6.86,4.44-13.66,4.44-13.79,0-21.77-10.82-21.77-25.52C428.57,279.2,436.89,268.45,450.9,268.45Z"/><path class="cls-3" d="M478.57,269.28h24.89v10.06H489.94v9.5h10.68v10.05H489.94v9.91h14.14v10.06H478.57Z"/><path class="cls-3" d="M508,269.28h14.49c12.69,0,20.38,9.09,20.38,24.69s-7.69,24.89-20.38,24.89H508Zm14.21,39.52c5.83,0,9-5.13,9-14.83s-3.33-14.63-9-14.63h-2.84V308.8Z"/><path class="cls-3" d="M546.52,269.28h11.37v33.28c0,4.79,2,6.59,5.2,6.59s5.13-1.8,5.13-6.59V269.28h11.37v33.28c0,10.47-6.51,17.13-16.43,17.13-10.19,0-16.64-6.66-16.64-17.13Z"/><path class="cls-3" d="M605.46,268.45c4.37,0,9.15,1.25,12.48,4.16l-4.72,9.78A10.4,10.4,0,0,0,606,279.2c-7.42,0-11.16,6.65-11.16,14.42,0,8.11,4,15.32,11,15.32,3.4,0,5.83-1.59,8-3.33l4.71,9.64c-3.12,2.36-6.86,4.44-13.66,4.44-13.79,0-21.77-10.82-21.77-25.52C583.13,279.2,591.45,268.45,605.46,268.45Z"/><path class="cls-3" d="M629.52,269.28h12.34l12.48,49.58H643l-2.08-10.54H630.42l-2,10.54H617ZM639.23,299l-1.94-9.85c-.7-3.19-1.46-8.53-1.46-8.53h-.28s-.69,5.34-1.38,8.53L632.22,299Z"/><path class="cls-3" d="M660.24,279.34H649.35V269.28H682.5v10.06h-11v39.52h-11.3Z"/><path class="cls-3" d="M685.27,269.28h11.37v49.58H685.27Z"/><path class="cls-3" d="M720.77,268.45c13,0,20.32,10.82,20.32,25.38s-7.28,25.86-20.32,25.86-20.24-11.16-20.24-25.93C700.53,279.34,707.74,268.45,720.77,268.45Zm0,40.35c5.89,0,8.53-6.24,8.53-15s-2.64-14.49-8.53-14.49-8.6,5.89-8.6,14.42C712.17,302.63,714.88,308.8,720.77,308.8Z"/><path class="cls-3" d="M745,269.28h12l8.46,22.88a57.55,57.55,0,0,1,2.42,8.25h.28s-.62-5.2-.62-8.32V269.28h10.67v49.58H766.26l-8.53-22.81a65.73,65.73,0,0,1-2.36-8.32h-.28s.63,5.2.63,8.32v22.81H745Z"/><path class="cls-4" d="M280.31,221.9H283v28.57h-2.72Z"/><path class="cls-4" d="M294.82,224.33H287.1V221.9h18.17v2.43h-7.76v26.14h-2.69Z"/><path class="cls-4" d="M309.78,221.49h2.64l-1.87,7h-2Z"/><path class="cls-4" d="M317.14,246a7.75,7.75,0,0,0,5.36,2.4c2.77,0,4.68-1.91,4.68-5,0-6.91-10.78-6.18-10.78-14.55,0-4.15,2.81-7.48,7.69-7.48a9.9,9.9,0,0,1,5.69,1.75l-1.06,2.43a8.41,8.41,0,0,0-4.63-1.62,4.64,4.64,0,0,0-4.88,4.92c0,6.58,10.77,5.73,10.77,14.39,0,4.35-2.68,7.68-7.48,7.68a9.79,9.79,0,0,1-6.71-2.64Z"/><path class="cls-4" d="M347.66,224.33h-7.72V221.9h18.17v2.43h-7.76v26.14h-2.69Z"/><path class="cls-4" d="M362.22,221.9h2.72v28.57h-2.72Z"/><path class="cls-4" d="M372.5,221.9h2.93l5.4,16.34c.45,1.5,1,3.82,1,3.82h.08s.53-2.32,1-3.82l5.36-16.34h2.93L393,250.47h-2.56l-1.22-19.92c-.08-1.58,0-3.94,0-3.94h-.08a44,44,0,0,1-1.1,4.27l-4.76,14.27h-2.72l-4.76-14.27c-.49-1.46-1.1-4.35-1.1-4.35h-.08s0,2.44-.08,4l-1.18,19.92h-2.6Z"/><path class="cls-4" d="M398.76,221.9h12.68v2.43h-10v10.49h8.09v2.44h-8.09V248H412v2.48H398.76Z"/><path class="cls-4" d="M425.22,221.9h11.91v2.43h-9.19v10.82h7.89v2.44h-7.89v12.88h-2.72Z"/><path class="cls-4" d="M451.72,221.41c6.47,0,11.3,5.61,11.3,14.59s-4.83,15-11.3,15-11.3-5.81-11.3-15C440.42,227,445.26,221.41,451.72,221.41Zm0,27c4.8,0,8.46-4.64,8.46-12.36,0-7.56-3.66-12-8.46-12s-8.49,4.43-8.49,12C443.23,243.72,446.89,248.36,451.72,248.36Z"/><path class="cls-4" d="M468.27,221.9h7.27a8.2,8.2,0,0,1,3.78.93c2.16,1.14,3.66,3.7,3.66,7.11a8.29,8.29,0,0,1-4.47,7.69v.08a13.85,13.85,0,0,1,.61,1.26l4.92,11.5h-3l-4.92-12H471v12h-2.72ZM475.38,236c2.36,0,4.84-2.19,4.84-5.93a5.52,5.52,0,0,0-2.12-4.8,5.64,5.64,0,0,0-2.88-.85H471V236Z"/><path class="cls-4" d="M497,216.52h9.19c5.4,0,9.32,3.11,9.32,8.75a8,8,0,0,1-4,7.27v.1c3.49,1.1,5.07,4.4,5.07,8,0,6.79-4.26,9.8-10.23,9.8H497Zm9.42,13.92c1.92,0,3.16-1.91,3.16-4.45s-1.29-4.3-3.59-4.3h-3.15v8.75Zm-.14,14.87c3.06,0,4.35-2.15,4.35-5,0-3.06-1.43-5.07-3.68-5.07h-4.11v10Z"/><path class="cls-4" d="M534.61,216a12.6,12.6,0,0,1,8.27,2.82l-2.44,5a8.26,8.26,0,0,0-5.64-2.34c-5.88,0-9.09,5.26-9.09,11.76,0,6.65,3.4,12.34,9,12.34a10.08,10.08,0,0,0,6.32-2.49l2.39,4.93a13.68,13.68,0,0,1-9.14,3.06c-9.18,0-14.53-7.56-14.53-17.6S525.24,216,534.61,216Z"/><path class="cls-4" d="M559.82,224.33h-7.73V221.9h18.17v2.43H562.5v26.14h-2.68Z"/><path class="cls-4" d="M582.91,221.41c6.46,0,11.3,5.61,11.3,14.59s-4.84,15-11.3,15-11.3-5.81-11.3-15C571.61,227,576.44,221.41,582.91,221.41Zm0,27c4.79,0,8.45-4.64,8.45-12.36,0-7.56-3.66-12-8.45-12s-8.5,4.43-8.5,12C574.41,243.72,578.07,248.36,582.91,248.36Z"/><path class="cls-4" d="M607.9,221.9h7c4.67,0,8.13,3.33,8.13,8.65s-3.46,8.7-8.13,8.7h-4.23v11.22H607.9Zm6.59,14.91c3.37,0,5.69-2.39,5.69-6.26s-2.36-6.22-5.69-6.22h-3.86v12.48Z"/><path class="cls-4" d="M627.54,221.9h7.27a8.2,8.2,0,0,1,3.78.93c2.16,1.14,3.66,3.7,3.66,7.11a8.29,8.29,0,0,1-4.47,7.69v.08a11.31,11.31,0,0,1,.61,1.26l4.92,11.5h-3l-4.92-12h-5.12v12h-2.72ZM634.65,236c2.36,0,4.84-2.19,4.84-5.93,0-2.16-.77-3.95-2.12-4.8a5.64,5.64,0,0,0-2.88-.85h-4.23V236Z"/><path class="cls-4" d="M647.82,221.9h2.72v28.57h-2.72Z"/><path class="cls-4" d="M667.09,221.41c6.46,0,11.3,5.61,11.3,14.59s-4.84,15-11.3,15-11.3-5.81-11.3-15C655.79,227,660.62,221.41,667.09,221.41Zm0,27c4.79,0,8.45-4.64,8.45-12.36,0-7.56-3.66-12-8.45-12s-8.5,4.43-8.5,12C658.59,243.72,662.25,248.36,667.09,248.36Z"/><path class="cls-4" d="M683.63,221.9h7.28a8.23,8.23,0,0,1,3.78.93c2.15,1.14,3.66,3.7,3.66,7.11a8.29,8.29,0,0,1-4.47,7.69v.08a12.45,12.45,0,0,1,.6,1.26l4.92,11.5h-3l-4.92-12h-5.13v12h-2.72ZM690.74,236c2.36,0,4.84-2.19,4.84-5.93,0-2.16-.77-3.95-2.11-4.8a5.65,5.65,0,0,0-2.89-.85h-4.23V236Z"/><path class="cls-4" d="M703.91,221.9h2.73v28.57h-2.73Z"/><path class="cls-4" d="M718.43,224.33H710.7V221.9h18.17v2.43h-7.76v26.14h-2.68Z"/><path class="cls-4" d="M733,221.9h2.72v28.57H733Z"/><path class="cls-4" d="M740.29,248.44,751.55,227a23.63,23.63,0,0,1,1.55-2.65v-.08a13.06,13.06,0,0,1-1.63.08H740.82V221.9h15.33v2l-11.26,21.5c-.82,1.51-1.59,2.64-1.59,2.64v.09a8.62,8.62,0,0,1,1.63-.13h11.34v2.48h-16Z"/><path class="cls-4" d="M761.07,221.9h12.68v2.43h-10v10.49h8.09v2.44h-8.09V248h10.49v2.48H761.07Z"/><path class="cls-4" d="M276.32,267.85h15.6c9.09,0,15.12,7.07,15.12,17s-6,17.2-15.12,17.2H287.7v15.32H276.32Zm13.52,24.2c3.61,0,5.62-3,5.62-7.15s-2.29-7-5.41-7H287.7v14.15Z"/><path class="cls-4" d="M309.75,267.85h11.37v33.28c0,4.78,2,6.59,5.2,6.59s5.13-1.81,5.13-6.59V267.85h11.37v33.28c0,10.47-6.52,17.12-16.43,17.12-10.2,0-16.64-6.65-16.64-17.12Z"/><path class="cls-4" d="M348.37,267.85h14.49c8.6,0,14.63,4.44,14.63,13,0,4.16-1.8,8.39-5.76,10.54v.14c5.69,1.73,7.28,6.73,7.28,11.16,0,10.82-6.79,14.77-15.39,14.77H348.37Zm14.49,19.34c2.15,0,3.05-2.22,3.05-4.71s-1-4.58-3.4-4.58h-2.77v9.29Zm.62,20.18c2.85,0,4-2.57,4-5.48s-1.1-5.34-3.67-5.34h-4.09v10.82Z"/><path class="cls-4" d="M382.83,267.85H394.2v39.52h14.91v10.05H382.83Z"/><path class="cls-4" d="M411.68,267.85h11.37v49.57H411.68Z"/><path class="cls-4" d="M449.19,267c4.37,0,9.15,1.24,12.48,4.16L457,281a10.44,10.44,0,0,0-7.21-3.19c-7.42,0-11.16,6.66-11.16,14.42,0,8.12,4,15.33,11,15.33,3.4,0,5.83-1.6,8-3.33l4.71,9.64c-3.12,2.35-6.86,4.43-13.66,4.43-13.8,0-21.77-10.81-21.77-25.51C426.86,277.76,435.18,267,449.19,267Z"/><path class="cls-4" d="M476.85,267.85h24.9v10H488.23v9.5H498.9v10.05H488.23v9.92h14.14v10.05H476.85Z"/><path class="cls-4" d="M506.25,267.85h14.5c12.68,0,20.38,9.08,20.38,24.68s-7.7,24.89-20.38,24.89h-14.5Zm14.22,39.52c5.82,0,8.94-5.13,8.94-14.84s-3.33-14.63-8.94-14.63h-2.84v29.47Z"/><path class="cls-4" d="M544.81,267.85h11.37v33.28c0,4.78,2,6.59,5.2,6.59s5.13-1.81,5.13-6.59V267.85h11.37v33.28c0,10.47-6.52,17.12-16.43,17.12-10.19,0-16.64-6.65-16.64-17.12Z"/><path class="cls-4" d="M603.75,267c4.36,0,9.15,1.24,12.48,4.16L611.51,281a10.46,10.46,0,0,0-7.21-3.19c-7.42,0-11.16,6.66-11.16,14.42,0,8.12,4,15.33,11,15.33,3.4,0,5.83-1.6,8-3.33l4.71,9.64c-3.12,2.35-6.86,4.43-13.66,4.43-13.8,0-21.77-10.81-21.77-25.51C581.42,277.76,589.74,267,603.75,267Z"/><path class="cls-4" d="M627.81,267.85h12.34l12.48,49.57H641.26l-2.08-10.54H628.71l-2,10.54H615.33Zm9.71,29.67-1.95-9.84c-.69-3.19-1.45-8.53-1.45-8.53h-.28s-.69,5.34-1.39,8.53l-1.94,9.84Z"/><path class="cls-4" d="M658.53,277.9H647.64v-10h33.14v10H669.83v39.52h-11.3Z"/><path class="cls-4" d="M683.56,267.85h11.37v49.57H683.56Z"/><path class="cls-4" d="M719.06,267c13,0,20.31,10.81,20.31,25.37s-7.28,25.86-20.31,25.86-20.25-11.16-20.25-25.93C698.81,277.9,706,267,719.06,267Zm0,40.35c5.89,0,8.53-6.24,8.53-15S725,277.9,719.06,277.9s-8.6,5.9-8.6,14.42C710.46,301.2,713.17,307.37,719.06,307.37Z"/><path class="cls-4" d="M743.26,267.85h12l8.46,22.88a56.76,56.76,0,0,1,2.43,8.25h.28s-.63-5.2-.63-8.32V267.85h10.68v49.57H764.55L756,294.61a65.73,65.73,0,0,1-2.36-8.32h-.28s.63,5.2.63,8.32v22.81H743.26Z"/><path class="cls-4" d="M463.68,94.07h6.1a6.88,6.88,0,0,1,3.17.79c1.8,1,3.06,3.1,3.06,6a6.94,6.94,0,0,1-3.74,6.44v.06a11,11,0,0,1,.51,1.06L476.9,118h-2.52l-4.12-10.08H466V118h-2.28Zm6,11.79c2,0,4.06-1.84,4.06-5a4.62,4.62,0,0,0-1.77-4,4.71,4.71,0,0,0-2.42-.72H466v9.71Z"/><path class="cls-4" d="M485.31,100.48c4.12,0,5.69,3.74,5.69,7.63,0,.44,0,.88-.07,1.43h-9.88c.07,4.63,2.18,6.85,4.84,6.85a5.74,5.74,0,0,0,4.16-1.78l.64,1.81a7.16,7.16,0,0,1-5,2c-4.33,0-6.92-3.68-6.92-9.13S481.33,100.48,485.31,100.48Zm3.44,7.25c0-3.64-1.26-5.31-3.47-5.31s-3.82,1.87-4.23,5.31Z"/><path class="cls-4" d="M494.51,100.89h2.18v1.73a4.82,4.82,0,0,1-.11,1.06h.07a5.15,5.15,0,0,1,4.91-3.2,3.7,3.7,0,0,1,3.85,3.2h.1a5.27,5.27,0,0,1,5-3.2c2.93,0,4.13,2.11,4.13,5.45V118h-2.25V106.44c0-1.91-.34-3.85-2.49-3.85-2.42,0-4.22,2.42-4.22,5.25V118h-2.22V106.44c0-1.94-.37-3.85-2.48-3.85-2.46,0-4.23,2.49-4.23,5.35V118h-2.21Z"/><path class="cls-4" d="M518.79,94.07h2.42V97h-2.42Zm.1,6.82h2.22V118h-2.22Z"/><path class="cls-4" d="M525.54,100.89h2.18v1.73a4.82,4.82,0,0,1-.11,1.06h.07a5.5,5.5,0,0,1,5.21-3.2c3.17,0,4.43,2.11,4.43,5.45V118h-2.24V106.4c0-1.87-.31-3.81-2.7-3.81-2.76,0-4.63,2.69-4.63,5.38v10h-2.21Z"/><path class="cls-4" d="M546.76,100.48a4.33,4.33,0,0,1,4.22,2.69h.07a9.39,9.39,0,0,1-.1-1.33V94.07h2.21v24H551v-1.43a7.83,7.83,0,0,1,.1-1.29h-.07a4.48,4.48,0,0,1-4.5,3.13c-3.88,0-5.75-3.68-5.75-9S542.91,100.48,546.76,100.48Zm.24,15.94c2.45,0,4-2.08,4-7,0-3.54-1-7-3.92-7-2.59,0-4,2.55-4,7C543.08,113.73,544.34,116.42,547,116.42Z"/><path class="cls-4" d="M564.71,94.07h5.82c3.92,0,6.82,2.8,6.82,7.26s-2.9,7.29-6.82,7.29H567V118h-2.28Zm5.52,12.5c2.82,0,4.77-2,4.77-5.24s-2-5.21-4.77-5.21H567v10.45Z"/><path class="cls-4" d="M580.44,100.89h2.18v2.62a12.34,12.34,0,0,1-.07,1.33h.07c.58-2.25,2.29-4.13,4.16-4.13a2.3,2.3,0,0,1,.71.11v2.25a2.86,2.86,0,0,0-.71-.07c-2.9,0-4.12,4.39-4.12,7.59V118h-2.22Z"/><path class="cls-4" d="M595.53,100.48c4.13,0,5.69,3.74,5.69,7.63,0,.44,0,.88-.07,1.43h-9.87c.06,4.63,2.18,6.85,4.83,6.85a5.74,5.74,0,0,0,4.16-1.78l.65,1.81a7.21,7.21,0,0,1-5,2c-4.33,0-6.92-3.68-6.92-9.13S591.55,100.48,595.53,100.48Zm3.44,7.25c0-3.64-1.26-5.31-3.47-5.31s-3.82,1.87-4.22,5.31Z"/><path class="cls-4" d="M604.73,100.89h2.18v1.73a5.28,5.28,0,0,1-.1,1.06h.06a5.15,5.15,0,0,1,4.91-3.2,3.7,3.7,0,0,1,3.85,3.2h.1a5.28,5.28,0,0,1,5-3.2c2.93,0,4.12,2.11,4.12,5.45V118h-2.25V106.44c0-1.91-.34-3.85-2.49-3.85-2.42,0-4.22,2.42-4.22,5.25V118h-2.22V106.44c0-1.94-.37-3.85-2.48-3.85-2.46,0-4.23,2.49-4.23,5.35V118h-2.21Z"/><path class="cls-4" d="M629,94.07h2.42V97H629Zm.11,6.82h2.21V118h-2.21Z"/><path class="cls-4" d="M641.45,100.48c4.12,0,5.69,3.74,5.69,7.63,0,.44,0,.88-.07,1.43h-9.88c.07,4.63,2.18,6.85,4.84,6.85a5.72,5.72,0,0,0,4.15-1.78l.65,1.81a7.21,7.21,0,0,1-5,2c-4.32,0-6.91-3.68-6.91-9.13S637.46,100.48,641.45,100.48Zm3.44,7.25c0-3.64-1.26-5.31-3.48-5.31s-3.81,1.87-4.22,5.31Z"/><path class="cls-4" d="M650.64,100.89h2.18v2.62c0,.75-.06,1.33-.06,1.33h.06c.58-2.25,2.29-4.13,4.16-4.13a2.3,2.3,0,0,1,.71.11v2.25A2.86,2.86,0,0,0,657,103c-2.9,0-4.12,4.39-4.12,7.59V118h-2.22Z"/><path class="cls-4" d="M667.06,94.07h2.28V105h10.09V94.07h2.25v24h-2.25v-11H669.34v11h-2.28Z"/><path class="cls-4" d="M692.47,100.48c4.26,0,7,3.81,7,8.92s-2.79,9-7.08,9-7.05-3.88-7.05-9S688.21,100.48,692.47,100.48Zm0,15.94c3,0,4.8-3,4.8-7s-1.8-6.88-4.8-6.88-4.77,2.86-4.77,6.88S689.47,116.42,692.44,116.42Z"/><path class="cls-4" d="M703.06,100.89h2.18v2.62c0,.75-.06,1.33-.06,1.33h.06c.58-2.25,2.29-4.13,4.16-4.13a2.3,2.3,0,0,1,.71.11v2.25a2.86,2.86,0,0,0-.71-.07c-2.9,0-4.12,4.39-4.12,7.59V118h-2.22Z"/><path class="cls-4" d="M717.2,123.1c2.52,0,4.46-1.54,4.46-5.39v-1.46c0-.68,0-1.26,0-1.26h0a4.09,4.09,0,0,1-4,2.93c-3.68,0-5.89-3.68-5.89-8.76s2.14-8.68,5.79-8.68a4.26,4.26,0,0,1,4.25,2.82h0v-2.41h2.08v16.72c0,5.45-3.21,7.57-6.54,7.57a8.37,8.37,0,0,1-4.4-1.3l.68-1.91A6.92,6.92,0,0,0,717.2,123.1Zm4.53-14c0-5-1.74-6.58-3.92-6.58-2.48,0-3.81,2.42-3.81,6.55s1.5,6.74,4,6.74C720,115.84,721.73,114.17,721.73,109.13Z"/><path class="cls-4" d="M734.91,107.49h.89V107c0-3.51-1.23-4.53-3.1-4.53a7.18,7.18,0,0,0-3.85,1.26l-.68-1.77a8.06,8.06,0,0,1,4.66-1.46c3.48,0,5.18,2.18,5.18,6.57v11h-2v-1.5a14.19,14.19,0,0,1,.07-1.46H736a5,5,0,0,1-4.4,3.23c-2.18,0-4.43-1.53-4.43-5C727.14,107.87,732.29,107.49,734.91,107.49Zm-2.93,8.9c2.56,0,3.82-3.34,3.82-5.69v-1.43H735c-2,0-5.66.17-5.66,3.81C729.29,115,730.41,116.39,732,116.39Z"/><path class="cls-4" d="M742.3,100.89h2.18v1.73a5.28,5.28,0,0,1-.1,1.06h.07a5.5,5.5,0,0,1,5.21-3.2c3.17,0,4.43,2.11,4.43,5.45V118h-2.25V106.4c0-1.87-.31-3.81-2.69-3.81-2.76,0-4.63,2.69-4.63,5.38v10H742.3Z"/><path class="cls-4" d="M764.92,115.3h2.38V118h-2.38Z"/><path class="cls-4" d="M771.32,115.3h2.39V118h-2.39Z"/><path class="cls-4" d="M777.72,115.3h2.39V118h-2.39Z"/><path class="cls-3" d="M383.63,408.76h2.67v17.66h6.76v2.41h-9.43Z"/><path class="cls-3" d="M395.27,408.76h9.23v2.42h-6.56v6.33h5.31v2.41h-5.31v6.5h6.9v2.41h-9.57Z"/><path class="cls-3" d="M411.28,408.76h2.9l5.45,20.07h-2.7l-1.5-5.79H410l-1.45,5.79h-2.69Zm3.69,12-1.62-6.33c-.25-1.05-.57-2.84-.57-2.84h-.08s-.28,1.79-.54,2.84l-1.65,6.33Z"/><path class="cls-3" d="M421.75,408.76h5.48a5.85,5.85,0,0,1,2.64.66,5.51,5.51,0,0,1,2.81,5.16,6.1,6.1,0,0,1-3.06,5.48v.06a5.08,5.08,0,0,1,.51,1l3.4,7.75h-2.95l-3.26-8h-2.9v8h-2.67Zm5.14,9.71c1.56,0,3-1.39,3-3.72a3.54,3.54,0,0,0-1.28-3,3.27,3.27,0,0,0-1.76-.53h-2.47v7.26Z"/><path class="cls-3" d="M435.89,408.76h2.78L445,421.54a29.75,29.75,0,0,1,1.05,2.84h.09s-.17-1.76-.17-2.9V408.76h2.52v20.07h-2.75L439.41,416c-.51-1.13-1.05-2.87-1.05-2.87h-.09s.17,1.79.17,2.9v12.77h-2.55Z"/><path class="cls-3" d="M458.51,408.76h2.95l3.24,10.62c.31,1.14.68,2.87.68,2.87h.06s.37-1.73.65-2.87l3.24-10.62h2.95l1.25,20.07H471l-.77-12.54c-.05-1.22,0-2.93,0-2.93h-.08s-.37,2-.68,3.1l-2.76,8.8h-2.66l-2.76-8.8c-.31-1.11-.71-3.15-.71-3.15h-.08s.08,1.76,0,3l-.77,12.54h-2.53Z"/><path class="cls-3" d="M483.89,408.42c4.77,0,8,4.12,8,10.25s-3.26,10.5-8,10.5-8-4.23-8-10.5S479.12,408.42,483.89,408.42Zm0,18.2c3.12,0,5.25-3.09,5.25-7.95S487,411,483.89,411s-5.22,2.92-5.22,7.66S480.77,426.62,483.89,426.62Z"/><path class="cls-3" d="M494.84,408.76h5.48a5.85,5.85,0,0,1,2.64.66,5.51,5.51,0,0,1,2.81,5.16,6.1,6.1,0,0,1-3.06,5.48v.06a5.08,5.08,0,0,1,.51,1l3.4,7.75h-2.95l-3.26-8h-2.9v8h-2.67Zm5.14,9.71c1.56,0,3-1.39,3-3.72a3.54,3.54,0,0,0-1.28-3,3.27,3.27,0,0,0-1.76-.53h-2.47v7.26Z"/><path class="cls-3" d="M509,408.76h9.23v2.42h-6.56v6.33H517v2.41h-5.31v6.5h6.9v2.41H509Z"/><path class="cls-3" d="M521.47,425.8h2.58l-2,5.9h-2Z"/><path class="cls-3" d="M535.8,411.18h-5.14v-2.42h13v2.42h-5.17v17.65H535.8Z"/><path class="cls-3" d="M548,408.76h2.89l5.45,20.07h-2.69L552.18,423h-5.39l-1.45,5.79h-2.7Zm3.69,12-1.62-6.33c-.26-1.05-.57-2.84-.57-2.84h-.08s-.29,1.79-.54,2.84l-1.65,6.33Z"/><path class="cls-3" d="M558.51,408.76h2.67v8.41h1.87l3.92-8.41h2.9l-4.4,9.54v.06l4.68,10.47h-3l-4.06-9.17h-1.87v9.17h-2.67Z"/><path class="cls-3" d="M572.3,408.76h9.23v2.42H575v6.33h5.31v2.41H575v6.5h6.9v2.41H572.3Z"/><path class="cls-3" d="M593.11,408.76H596l5.45,20.07h-2.7l-1.5-5.79h-5.4l-1.45,5.79h-2.69Zm3.69,12-1.62-6.33c-.25-1.05-.56-2.84-.56-2.84h-.09s-.28,1.79-.54,2.84l-1.64,6.33Z"/><path class="cls-3" d="M610.94,408.42a7.44,7.44,0,0,1,4.82,1.65l-1.13,2.33A5.7,5.7,0,0,0,611,411c-3.77,0-5.93,3.35-5.93,7.66s2.22,8,5.85,8a6.57,6.57,0,0,0,4.09-1.56l1,2.3a8,8,0,0,1-5.28,1.78c-5.31,0-8.49-4.54-8.49-10.41S605.51,408.42,610.94,408.42Z"/><path class="cls-3" d="M622,411.18H616.9v-2.42h12.94v2.42h-5.16v17.65H622Z"/><path class="cls-3" d="M632.05,408.76h2.67v20.07h-2.67Z"/><path class="cls-3" d="M645.68,408.42c4.77,0,8,4.12,8,10.25s-3.26,10.5-8,10.5-8-4.23-8-10.5S640.91,408.42,645.68,408.42Zm0,18.2c3.12,0,5.25-3.09,5.25-7.95S648.8,411,645.68,411s-5.22,2.92-5.22,7.66S642.56,426.62,645.68,426.62Z"/><path class="cls-3" d="M656.64,408.76h2.78l6.33,12.78a29.75,29.75,0,0,1,1,2.84h.08s-.17-1.76-.17-2.9V408.76h2.53v20.07h-2.75L660.16,416a29.43,29.43,0,0,1-1.06-2.87H659s.17,1.79.17,2.9v12.77h-2.55Z"/><path class="cls-3" d="M563.72,472.61H565v.86a4.26,4.26,0,0,1-.07.8h0a2.72,2.72,0,0,1,2.78-1.92c2.4,0,3.58,2.28,3.58,5.55s-1.35,5.56-3.69,5.56a2.69,2.69,0,0,1-2.61-1.69h0a6.2,6.2,0,0,1,.06.87v4.78h-1.37Zm3.75,9.61c1.58,0,2.49-1.58,2.49-4.3s-.8-4.32-2.43-4.32-2.48,1.28-2.48,4.32C565.05,480.11,565.6,482.22,567.47,482.22Z"/><path class="cls-3" d="M577.9,476.7h.55v-.32c0-2.17-.76-2.8-1.92-2.8a4.44,4.44,0,0,0-2.38.78l-.42-1.1a5,5,0,0,1,2.89-.91c2.15,0,3.2,1.35,3.2,4.07v6.79h-1.26v-.93c0-.53,0-.91,0-.91h0a3.09,3.09,0,0,1-2.72,2c-1.35,0-2.74-.95-2.74-3.12C573.1,476.93,576.28,476.7,577.9,476.7Zm-1.81,5.5c1.58,0,2.36-2.07,2.36-3.52v-.89h-.52c-1.23,0-3.5.11-3.5,2.36C574.43,481.33,575.12,482.2,576.09,482.2Z"/><path class="cls-3" d="M582.69,472.61H584v1.07a3.48,3.48,0,0,1-.06.66h0a3.39,3.39,0,0,1,3.22-2c2,0,2.74,1.31,2.74,3.38v7.48h-1.39V476c0-1.16-.19-2.36-1.66-2.36a3.15,3.15,0,0,0-2.87,3.33v6.22h-1.37Z"/><path class="cls-3" d="M591.88,472.61h1.43l2.15,7.75c.15.55.28,1.29.28,1.29h0s.12-.74.25-1.29l2.17-7.75h1.41l-3.05,10.6H595Z"/><path class="cls-3" d="M605.56,476.7h.55v-.32c0-2.17-.76-2.8-1.92-2.8a4.38,4.38,0,0,0-2.38.78l-.42-1.1a5,5,0,0,1,2.88-.91c2.15,0,3.21,1.35,3.21,4.07v6.79h-1.27v-.93c0-.53,0-.91,0-.91h0a3.08,3.08,0,0,1-2.72,2,2.79,2.79,0,0,1-2.74-3.12C600.75,476.93,603.94,476.7,605.56,476.7Zm-1.81,5.5c1.58,0,2.36-2.07,2.36-3.52v-.89h-.53c-1.22,0-3.5.11-3.5,2.36A1.83,1.83,0,0,0,603.75,482.2Z"/><path class="cls-3" d="M610.34,472.61h1.35v1.07a3.48,3.48,0,0,1-.06.66h0a3.42,3.42,0,0,1,3.23-2c2,0,2.74,1.31,2.74,3.38v7.48h-1.4V476c0-1.16-.18-2.36-1.66-2.36a3.15,3.15,0,0,0-2.87,3.33v6.22h-1.37Z"/><path class="cls-3" d="M624.55,472.35a3.75,3.75,0,0,1,2.74,1.06l-.55,1.14a2.91,2.91,0,0,0-2.17-.95c-1.94,0-3.2,1.77-3.2,4.32s1.22,4.3,3.22,4.3a3.36,3.36,0,0,0,2.47-1.12l.42,1.14a4.17,4.17,0,0,1-3.06,1.22c-2.63,0-4.46-2.23-4.46-5.54S621.75,472.35,624.55,472.35Z"/><path class="cls-3" d="M633.23,472.35c2.64,0,4.37,2.37,4.37,5.53s-1.73,5.58-4.39,5.58-4.36-2.4-4.36-5.58S630.6,472.35,633.23,472.35Zm0,9.87c1.86,0,3-1.86,3-4.36s-1.11-4.26-3-4.26-3,1.77-3,4.26S631.38,482.22,633.21,482.22Z"/><path class="cls-3" d="M639.92,472.61h1.37v7.16c0,1.18.19,2.38,1.68,2.38s2.78-1.62,2.78-3.3v-6.24h1.37v10.6h-1.34v-1.08a3.67,3.67,0,0,1,.06-.67h0a3.33,3.33,0,0,1-3.14,2c-2,0-2.74-1.33-2.74-3.37Z"/><path class="cls-3" d="M649.19,472.61h1.43l2.15,7.75c.15.55.28,1.29.28,1.29h0s.13-.74.25-1.29l2.17-7.75h1.41l-3,10.6h-1.58Z"/><path class="cls-3" d="M662.24,472.35c2.55,0,3.52,2.32,3.52,4.73,0,.27,0,.54,0,.88H659.6c0,2.87,1.35,4.24,3,4.24a3.55,3.55,0,0,0,2.57-1.1l.4,1.12a4.48,4.48,0,0,1-3.1,1.24c-2.68,0-4.28-2.28-4.28-5.65S659.77,472.35,662.24,472.35Zm2.13,4.49c0-2.25-.78-3.28-2.15-3.28s-2.36,1.16-2.62,3.28Z"/><path class="cls-3" d="M668.14,472.61h1.35v1.62c0,.46,0,.82,0,.82h0c.36-1.39,1.41-2.55,2.57-2.55a1.27,1.27,0,0,1,.44.07V474a2,2,0,0,0-.44,0c-1.79,0-2.55,2.72-2.55,4.7v4.6h-1.37Z"/><path class="cls-3" d="M673.7,481.52h1.48v1.69H673.7Z"/><path class="cls-3" d="M682.05,472.35a3.75,3.75,0,0,1,2.74,1.06l-.55,1.14a2.91,2.91,0,0,0-2.17-.95c-1.94,0-3.2,1.77-3.2,4.32s1.22,4.3,3.22,4.3a3.36,3.36,0,0,0,2.47-1.12l.42,1.14a4.17,4.17,0,0,1-3.06,1.22c-2.63,0-4.46-2.23-4.46-5.54S679.25,472.35,682.05,472.35Z"/><path class="cls-3" d="M691.16,476.7h.54v-.32c0-2.17-.75-2.8-1.91-2.8a4.44,4.44,0,0,0-2.39.78l-.42-1.1a5,5,0,0,1,2.89-.91c2.15,0,3.2,1.35,3.2,4.07v6.79h-1.26v-.93c0-.53,0-.91,0-.91h0a3.09,3.09,0,0,1-2.72,2c-1.35,0-2.74-.95-2.74-3.12C686.35,476.93,689.53,476.7,691.16,476.7Zm-1.82,5.5c1.58,0,2.36-2.07,2.36-3.52v-.89h-.52c-1.23,0-3.5.11-3.5,2.36C687.68,481.33,688.37,482.2,689.34,482.2Z"/><polygon class="cls-8" points="743.46 426.67 743.34 435.17 741.44 436.92 738.17 433.87 738.65 421.38 743.46 426.67"/><path class="cls-8" d="M776.44,456.56l-.76,3.47a47.58,47.58,0,0,1-5.29,13.46,32,32,0,0,1-4.49,5.89,25.22,25.22,0,0,1-6,4.61,23.36,23.36,0,0,1-7.23,2.48,25.71,25.71,0,0,1-7.55.09c-.61-.06-1.23-.18-1.83-.29l-.27,0-.69-.15-.7-.17-.67.26-.61.23-.9.28a22.75,22.75,0,0,1-6.54,1c-.36,0-.72,0-1.07,0a18.06,18.06,0,0,1-7.55-2.17,37.18,37.18,0,0,1-5.18-4.05l-3.57,2.8,2.29-8.34,9.27.26-4.21,2.63a30.08,30.08,0,0,0,3.64,2.6A13.28,13.28,0,0,0,732.1,483a17.32,17.32,0,0,0,6-.81l.78-.23.45-.17,1.27-.49a1.91,1.91,0,0,1,1.54-.08,2.44,2.44,0,0,0,.26.06l.06,0,.94.22.52.11.51.09c.43.08.85.16,1.27.2a21.41,21.41,0,0,0,6.21-.07,18.52,18.52,0,0,0,5.76-2,23.79,23.79,0,0,0,8.73-8.81A42.93,42.93,0,0,0,771.13,459l.59-2.87,2,2.11Z"/><path class="cls-9" d="M743.73,442.59l-.18-.33-.24-.39h0c-.18-.28-.44-.67-.58-.91l-.05-.08c-.08-.1-.55-.83-1-1.48l-.86-1.14-.11-.12a15.49,15.49,0,0,0-1.17-1.29l-.67-.67-.69-.64a18.88,18.88,0,0,0-6.73-3.92,16.6,16.6,0,0,0-7.92-.58,18.23,18.23,0,0,0-7.24,3,21.28,21.28,0,0,0-5.49,5.38,22,22,0,0,0-4,14.55,10.74,10.74,0,0,0,.16,1.3c0,.2.07.4.11.64.07.43.18.84.28,1.25.06.2.11.4.17.64.34,1.21.71,2.36,1.05,3.38.8,2.42,1.61,4.59,2.46,6.64.94,2.24,4.8,9.95,4.8,9.95l1.35-3.17h3.39s-4.13-6.37-5.25-8.64c-.25-.52-1.66-4.28-2.32-6.27-.35-1.05-.7-2.14-1-3.14l-.15-.6c-.08-.31-.16-.6-.21-.85s0-.43-.09-.64-.1-.6-.12-.9a17.23,17.23,0,0,1,3.18-11.43,15.43,15.43,0,0,1,9.7-6.46,12.21,12.21,0,0,1,5.7.41,14.46,14.46,0,0,1,5.07,3l.56.51.56.57c.11.12,1.11,1.29,1.54,1.85a23.35,23.35,0,0,1,1.74,2.62l0,.05-3.87,1.83,7.81,1.06,3.75-6.35Z"/><path class="cls-10" d="M780.49,452.6l-6.53,4-4.65-5.15,3.24.39c0-.47,0-.66-.11-1.35A23.66,23.66,0,0,0,768,438.69a14.76,14.76,0,0,0-4.52-4.11,11.06,11.06,0,0,0-5.65-1.48,13.36,13.36,0,0,0-5.79,1.62,21.45,21.45,0,0,0-4.6,3.32l-.52.48-.43.42-.59.58L744.65,441l-.47.54V438.7l-2.51.08,1.5-1.62c.28-.3.56-.57.84-.83l.44-.43.15-.14.14-.13a25.46,25.46,0,0,1,5.64-4.1,16.6,16.6,0,0,1,7.38-2,14.71,14.71,0,0,1,7.53,1.95,18.35,18.35,0,0,1,5.62,5.07A28.06,28.06,0,0,1,776,450.18a13.82,13.82,0,0,1,.1,2Z"/><path class="cls-3" d="M398,449.54h-1v-1.2h1v-.47c0-3.45,2-3.94,2.95-3.94a3.23,3.23,0,0,1,.61,0v1.25a1.84,1.84,0,0,0-.36-.05c-.86,0-1.79.51-1.79,2.7v.47h2v1.2h-2v9.31H398Z"/><path class="cls-3" d="M407.5,452.34h.55V452c0-2.17-.76-2.8-1.92-2.8a4.47,4.47,0,0,0-2.38.78l-.42-1.1a5.08,5.08,0,0,1,2.89-.9c2.15,0,3.2,1.35,3.2,4.07v6.78h-1.26v-.93c0-.52,0-.9,0-.9h0a3.09,3.09,0,0,1-2.72,2c-1.35,0-2.74-.95-2.74-3.12C402.7,452.57,405.88,452.34,407.5,452.34Zm-1.81,5.5c1.58,0,2.36-2.07,2.36-3.52v-.88h-.53c-1.22,0-3.49.1-3.49,2.36A1.81,1.81,0,0,0,405.69,457.84Z"/><path class="cls-3" d="M416.33,448a3.73,3.73,0,0,1,2.74,1.05l-.54,1.14a3,3,0,0,0-2.17-.95c-1.94,0-3.21,1.77-3.21,4.32s1.22,4.3,3.23,4.3a3.36,3.36,0,0,0,2.46-1.12l.42,1.14a4.12,4.12,0,0,1-3.05,1.22c-2.64,0-4.47-2.23-4.47-5.54S413.53,448,416.33,448Z"/><path class="cls-3" d="M424.72,448c2.55,0,3.52,2.32,3.52,4.72,0,.27,0,.55,0,.88h-6.11c0,2.87,1.35,4.24,3,4.24a3.53,3.53,0,0,0,2.57-1.1l.4,1.12A4.4,4.4,0,0,1,425,459.1c-2.68,0-4.28-2.27-4.28-5.64S422.26,448,424.72,448Zm2.13,4.49c0-2.26-.78-3.29-2.15-3.29s-2.36,1.16-2.61,3.29Z"/><path class="cls-3" d="M430.63,444H432V449a5,5,0,0,1-.07.86H432a2.71,2.71,0,0,1,2.73-1.85c2.39,0,3.59,2.27,3.59,5.54s-1.37,5.56-3.71,5.56a2.72,2.72,0,0,1-2.68-1.75h0a5.49,5.49,0,0,1,.06.81v.69h-1.3Zm3.77,13.82c1.56,0,2.46-1.58,2.46-4.3s-.8-4.32-2.42-4.32-2.49,1.27-2.49,4.32C432,455.75,432.5,457.86,434.4,457.86Z"/><path class="cls-3" d="M444.77,448a3.74,3.74,0,0,1,2.74,1.05l-.55,1.14a2.93,2.93,0,0,0-2.17-.95c-1.94,0-3.2,1.77-3.2,4.32s1.22,4.3,3.22,4.3a3.38,3.38,0,0,0,2.47-1.12l.42,1.14a4.13,4.13,0,0,1-3.06,1.22c-2.63,0-4.47-2.23-4.47-5.54S442,448,444.77,448Z"/><path class="cls-3" d="M449.74,457.17h1.48v1.68h-1.48Z"/><path class="cls-3" d="M458.09,448a3.74,3.74,0,0,1,2.74,1.05l-.55,1.14a2.91,2.91,0,0,0-2.17-.95c-1.94,0-3.2,1.77-3.2,4.32s1.22,4.3,3.22,4.3a3.36,3.36,0,0,0,2.47-1.12l.42,1.14A4.13,4.13,0,0,1,458,459.1c-2.63,0-4.46-2.23-4.46-5.54S455.29,448,458.09,448Z"/><path class="cls-3" d="M467.2,452.34h.54V452c0-2.17-.75-2.8-1.91-2.8a4.53,4.53,0,0,0-2.39.78l-.42-1.1a5.08,5.08,0,0,1,2.89-.9c2.15,0,3.2,1.35,3.2,4.07v6.78h-1.26v-.93c0-.52,0-.9,0-.9h0a3.08,3.08,0,0,1-2.72,2c-1.35,0-2.74-.95-2.74-3.12C462.39,452.57,465.57,452.34,467.2,452.34Zm-1.82,5.5c1.58,0,2.36-2.07,2.36-3.52v-.88h-.52c-1.23,0-3.5.1-3.5,2.36A1.81,1.81,0,0,0,465.38,457.84Z"/><path class="cls-3" d="M475.46,443.21h1.24l-4.13,16.53h-1.24Z"/><path class="cls-3" d="M478.75,448.25h1.35v1.08a2.85,2.85,0,0,1-.07.65h.05a3.38,3.38,0,0,1,3.22-2c2,0,2.74,1.3,2.74,3.37v7.48h-1.39v-7.19c0-1.15-.19-2.36-1.67-2.36a3.15,3.15,0,0,0-2.86,3.33v6.22h-1.37Z"/><path class="cls-3" d="M492.43,448c2.55,0,3.52,2.32,3.52,4.72,0,.27,0,.55-.05.88h-6.11c0,2.87,1.35,4.24,3,4.24a3.57,3.57,0,0,0,2.58-1.1l.4,1.12a4.44,4.44,0,0,1-3.1,1.24c-2.68,0-4.28-2.27-4.28-5.64S490,448,492.43,448Zm2.12,4.49c0-2.26-.78-3.29-2.14-3.29s-2.36,1.16-2.62,3.29Z"/><path class="cls-3" d="M497.32,448.25h1.41l1.81,7.88c.13.51.23,1.14.23,1.14h0s.11-.65.21-1.14l1.9-7.84h1.39l1.9,7.84a10.24,10.24,0,0,1,.21,1.14h0s.11-.61.23-1.14l1.84-7.88h1.37l-2.64,10.6h-1.56l-1.85-7.54a11.11,11.11,0,0,1-.21-1.16h0s-.09.65-.21,1.16l-1.84,7.54H500Z"/><path class="cls-3" d="M512.47,462c.72,0,1.2-.78,1.5-1.77l.46-1.47L511,448.25h1.47l2.3,7.71a8.64,8.64,0,0,1,.23,1.16h0s.15-.67.28-1.16l2.21-7.71h1.43l-3.83,12.58c-.45,1.5-1.39,2.45-2.57,2.45a2.52,2.52,0,0,1-1.54-.53l.44-1.12A1.69,1.69,0,0,0,512.47,462Z"/><path class="cls-3" d="M524.25,448c2.55,0,3.52,2.32,3.52,4.72,0,.27,0,.55,0,.88h-6.11c0,2.87,1.35,4.24,3,4.24a3.53,3.53,0,0,0,2.57-1.1l.4,1.12a4.4,4.4,0,0,1-3.09,1.24c-2.68,0-4.28-2.27-4.28-5.64S521.79,448,524.25,448Zm2.13,4.49c0-2.26-.78-3.29-2.15-3.29s-2.36,1.16-2.61,3.29Z"/><path class="cls-3" d="M534.25,452.34h.54V452c0-2.17-.76-2.8-1.91-2.8a4.53,4.53,0,0,0-2.39.78l-.42-1.1A5.08,5.08,0,0,1,533,448c2.15,0,3.2,1.35,3.2,4.07v6.78H534.9v-.93c0-.52,0-.9,0-.9h0a3.08,3.08,0,0,1-2.72,2c-1.35,0-2.74-.95-2.74-3.12C529.44,452.57,532.62,452.34,534.25,452.34Zm-1.82,5.5c1.58,0,2.36-2.07,2.36-3.52v-.88h-.52c-1.23,0-3.5.1-3.5,2.36A1.81,1.81,0,0,0,532.43,457.84Z"/><path class="cls-3" d="M539,448.25h1.35v1.62c0,.47,0,.83,0,.83h0c.36-1.4,1.41-2.55,2.57-2.55a1.51,1.51,0,0,1,.44.06v1.39a2.11,2.11,0,0,0-.44,0c-1.79,0-2.55,2.72-2.55,4.7v4.59H539Z"/><path class="cls-11" d="M384.47,440.94H272.29v39.32H384.47ZM382,477.83H274.72V443.36H382Z"/><path class="cls-11" d="M275.69,444.33v32.53H381.07V444.33Zm20.37,18.59H283.25v11.57H278.5V446.28h18.93l0,4.27H283.25v8.14h12.81Zm25.39,11.57-2.7-6.37H304.53l-2.7,6.37h-5l12.45-28.21h4.88l12.33,28.21Zm20.43.2a14.3,14.3,0,0,1-14.67-14.35c0-8,6.49-14.18,14.83-14.18a15.57,15.57,0,0,1,10.72,4.35L350,454a11,11,0,0,0-7.86-3.59,9.94,9.94,0,1,0,0,19.87,11.66,11.66,0,0,0,7.86-3.35l2.82,3.14A16,16,0,0,1,341.88,474.69Zm36.38-.2H357.63V446.28h20.15v4.27H362.39v7.62h13.78v4.27H362.39v7.78h15.87Z"/><polygon class="cls-11" points="306.3 463.89 316.94 463.89 311.62 451.36 306.3 463.89"/><path class="cls-11" d="M311.62,456.33,314,462h-4.77l2.39-5.62m0-5-5.32,12.53h10.64l-5.32-12.53Z"/><path class="cls-11" d="M355.69,446.28h0v28.64h-6.51a18.46,18.46,0,0,0,5-3.48l1.32-1.3-1.24-1.38-2.82-3.14-1.34-1.5-1.45,1.39a9.7,9.7,0,0,1-6.51,2.8,8,8,0,1,1,0-16,9.12,9.12,0,0,1,6.43,3l1.53,1.65,1.41-1.76,2.78-3.46,1.1-1.37-1.25-1.23a16.6,16.6,0,0,0-3.93-2.85h5.5m-22,0a15.85,15.85,0,0,0-8.46,14.06,16.09,16.09,0,0,0,9.07,14.58h-5.51l-.53-1.21-12-27.43h17.42m-26.53,0L295.1,473.7l-.54,1.22h-9.37V464.87H298v-8.12H285.19V452.5h14.13l0-1.93,0-4.27v0h7.82m71.93,6.22v15.77h-14.8v-3.89h13.78v-8.15H364.33V452.5h14.8m-61.67,17.56,2.06,4.86H303.75l2.06-4.86h11.65m63.61-25.73H275.69v32.53H381.07V444.33Zm-39.19,30.36a14.3,14.3,0,0,1-14.67-14.35c0-8,6.49-14.18,14.83-14.18a15.57,15.57,0,0,1,10.72,4.35L350,454a11,11,0,0,0-7.86-3.59,9.94,9.94,0,1,0,0,19.87,11.66,11.66,0,0,0,7.86-3.35l2.82,3.14a16,16,0,0,1-10.92,4.64Zm15.75-.2V446.28h20.15v4.27H362.39v7.62h13.78v4.27H362.39v7.78h15.87v4.27Zm-60.76,0,12.45-28.21h4.88l12.33,28.21h-5.08l-2.7-6.37H304.53l-2.7,6.37Zm.56-28.21,0,4.27H283.25v8.14h12.81v4.23H283.25v11.57H278.5V446.28Z"/><path class="cls-3" d="M273.09,482.51v1.33h2.09v.69h-2.09v1.88h-.77v-4.59h3.08v.69Z"/><path class="cls-3" d="M278.13,486a1.41,1.41,0,0,1-1.15.46,1.11,1.11,0,0,1-1.23-1.08c0-.64.48-1,1.32-1.05h1.05v-.11c0-.44-.28-.7-.83-.7a1.84,1.84,0,0,0-1,.36l-.31-.53a2.57,2.57,0,0,1,1.51-.44c.89,0,1.4.46,1.4,1.23v2.29h-.74Zm0-.8v-.32h-.94c-.49,0-.72.13-.72.46s.25.52.67.52S278.08,485.56,278.12,485.18Z"/><path class="cls-3" d="M285.71,484.24v2.17H285v-2a.78.78,0,0,0-.82-.86,1,1,0,0,0-1,1.09v1.73h-.75v-2a.78.78,0,0,0-.82-.86,1,1,0,0,0-1,1.09v1.73h-.75v-3.49h.75v.67a1.29,1.29,0,0,1,1.26-.7,1.18,1.18,0,0,1,1.22.84,1.28,1.28,0,0,1,1.32-.84A1.21,1.21,0,0,1,285.71,484.24Z"/><path class="cls-3" d="M287.53,481.92a.44.44,0,1,1-.44-.46A.43.43,0,0,1,287.53,481.92Zm-.81,4.49v-3.49h.74v3.49Z"/><path class="cls-3" d="M288.61,486.41v-4.87h.75v4.87Z"/><path class="cls-3" d="M291.32,481.92a.44.44,0,1,1-.44-.46A.43.43,0,0,1,291.32,481.92Zm-.81,4.49v-3.49h.75v3.49Z"/><path class="cls-3" d="M295.44,485H292.8a1.06,1.06,0,0,0,1.09.87,1.36,1.36,0,0,0,1-.4l.4.42a1.87,1.87,0,0,1-1.44.59,1.68,1.68,0,0,1-1.79-1.76,1.7,1.7,0,0,1,1.77-1.78C295,482.89,295.53,483.69,295.44,485Zm-.66-.55a.89.89,0,0,0-1-.9,1,1,0,0,0-1,.9Z"/><path class="cls-3" d="M298.49,483.24l-.28.56a2,2,0,0,0-1-.31c-.3,0-.51.1-.51.35,0,.64,1.85.29,1.85,1.56,0,.71-.64,1-1.34,1a2.21,2.21,0,0,1-1.41-.48l.27-.54a1.92,1.92,0,0,0,1.17.43c.32,0,.57-.11.57-.37,0-.72-1.83-.32-1.83-1.57,0-.71.62-1,1.29-1A2.24,2.24,0,0,1,298.49,483.24Z"/><path class="cls-3" d="M301.69,485.37l-.44,1h-.81l2-4.59h.79l2,4.59h-.83l-.44-1Zm1.15-2.73-.86,2h1.73Z"/><path class="cls-3" d="M308.81,486.07A1.62,1.62,0,0,1,307,487.7a2.52,2.52,0,0,1-1.45-.46l.32-.55a1.74,1.74,0,0,0,1.1.39,1,1,0,0,0,1.09-1v-.44a1.28,1.28,0,0,1-1.15.59,1.68,1.68,0,0,1,0-3.35,1.31,1.31,0,0,1,1.18.59v-.56h.75Zm-.75-1.5a1,1,0,0,0-1-1.07,1.08,1.08,0,0,0,0,2.15A1,1,0,0,0,308.06,484.57Z"/><path class="cls-3" d="M312,486a1.42,1.42,0,0,1-1.16.46,1.1,1.1,0,0,1-1.22-1.08c0-.64.48-1,1.32-1.05h1.05v-.11c0-.44-.28-.7-.83-.7a1.81,1.81,0,0,0-1,.36l-.31-.53a2.56,2.56,0,0,1,1.5-.44c.9,0,1.4.46,1.41,1.23v2.29H312Zm0-.8v-.32H311c-.5,0-.72.13-.72.46s.25.52.67.52S311.9,485.56,311.94,485.18Z"/><path class="cls-3" d="M314.51,481.92a.44.44,0,1,1-.44-.46A.43.43,0,0,1,314.51,481.92Zm-.81,4.49v-3.49h.74v3.49Z"/><path class="cls-3" d="M318.89,484.24v2.17h-.75v-2a.78.78,0,0,0-.84-.85,1,1,0,0,0-1,.95v1.86h-.75v-3.49h.75v.67a1.32,1.32,0,0,1,1.29-.7A1.22,1.22,0,0,1,318.89,484.24Z"/><path class="cls-3" d="M322.16,483.24l-.27.56a2.08,2.08,0,0,0-1-.31c-.3,0-.52.1-.52.35,0,.64,1.86.29,1.85,1.56,0,.71-.63,1-1.33,1a2.19,2.19,0,0,1-1.41-.48l.27-.54a1.9,1.9,0,0,0,1.17.43c.32,0,.57-.11.57-.37,0-.72-1.84-.32-1.83-1.57,0-.71.62-1,1.28-1A2.21,2.21,0,0,1,322.16,483.24Z"/><path class="cls-3" d="M325,486.18a1.65,1.65,0,0,1-.86.26.92.92,0,0,1-1-1v-1.81h-.49v-.56h.49v-1h.75v1h1v.56h-1v1.68c0,.36.14.47.37.47a1.23,1.23,0,0,0,.53-.15Z"/><path class="cls-3" d="M331.16,482.51l-.45.56a1.78,1.78,0,0,0-1.28-.58,1.62,1.62,0,1,0,0,3.23,1.88,1.88,0,0,0,1.28-.55l.46.52a2.66,2.66,0,0,1-1.78.75,2.32,2.32,0,1,1,0-4.64A2.51,2.51,0,0,1,331.16,482.51Z"/><path class="cls-3" d="M335.08,486.41h-.76v-.69a1.26,1.26,0,0,1-1.24.71,1.21,1.21,0,0,1-1.28-1.34v-2.17h.75v2a.76.76,0,0,0,.81.84,1,1,0,0,0,1-1.08v-1.72h.76Z"/><path class="cls-3" d="M338.16,486.18a1.6,1.6,0,0,1-.86.26.92.92,0,0,1-1-1v-1.81h-.5v-.56h.5v-1h.74v1h1v.56h-1v1.68c0,.36.14.47.38.47a1.19,1.19,0,0,0,.52-.15Z"/><path class="cls-3" d="M341.12,483.24l-.28.56a2,2,0,0,0-1-.31c-.3,0-.51.1-.51.35,0,.64,1.85.29,1.85,1.56,0,.71-.64,1-1.34,1a2.16,2.16,0,0,1-1.4-.48l.26-.54a1.92,1.92,0,0,0,1.17.43c.32,0,.57-.11.57-.37,0-.72-1.83-.32-1.83-1.57,0-.71.62-1,1.29-1A2.24,2.24,0,0,1,341.12,483.24Z"/><path class="cls-3" d="M345.6,486.18a1.63,1.63,0,0,1-.86.26.92.92,0,0,1-1-1v-1.81h-.49v-.56h.49v-1h.75v1h1v.56h-1v1.68c0,.36.14.47.38.47a1.19,1.19,0,0,0,.52-.15Z"/><path class="cls-3" d="M349.57,484.66a1.82,1.82,0,1,1-1.82-1.77A1.71,1.71,0,0,1,349.57,484.66Zm-2.89,0a1.07,1.07,0,1,0,1.07-1.13A1.05,1.05,0,0,0,346.68,484.67Z"/><path class="cls-3" d="M352.86,482.51v1.24h2.24v.7h-2.24v1.26h2.58v.7h-3.35v-4.59h3.28v.69Z"/><path class="cls-3" d="M359.66,486.41h-.75v-.6a1.35,1.35,0,0,1-1.23.63,1.78,1.78,0,0,1,0-3.55,1.4,1.4,0,0,1,1.24.63v-2h.75Zm-.75-1.73a1.07,1.07,0,1,0-1.07,1.13A1.06,1.06,0,0,0,358.91,484.68Z"/><path class="cls-3" d="M364,486.41h-.76v-.69a1.26,1.26,0,0,1-1.24.71,1.21,1.21,0,0,1-1.28-1.34v-2.17h.75v2a.77.77,0,0,0,.82.84,1,1,0,0,0,1-1.08v-1.72H364Z"/><path class="cls-3" d="M368,483.46l-.41.49a1.35,1.35,0,0,0-1-.4,1.12,1.12,0,0,0,0,2.23,1.29,1.29,0,0,0,1-.42l.42.42a1.75,1.75,0,0,1-1.48.65,1.77,1.77,0,0,1,0-3.54A1.86,1.86,0,0,1,368,483.46Z"/><path class="cls-3" d="M370.73,486a1.41,1.41,0,0,1-1.15.46,1.11,1.11,0,0,1-1.23-1.08c0-.64.48-1,1.32-1.05h1.06v-.11c0-.44-.29-.7-.84-.7a1.84,1.84,0,0,0-1,.36l-.3-.53a2.53,2.53,0,0,1,1.5-.44c.9,0,1.4.46,1.41,1.23v2.29h-.74Zm0-.8v-.32h-1c-.49,0-.72.13-.72.46s.26.52.68.52S370.69,485.56,370.73,485.18Z"/><path class="cls-3" d="M374.46,486.18a1.65,1.65,0,0,1-.86.26.92.92,0,0,1-1-1v-1.81h-.49v-.56h.49v-1h.75v1h1v.56h-1v1.68c0,.36.13.47.37.47a1.23,1.23,0,0,0,.53-.15Z"/><path class="cls-3" d="M376,481.92a.44.44,0,1,1-.44-.46A.43.43,0,0,1,376,481.92Zm-.81,4.49v-3.49h.75v3.49Z"/><path class="cls-3" d="M380.32,484.66a1.82,1.82,0,1,1-1.81-1.77A1.71,1.71,0,0,1,380.32,484.66Zm-2.88,0a1.07,1.07,0,1,0,1.07-1.13A1.05,1.05,0,0,0,377.44,484.67Z"/><path class="cls-3" d="M384.44,484.24v2.17h-.75v-2a.78.78,0,0,0-.84-.85,1,1,0,0,0-1,.95v1.86h-.75v-3.49h.75v.67a1.32,1.32,0,0,1,1.29-.7A1.22,1.22,0,0,1,384.44,484.24Z"/></g></svg>